SplineFontDB: 3.2
FontName: BoldPixels
FullName: BoldPixels
FamilyName: Pixels
Weight: Bold
Copyright: YukiPixels 2024
Version: 1.6
ItalicAngle: 0
UnderlinePosition: -160
UnderlineWidth: 64
Ascent: 768
Descent: 256
InvalidEm: 0
LayerCount: 2
Layer: 0 1 "Arri+AOgA-re" 1
Layer: 1 1 "Avant" 0
XUID: [1021 758 -47158387 25263]
StyleMap: 0x0040
FSType: 0
OS2Version: 2
OS2_WeightWidthSlopeOnly: 0
OS2_UseTypoMetrics: 0
CreationTime: 1280473793
ModificationTime: 1769170764
PfmFamily: 17
TTFWeight: 800
TTFWidth: 5
LineGap: 92
VLineGap: 0
Panose: 2 0 6 3 0 0 0 0 0 0
OS2TypoAscent: 768
OS2TypoAOffset: 0
OS2TypoDescent: -256
OS2TypoDOffset: 0
OS2TypoLinegap: 92
OS2WinAscent: 704
OS2WinAOffset: 0
OS2WinDescent: 192
OS2WinDOffset: 0
HheadAscent: 704
HheadAOffset: 0
HheadDescent: -192
HheadDOffset: 0
OS2SubXSize: 665
OS2SubYSize: 716
OS2SubXOff: 0
OS2SubYOff: 143
OS2SupXSize: 665
OS2SupYSize: 716
OS2SupXOff: 0
OS2SupYOff: 491
OS2StrikeYSize: 51
OS2StrikeYPos: 265
OS2CapHeight: 512
OS2XHeight: 448
OS2Vendor: 'PXLS'
OS2CodePages: 60000197.00000000
OS2UnicodeRanges: a00002bf.400170eb.00000014.00000000
MarkAttachClasses: 1
DEI: 91125
ShortTable: cvt  2
  34
  648
EndShort
ShortTable: maxp 16
  1
  0
  1322
  80
  5
  0
  0
  2
  0
  1
  1
  0
  64
  46
  0
  0
EndShort
LangName: 1033 "" "" "" "BoldPixels" "" "Version 1.6" "" "BoldPixels" "YukiPixels" "YukiPixels" "A charming free pixel font for your personal and commercial projects!" "https://yukipixels.itch.io/boldpixels" "https://linktr.ee/yukipixels" "Creative Commons Attribution ShareAlike v4.0 International" "https://creativecommons.org/licenses/by-sa/4.0/deed.en"
GaspTable: 1 65535 0 0
Encoding: Original
UnicodeInterp: none
NameList: AGL For New Fonts
DisplaySize: -48
AntiAlias: 0
FitToEm: 0
WinInfo: 0 38 14
BeginPrivate: 0
EndPrivate
BeginChars: 1322 1321

StartChar: exclam
Encoding: 4 33 3
GlifName: exclam
Width: 256
GlyphClass: 1
Flags: W
LayerCount: 2
Fore
SplineSet
128 0 m 1,0,-1
 64 0 l 1,1,-1
 64 64 l 1,2,-1
 64 128 l 1,3,-1
 128 128 l 1,4,-1
 192 128 l 1,5,-1
 192 64 l 1,6,-1
 192 0 l 1,7,-1
 128 0 l 1,0,-1
128 192 m 1,8,-1
 64 192 l 1,9,-1
 64 256 l 1,10,-1
 64 320 l 1,11,-1
 64 384 l 1,12,-1
 64 448 l 1,13,-1
 64 512 l 1,14,-1
 64 576 l 1,15,-1
 128 576 l 1,16,-1
 192 576 l 1,17,-1
 192 512 l 1,18,-1
 192 448 l 1,19,-1
 192 384 l 1,20,-1
 192 320 l 1,21,-1
 192 256 l 1,22,-1
 192 192 l 1,23,-1
 128 192 l 1,8,-1
EndSplineSet
EndChar

StartChar: quotedbl
Encoding: 5 34 4
GlifName: quotedbl
Width: 384
GlyphClass: 1
Flags: W
LayerCount: 2
Fore
SplineSet
256 320 m 1,0,-1
 192 320 l 1,1,-1
 192 384 l 1,2,-1
 192 448 l 1,3,-1
 192 512 l 1,4,-1
 192 576 l 1,5,-1
 256 576 l 1,6,-1
 320 576 l 1,7,-1
 320 512 l 1,8,-1
 320 448 l 1,9,-1
 320 384 l 1,10,-1
 320 320 l 1,11,-1
 256 320 l 1,0,-1
64 320 m 1,12,-1
 0 320 l 1,13,-1
 0 384 l 1,14,-1
 0 448 l 1,15,-1
 0 512 l 1,16,-1
 0 576 l 1,17,-1
 64 576 l 1,18,-1
 128 576 l 1,19,-1
 128 512 l 1,20,-1
 128 448 l 1,21,-1
 128 384 l 1,22,-1
 128 320 l 1,23,-1
 64 320 l 1,12,-1
EndSplineSet
EndChar

StartChar: numbersign
Encoding: 6 35 5
GlifName: numbersign
Width: 576
GlyphClass: 1
Flags: W
LayerCount: 2
Fore
SplineSet
384 0 m 1,0,-1
 320 0 l 1,1,-1
 320 64 l 1,2,-1
 256 64 l 1,3,-1
 192 64 l 1,4,-1
 192 0 l 1,5,-1
 128 0 l 1,6,-1
 64 0 l 1,7,-1
 64 64 l 1,8,-1
 0 64 l 1,9,-1
 0 128 l 1,10,-1
 0 192 l 1,11,-1
 64 192 l 1,12,-1
 64 256 l 1,13,-1
 64 320 l 1,14,-1
 0 320 l 1,15,-1
 0 384 l 1,16,-1
 0 448 l 1,17,-1
 64 448 l 1,18,-1
 64 512 l 1,19,-1
 128 512 l 1,20,-1
 192 512 l 1,21,-1
 192 448 l 1,22,-1
 256 448 l 1,23,-1
 320 448 l 1,24,-1
 320 512 l 1,25,-1
 384 512 l 1,26,-1
 448 512 l 1,27,-1
 448 448 l 1,28,-1
 512 448 l 1,29,-1
 512 384 l 1,30,-1
 512 320 l 1,31,-1
 448 320 l 1,32,-1
 448 256 l 1,33,-1
 448 192 l 1,34,-1
 512 192 l 1,35,-1
 512 128 l 1,36,-1
 512 64 l 1,37,-1
 448 64 l 1,38,-1
 448 0 l 1,39,-1
 384 0 l 1,0,-1
256 192 m 1,40,-1
 320 192 l 1,41,-1
 320 256 l 1,42,-1
 320 320 l 1,43,-1
 256 320 l 1,44,-1
 192 320 l 1,45,-1
 192 256 l 1,46,-1
 192 192 l 1,47,-1
 256 192 l 1,40,-1
EndSplineSet
EndChar

StartChar: dollar
Encoding: 7 36 6
GlifName: dollar
Width: 576
GlyphClass: 1
Flags: W
LayerCount: 2
Fore
SplineSet
256 -64 m 1,0,-1
 192 -64 l 1,1,-1
 192 0 l 1,2,-1
 128 0 l 1,3,-1
 64 0 l 1,4,-1
 0 0 l 1,5,-1
 0 64 l 1,6,-1
 0 128 l 1,7,-1
 64 128 l 1,8,-1
 128 128 l 1,9,-1
 192 128 l 1,10,-1
 192 192 l 1,11,-1
 128 192 l 1,12,-1
 64 192 l 1,13,-1
 64 256 l 1,14,-1
 0 256 l 1,15,-1
 0 320 l 1,16,-1
 0 384 l 1,17,-1
 0 448 l 1,18,-1
 64 448 l 1,19,-1
 64 512 l 1,20,-1
 128 512 l 1,21,-1
 192 512 l 1,22,-1
 192 576 l 1,23,-1
 256 576 l 1,24,-1
 320 576 l 1,25,-1
 320 512 l 1,26,-1
 384 512 l 1,27,-1
 448 512 l 1,28,-1
 512 512 l 1,29,-1
 512 448 l 1,30,-1
 512 384 l 1,31,-1
 448 384 l 1,32,-1
 384 384 l 1,33,-1
 320 384 l 1,34,-1
 320 320 l 1,35,-1
 384 320 l 1,36,-1
 448 320 l 1,37,-1
 448 256 l 1,38,-1
 512 256 l 1,39,-1
 512 192 l 1,40,-1
 512 128 l 1,41,-1
 512 64 l 1,42,-1
 448 64 l 1,43,-1
 448 0 l 1,44,-1
 384 0 l 1,45,-1
 320 0 l 1,46,-1
 320 -64 l 1,47,-1
 256 -64 l 1,0,-1
384 128 m 1,48,-1
 384 192 l 1,49,-1
 320 192 l 1,50,-1
 320 128 l 1,51,-1
 384 128 l 1,48,-1
192 320 m 1,52,-1
 192 384 l 1,53,-1
 128 384 l 1,54,-1
 128 320 l 1,55,-1
 192 320 l 1,52,-1
EndSplineSet
EndChar

StartChar: percent
Encoding: 8 37 7
GlifName: percent
Width: 576
GlyphClass: 1
Flags: W
LayerCount: 2
Fore
SplineSet
128 0 m 1,0,-1
 64 0 l 1,1,-1
 64 64 l 1,2,-1
 64 128 l 1,3,-1
 64 192 l 1,4,-1
 128 192 l 1,5,-1
 128 256 l 1,6,-1
 192 256 l 1,7,-1
 192 320 l 1,8,-1
 256 320 l 1,9,-1
 256 384 l 1,10,-1
 320 384 l 1,11,-1
 320 448 l 1,12,-1
 320 512 l 1,13,-1
 384 512 l 1,14,-1
 448 512 l 1,15,-1
 448 448 l 1,16,-1
 448 384 l 1,17,-1
 448 320 l 1,18,-1
 384 320 l 1,19,-1
 384 256 l 1,20,-1
 320 256 l 1,21,-1
 320 192 l 1,22,-1
 256 192 l 1,23,-1
 256 128 l 1,24,-1
 192 128 l 1,25,-1
 192 64 l 1,26,-1
 192 0 l 1,27,-1
 128 0 l 1,0,-1
448 64 m 1,28,-1
 384 64 l 1,29,-1
 384 128 l 1,30,-1
 384 192 l 1,31,-1
 448 192 l 1,32,-1
 512 192 l 1,33,-1
 512 128 l 1,34,-1
 512 64 l 1,35,-1
 448 64 l 1,28,-1
64 320 m 1,36,-1
 0 320 l 1,37,-1
 0 384 l 1,38,-1
 0 448 l 1,39,-1
 64 448 l 1,40,-1
 128 448 l 1,41,-1
 128 384 l 1,42,-1
 128 320 l 1,43,-1
 64 320 l 1,36,-1
EndSplineSet
EndChar

StartChar: ampersand
Encoding: 9 38 8
GlifName: ampersand
Width: 576
GlyphClass: 1
Flags: W
LayerCount: 2
Fore
SplineSet
448 0 m 1,0,-1
 384 0 l 1,1,-1
 384 64 l 1,2,-1
 320 64 l 1,3,-1
 320 0 l 1,4,-1
 256 0 l 1,5,-1
 192 0 l 1,6,-1
 128 0 l 1,7,-1
 64 0 l 1,8,-1
 64 64 l 1,9,-1
 0 64 l 1,10,-1
 0 128 l 1,11,-1
 0 192 l 1,12,-1
 0 256 l 1,13,-1
 64 256 l 1,14,-1
 64 320 l 1,15,-1
 0 320 l 1,16,-1
 0 384 l 1,17,-1
 0 448 l 1,18,-1
 64 448 l 1,19,-1
 64 512 l 1,20,-1
 128 512 l 1,21,-1
 192 512 l 1,22,-1
 256 512 l 1,23,-1
 320 512 l 1,24,-1
 320 448 l 1,25,-1
 384 448 l 1,26,-1
 384 384 l 1,27,-1
 384 320 l 1,28,-1
 320 320 l 1,29,-1
 320 256 l 1,30,-1
 384 256 l 1,31,-1
 384 320 l 1,32,-1
 448 320 l 1,33,-1
 512 320 l 1,34,-1
 512 256 l 1,35,-1
 512 192 l 1,36,-1
 448 192 l 1,37,-1
 448 128 l 1,38,-1
 512 128 l 1,39,-1
 512 64 l 1,40,-1
 512 0 l 1,41,-1
 448 0 l 1,0,-1
192 128 m 1,42,-1
 256 128 l 1,43,-1
 256 192 l 1,44,-1
 192 192 l 1,45,-1
 128 192 l 1,46,-1
 128 128 l 1,47,-1
 192 128 l 1,42,-1
192 320 m 1,48,-1
 256 320 l 1,49,-1
 256 384 l 1,50,-1
 192 384 l 1,51,-1
 128 384 l 1,52,-1
 128 320 l 1,53,-1
 192 320 l 1,48,-1
EndSplineSet
EndChar

StartChar: quotesingle
Encoding: 10 39 9
GlifName: quotesingle
Width: 192
GlyphClass: 1
Flags: W
LayerCount: 2
Fore
SplineSet
64 320 m 1,0,-1
 0 320 l 1,1,-1
 0 384 l 1,2,-1
 0 448 l 1,3,-1
 0 512 l 1,4,-1
 0 576 l 1,5,-1
 64 576 l 1,6,-1
 128 576 l 1,7,-1
 128 512 l 1,8,-1
 128 448 l 1,9,-1
 128 384 l 1,10,-1
 128 320 l 1,11,-1
 64 320 l 1,0,-1
EndSplineSet
EndChar

StartChar: parenleft
Encoding: 11 40 10
GlifName: parenleft
Width: 320
GlyphClass: 1
Flags: W
LayerCount: 2
Fore
SplineSet
192 -64 m 1,0,-1
 128 -64 l 1,1,-1
 64 -64 l 1,2,-1
 64 0 l 1,3,-1
 0 0 l 1,4,-1
 0 64 l 1,5,-1
 0 128 l 1,6,-1
 0 192 l 1,7,-1
 0 256 l 1,8,-1
 0 320 l 1,9,-1
 0 384 l 1,10,-1
 0 448 l 1,11,-1
 0 512 l 1,12,-1
 64 512 l 1,13,-1
 64 576 l 1,14,-1
 128 576 l 1,15,-1
 192 576 l 1,16,-1
 256 576 l 1,17,-1
 256 512 l 1,18,-1
 256 448 l 1,19,-1
 192 448 l 1,20,-1
 128 448 l 1,21,-1
 128 384 l 1,22,-1
 128 320 l 1,23,-1
 128 256 l 1,24,-1
 128 192 l 1,25,-1
 128 128 l 1,26,-1
 128 64 l 1,27,-1
 192 64 l 1,28,-1
 256 64 l 1,29,-1
 256 0 l 1,30,-1
 256 -64 l 1,31,-1
 192 -64 l 1,0,-1
EndSplineSet
EndChar

StartChar: parenright
Encoding: 12 41 11
GlifName: parenright
Width: 320
GlyphClass: 1
Flags: W
LayerCount: 2
Fore
SplineSet
128 -64 m 1,0,-1
 64 -64 l 1,1,-1
 0 -64 l 1,2,-1
 0 0 l 1,3,-1
 0 64 l 1,4,-1
 64 64 l 1,5,-1
 128 64 l 1,6,-1
 128 128 l 1,7,-1
 128 192 l 1,8,-1
 128 256 l 1,9,-1
 128 320 l 1,10,-1
 128 384 l 1,11,-1
 128 448 l 1,12,-1
 64 448 l 1,13,-1
 0 448 l 1,14,-1
 0 512 l 1,15,-1
 0 576 l 1,16,-1
 64 576 l 1,17,-1
 128 576 l 1,18,-1
 192 576 l 1,19,-1
 192 512 l 1,20,-1
 256 512 l 1,21,-1
 256 448 l 1,22,-1
 256 384 l 1,23,-1
 256 320 l 1,24,-1
 256 256 l 1,25,-1
 256 192 l 1,26,-1
 256 128 l 1,27,-1
 256 64 l 1,28,-1
 256 0 l 1,29,-1
 192 0 l 1,30,-1
 192 -64 l 1,31,-1
 128 -64 l 1,0,-1
EndSplineSet
EndChar

StartChar: asterisk
Encoding: 13 42 12
GlifName: asterisk
Width: 448
GlyphClass: 1
Flags: W
LayerCount: 2
Fore
SplineSet
256 256 m 1,0,-1
 256 320 l 1,1,-1
 192 320 l 1,2,-1
 192 256 l 1,3,-1
 128 256 l 1,4,-1
 128 320 l 1,5,-1
 128 384 l 1,6,-1
 64 384 l 1,7,-1
 64 448 l 1,8,-1
 64 512 l 1,9,-1
 128 512 l 1,10,-1
 192 512 l 1,11,-1
 192 576 l 1,12,-1
 256 576 l 1,13,-1
 256 512 l 1,14,-1
 320 512 l 1,15,-1
 384 512 l 1,16,-1
 384 448 l 1,17,-1
 384 384 l 1,18,-1
 320 384 l 1,19,-1
 320 320 l 1,20,-1
 320 256 l 1,21,-1
 256 256 l 1,0,-1
EndSplineSet
EndChar

StartChar: plus
Encoding: 14 43 13
GlifName: plus
Width: 448
GlyphClass: 1
Flags: W
LayerCount: 2
Fore
SplineSet
192 0 m 1,0,-1
 128 0 l 1,1,-1
 128 64 l 1,2,-1
 128 128 l 1,3,-1
 64 128 l 1,4,-1
 0 128 l 1,5,-1
 0 192 l 1,6,-1
 0 256 l 1,7,-1
 64 256 l 1,8,-1
 128 256 l 1,9,-1
 128 320 l 1,10,-1
 128 384 l 1,11,-1
 192 384 l 1,12,-1
 256 384 l 1,13,-1
 256 320 l 1,14,-1
 256 256 l 1,15,-1
 320 256 l 1,16,-1
 384 256 l 1,17,-1
 384 192 l 1,18,-1
 384 128 l 1,19,-1
 320 128 l 1,20,-1
 256 128 l 1,21,-1
 256 64 l 1,22,-1
 256 0 l 1,23,-1
 192 0 l 1,0,-1
EndSplineSet
EndChar

StartChar: comma
Encoding: 15 44 14
GlifName: comma
Width: 192
GlyphClass: 1
Flags: W
LayerCount: 2
Fore
SplineSet
64 -128 m 1,0,-1
 0 -128 l 1,1,-1
 0 -64 l 1,2,-1
 0 0 l 1,3,-1
 0 64 l 1,4,-1
 0 128 l 1,5,-1
 64 128 l 1,6,-1
 128 128 l 1,7,-1
 128 64 l 1,8,-1
 128 0 l 1,9,-1
 128 -64 l 1,10,-1
 128 -128 l 1,11,-1
 64 -128 l 1,0,-1
EndSplineSet
EndChar

StartChar: hyphen
Encoding: 16 45 15
GlifName: hyphen
Width: 448
GlyphClass: 1
Flags: W
LayerCount: 2
Fore
SplineSet
320 128 m 1,0,-1
 256 128 l 1,1,-1
 192 128 l 1,2,-1
 128 128 l 1,3,-1
 64 128 l 1,4,-1
 0 128 l 1,5,-1
 0 192 l 1,6,-1
 0 256 l 1,7,-1
 64 256 l 1,8,-1
 128 256 l 1,9,-1
 192 256 l 1,10,-1
 256 256 l 1,11,-1
 320 256 l 1,12,-1
 384 256 l 1,13,-1
 384 192 l 1,14,-1
 384 128 l 1,15,-1
 320 128 l 1,0,-1
EndSplineSet
EndChar

StartChar: period
Encoding: 17 46 16
GlifName: period
Width: 192
GlyphClass: 1
Flags: W
LayerCount: 2
Fore
SplineSet
64 0 m 1,0,-1
 0 0 l 1,1,-1
 0 64 l 1,2,-1
 0 128 l 1,3,-1
 64 128 l 1,4,-1
 128 128 l 1,5,-1
 128 64 l 1,6,-1
 128 0 l 1,7,-1
 64 0 l 1,0,-1
EndSplineSet
EndChar

StartChar: slash
Encoding: 18 47 17
GlifName: slash
Width: 448
GlyphClass: 1
Flags: W
LayerCount: 2
Fore
SplineSet
64 0 m 1,0,-1
 0 0 l 1,1,-1
 0 64 l 1,2,-1
 0 128 l 1,3,-1
 0 192 l 1,4,-1
 64 192 l 1,5,-1
 64 256 l 1,6,-1
 128 256 l 1,7,-1
 128 320 l 1,8,-1
 192 320 l 1,9,-1
 192 384 l 1,10,-1
 256 384 l 1,11,-1
 256 448 l 1,12,-1
 256 512 l 1,13,-1
 320 512 l 1,14,-1
 384 512 l 1,15,-1
 384 448 l 1,16,-1
 384 384 l 1,17,-1
 384 320 l 1,18,-1
 320 320 l 1,19,-1
 320 256 l 1,20,-1
 256 256 l 1,21,-1
 256 192 l 1,22,-1
 192 192 l 1,23,-1
 192 128 l 1,24,-1
 128 128 l 1,25,-1
 128 64 l 1,26,-1
 128 0 l 1,27,-1
 64 0 l 1,0,-1
EndSplineSet
EndChar

StartChar: zero
Encoding: 19 48 18
GlifName: zero
Width: 576
GlyphClass: 1
Flags: W
LayerCount: 2
Fore
SplineSet
384 0 m 1,0,-1
 320 0 l 1,1,-1
 256 0 l 1,2,-1
 192 0 l 1,3,-1
 128 0 l 1,4,-1
 64 0 l 1,5,-1
 64 64 l 1,6,-1
 0 64 l 1,7,-1
 0 128 l 1,8,-1
 0 192 l 1,9,-1
 0 256 l 1,10,-1
 0 320 l 1,11,-1
 0 384 l 1,12,-1
 0 448 l 1,13,-1
 64 448 l 1,14,-1
 64 512 l 1,15,-1
 128 512 l 1,16,-1
 192 512 l 1,17,-1
 256 512 l 1,18,-1
 320 512 l 1,19,-1
 384 512 l 1,20,-1
 448 512 l 1,21,-1
 448 448 l 1,22,-1
 512 448 l 1,23,-1
 512 384 l 1,24,-1
 512 320 l 1,25,-1
 512 256 l 1,26,-1
 512 192 l 1,27,-1
 512 128 l 1,28,-1
 512 64 l 1,29,-1
 448 64 l 1,30,-1
 448 0 l 1,31,-1
 384 0 l 1,0,-1
320 128 m 1,32,-1
 384 128 l 1,33,-1
 384 192 l 1,34,-1
 384 256 l 1,35,-1
 384 320 l 1,36,-1
 384 384 l 1,37,-1
 320 384 l 1,38,-1
 256 384 l 1,39,-1
 192 384 l 1,40,-1
 128 384 l 1,41,-1
 128 320 l 1,42,-1
 128 256 l 1,43,-1
 128 192 l 1,44,-1
 128 128 l 1,45,-1
 192 128 l 1,46,-1
 256 128 l 1,47,-1
 320 128 l 1,32,-1
EndSplineSet
EndChar

StartChar: one
Encoding: 20 49 19
GlifName: one
Width: 576
GlyphClass: 1
Flags: W
LayerCount: 2
Fore
SplineSet
448 0 m 1,0,-1
 384 0 l 1,1,-1
 320 0 l 1,2,-1
 256 0 l 1,3,-1
 192 0 l 1,4,-1
 128 0 l 1,5,-1
 64 0 l 1,6,-1
 0 0 l 1,7,-1
 0 64 l 1,8,-1
 0 128 l 1,9,-1
 64 128 l 1,10,-1
 128 128 l 1,11,-1
 192 128 l 1,12,-1
 192 192 l 1,13,-1
 192 256 l 1,14,-1
 192 320 l 1,15,-1
 128 320 l 1,16,-1
 64 320 l 1,17,-1
 64 384 l 1,18,-1
 64 448 l 1,19,-1
 128 448 l 1,20,-1
 192 448 l 1,21,-1
 192 512 l 1,22,-1
 256 512 l 1,23,-1
 320 512 l 1,24,-1
 320 448 l 1,25,-1
 320 384 l 1,26,-1
 320 320 l 1,27,-1
 320 256 l 1,28,-1
 320 192 l 1,29,-1
 320 128 l 1,30,-1
 384 128 l 1,31,-1
 448 128 l 1,32,-1
 512 128 l 1,33,-1
 512 64 l 1,34,-1
 512 0 l 1,35,-1
 448 0 l 1,0,-1
EndSplineSet
EndChar

StartChar: two
Encoding: 21 50 20
GlifName: two
Width: 576
GlyphClass: 1
Flags: W
LayerCount: 2
Fore
SplineSet
448 0 m 1,0,-1
 384 0 l 1,1,-1
 320 0 l 1,2,-1
 256 0 l 1,3,-1
 192 0 l 1,4,-1
 128 0 l 1,5,-1
 64 0 l 1,6,-1
 0 0 l 1,7,-1
 0 64 l 1,8,-1
 0 128 l 1,9,-1
 0 192 l 1,10,-1
 0 256 l 1,11,-1
 64 256 l 1,12,-1
 64 320 l 1,13,-1
 128 320 l 1,14,-1
 192 320 l 1,15,-1
 256 320 l 1,16,-1
 320 320 l 1,17,-1
 384 320 l 1,18,-1
 384 384 l 1,19,-1
 320 384 l 1,20,-1
 256 384 l 1,21,-1
 192 384 l 1,22,-1
 128 384 l 1,23,-1
 64 384 l 1,24,-1
 0 384 l 1,25,-1
 0 448 l 1,26,-1
 0 512 l 1,27,-1
 64 512 l 1,28,-1
 128 512 l 1,29,-1
 192 512 l 1,30,-1
 256 512 l 1,31,-1
 320 512 l 1,32,-1
 384 512 l 1,33,-1
 448 512 l 1,34,-1
 448 448 l 1,35,-1
 512 448 l 1,36,-1
 512 384 l 1,37,-1
 512 320 l 1,38,-1
 512 256 l 1,39,-1
 448 256 l 1,40,-1
 448 192 l 1,41,-1
 384 192 l 1,42,-1
 320 192 l 1,43,-1
 256 192 l 1,44,-1
 192 192 l 1,45,-1
 128 192 l 1,46,-1
 128 128 l 1,47,-1
 192 128 l 1,48,-1
 256 128 l 1,49,-1
 320 128 l 1,50,-1
 384 128 l 1,51,-1
 448 128 l 1,52,-1
 512 128 l 1,53,-1
 512 64 l 1,54,-1
 512 0 l 1,55,-1
 448 0 l 1,0,-1
EndSplineSet
EndChar

StartChar: three
Encoding: 22 51 21
GlifName: three
Width: 576
GlyphClass: 1
Flags: W
LayerCount: 2
Fore
SplineSet
384 0 m 1,0,-1
 320 0 l 1,1,-1
 256 0 l 1,2,-1
 192 0 l 1,3,-1
 128 0 l 1,4,-1
 64 0 l 1,5,-1
 0 0 l 1,6,-1
 0 64 l 1,7,-1
 0 128 l 1,8,-1
 64 128 l 1,9,-1
 128 128 l 1,10,-1
 192 128 l 1,11,-1
 256 128 l 1,12,-1
 320 128 l 1,13,-1
 384 128 l 1,14,-1
 384 192 l 1,15,-1
 320 192 l 1,16,-1
 256 192 l 1,17,-1
 192 192 l 1,18,-1
 128 192 l 1,19,-1
 64 192 l 1,20,-1
 64 256 l 1,21,-1
 64 320 l 1,22,-1
 128 320 l 1,23,-1
 192 320 l 1,24,-1
 256 320 l 1,25,-1
 320 320 l 1,26,-1
 384 320 l 1,27,-1
 384 384 l 1,28,-1
 320 384 l 1,29,-1
 256 384 l 1,30,-1
 192 384 l 1,31,-1
 128 384 l 1,32,-1
 64 384 l 1,33,-1
 0 384 l 1,34,-1
 0 448 l 1,35,-1
 0 512 l 1,36,-1
 64 512 l 1,37,-1
 128 512 l 1,38,-1
 192 512 l 1,39,-1
 256 512 l 1,40,-1
 320 512 l 1,41,-1
 384 512 l 1,42,-1
 448 512 l 1,43,-1
 448 448 l 1,44,-1
 512 448 l 1,45,-1
 512 384 l 1,46,-1
 512 320 l 1,47,-1
 512 256 l 1,48,-1
 512 192 l 1,49,-1
 512 128 l 1,50,-1
 512 64 l 1,51,-1
 448 64 l 1,52,-1
 448 0 l 1,53,-1
 384 0 l 1,0,-1
EndSplineSet
EndChar

StartChar: four
Encoding: 23 52 22
GlifName: four
Width: 576
GlyphClass: 1
Flags: W
LayerCount: 2
Fore
SplineSet
320 0 m 1,0,-1
 256 0 l 1,1,-1
 256 64 l 1,2,-1
 256 128 l 1,3,-1
 192 128 l 1,4,-1
 128 128 l 1,5,-1
 64 128 l 1,6,-1
 0 128 l 1,7,-1
 0 192 l 1,8,-1
 0 256 l 1,9,-1
 0 320 l 1,10,-1
 0 384 l 1,11,-1
 0 448 l 1,12,-1
 0 512 l 1,13,-1
 64 512 l 1,14,-1
 128 512 l 1,15,-1
 128 448 l 1,16,-1
 128 384 l 1,17,-1
 128 320 l 1,18,-1
 128 256 l 1,19,-1
 192 256 l 1,20,-1
 256 256 l 1,21,-1
 256 320 l 1,22,-1
 256 384 l 1,23,-1
 320 384 l 1,24,-1
 384 384 l 1,25,-1
 384 320 l 1,26,-1
 384 256 l 1,27,-1
 448 256 l 1,28,-1
 512 256 l 1,29,-1
 512 192 l 1,30,-1
 512 128 l 1,31,-1
 448 128 l 1,32,-1
 384 128 l 1,33,-1
 384 64 l 1,34,-1
 384 0 l 1,35,-1
 320 0 l 1,0,-1
EndSplineSet
EndChar

StartChar: five
Encoding: 24 53 23
GlifName: five
Width: 576
GlyphClass: 1
Flags: W
LayerCount: 2
Fore
SplineSet
384 0 m 1,0,-1
 320 0 l 1,1,-1
 256 0 l 1,2,-1
 192 0 l 1,3,-1
 128 0 l 1,4,-1
 64 0 l 1,5,-1
 0 0 l 1,6,-1
 0 64 l 1,7,-1
 0 128 l 1,8,-1
 64 128 l 1,9,-1
 128 128 l 1,10,-1
 192 128 l 1,11,-1
 256 128 l 1,12,-1
 320 128 l 1,13,-1
 384 128 l 1,14,-1
 384 192 l 1,15,-1
 320 192 l 1,16,-1
 256 192 l 1,17,-1
 192 192 l 1,18,-1
 128 192 l 1,19,-1
 64 192 l 1,20,-1
 0 192 l 1,21,-1
 0 256 l 1,22,-1
 0 320 l 1,23,-1
 0 384 l 1,24,-1
 0 448 l 1,25,-1
 0 512 l 1,26,-1
 64 512 l 1,27,-1
 128 512 l 1,28,-1
 192 512 l 1,29,-1
 256 512 l 1,30,-1
 320 512 l 1,31,-1
 384 512 l 1,32,-1
 448 512 l 1,33,-1
 512 512 l 1,34,-1
 512 448 l 1,35,-1
 512 384 l 1,36,-1
 448 384 l 1,37,-1
 384 384 l 1,38,-1
 320 384 l 1,39,-1
 256 384 l 1,40,-1
 192 384 l 1,41,-1
 128 384 l 1,42,-1
 128 320 l 1,43,-1
 192 320 l 1,44,-1
 256 320 l 1,45,-1
 320 320 l 1,46,-1
 384 320 l 1,47,-1
 448 320 l 1,48,-1
 448 256 l 1,49,-1
 512 256 l 1,50,-1
 512 192 l 1,51,-1
 512 128 l 1,52,-1
 512 64 l 1,53,-1
 448 64 l 1,54,-1
 448 0 l 1,55,-1
 384 0 l 1,0,-1
EndSplineSet
EndChar

StartChar: six
Encoding: 25 54 24
GlifName: six
Width: 576
GlyphClass: 1
Flags: W
LayerCount: 2
Fore
SplineSet
384 0 m 1,0,-1
 320 0 l 1,1,-1
 256 0 l 1,2,-1
 192 0 l 1,3,-1
 128 0 l 1,4,-1
 64 0 l 1,5,-1
 64 64 l 1,6,-1
 0 64 l 1,7,-1
 0 128 l 1,8,-1
 0 192 l 1,9,-1
 0 256 l 1,10,-1
 0 320 l 1,11,-1
 0 384 l 1,12,-1
 0 448 l 1,13,-1
 64 448 l 1,14,-1
 64 512 l 1,15,-1
 128 512 l 1,16,-1
 192 512 l 1,17,-1
 256 512 l 1,18,-1
 320 512 l 1,19,-1
 384 512 l 1,20,-1
 448 512 l 1,21,-1
 448 448 l 1,22,-1
 448 384 l 1,23,-1
 384 384 l 1,24,-1
 320 384 l 1,25,-1
 256 384 l 1,26,-1
 192 384 l 1,27,-1
 128 384 l 1,28,-1
 128 320 l 1,29,-1
 192 320 l 1,30,-1
 256 320 l 1,31,-1
 320 320 l 1,32,-1
 384 320 l 1,33,-1
 448 320 l 1,34,-1
 448 256 l 1,35,-1
 512 256 l 1,36,-1
 512 192 l 1,37,-1
 512 128 l 1,38,-1
 512 64 l 1,39,-1
 448 64 l 1,40,-1
 448 0 l 1,41,-1
 384 0 l 1,0,-1
320 128 m 1,42,-1
 384 128 l 1,43,-1
 384 192 l 1,44,-1
 320 192 l 1,45,-1
 256 192 l 1,46,-1
 192 192 l 1,47,-1
 128 192 l 1,48,-1
 128 128 l 1,49,-1
 192 128 l 1,50,-1
 256 128 l 1,51,-1
 320 128 l 1,42,-1
EndSplineSet
EndChar

StartChar: seven
Encoding: 26 55 25
GlifName: seven
Width: 576
GlyphClass: 1
Flags: W
LayerCount: 2
Fore
SplineSet
192 0 m 1,0,-1
 128 0 l 1,1,-1
 128 64 l 1,2,-1
 128 128 l 1,3,-1
 128 192 l 1,4,-1
 192 192 l 1,5,-1
 192 256 l 1,6,-1
 256 256 l 1,7,-1
 256 320 l 1,8,-1
 320 320 l 1,9,-1
 320 384 l 1,10,-1
 256 384 l 1,11,-1
 192 384 l 1,12,-1
 128 384 l 1,13,-1
 64 384 l 1,14,-1
 0 384 l 1,15,-1
 0 448 l 1,16,-1
 0 512 l 1,17,-1
 64 512 l 1,18,-1
 128 512 l 1,19,-1
 192 512 l 1,20,-1
 256 512 l 1,21,-1
 320 512 l 1,22,-1
 384 512 l 1,23,-1
 448 512 l 1,24,-1
 512 512 l 1,25,-1
 512 448 l 1,26,-1
 512 384 l 1,27,-1
 512 320 l 1,28,-1
 448 320 l 1,29,-1
 448 256 l 1,30,-1
 384 256 l 1,31,-1
 384 192 l 1,32,-1
 320 192 l 1,33,-1
 320 128 l 1,34,-1
 256 128 l 1,35,-1
 256 64 l 1,36,-1
 256 0 l 1,37,-1
 192 0 l 1,0,-1
EndSplineSet
EndChar

StartChar: eight
Encoding: 27 56 26
GlifName: eight
Width: 576
GlyphClass: 1
Flags: W
LayerCount: 2
Fore
SplineSet
384 0 m 1,0,-1
 320 0 l 1,1,-1
 256 0 l 1,2,-1
 192 0 l 1,3,-1
 128 0 l 1,4,-1
 64 0 l 1,5,-1
 64 64 l 1,6,-1
 0 64 l 1,7,-1
 0 128 l 1,8,-1
 0 192 l 1,9,-1
 0 256 l 1,10,-1
 0 320 l 1,11,-1
 0 384 l 1,12,-1
 0 448 l 1,13,-1
 64 448 l 1,14,-1
 64 512 l 1,15,-1
 128 512 l 1,16,-1
 192 512 l 1,17,-1
 256 512 l 1,18,-1
 320 512 l 1,19,-1
 384 512 l 1,20,-1
 448 512 l 1,21,-1
 448 448 l 1,22,-1
 512 448 l 1,23,-1
 512 384 l 1,24,-1
 512 320 l 1,25,-1
 512 256 l 1,26,-1
 512 192 l 1,27,-1
 512 128 l 1,28,-1
 512 64 l 1,29,-1
 448 64 l 1,30,-1
 448 0 l 1,31,-1
 384 0 l 1,0,-1
320 128 m 1,32,-1
 384 128 l 1,33,-1
 384 192 l 1,34,-1
 320 192 l 1,35,-1
 256 192 l 1,36,-1
 192 192 l 1,37,-1
 128 192 l 1,38,-1
 128 128 l 1,39,-1
 192 128 l 1,40,-1
 256 128 l 1,41,-1
 320 128 l 1,32,-1
320 320 m 1,42,-1
 384 320 l 1,43,-1
 384 384 l 1,44,-1
 320 384 l 1,45,-1
 256 384 l 1,46,-1
 192 384 l 1,47,-1
 128 384 l 1,48,-1
 128 320 l 1,49,-1
 192 320 l 1,50,-1
 256 320 l 1,51,-1
 320 320 l 1,42,-1
EndSplineSet
EndChar

StartChar: nine
Encoding: 28 57 27
GlifName: nine
Width: 576
GlyphClass: 1
Flags: W
LayerCount: 2
Fore
SplineSet
384 0 m 1,0,-1
 320 0 l 1,1,-1
 256 0 l 1,2,-1
 192 0 l 1,3,-1
 128 0 l 1,4,-1
 64 0 l 1,5,-1
 64 64 l 1,6,-1
 64 128 l 1,7,-1
 128 128 l 1,8,-1
 192 128 l 1,9,-1
 256 128 l 1,10,-1
 320 128 l 1,11,-1
 384 128 l 1,12,-1
 384 192 l 1,13,-1
 320 192 l 1,14,-1
 256 192 l 1,15,-1
 192 192 l 1,16,-1
 128 192 l 1,17,-1
 64 192 l 1,18,-1
 64 256 l 1,19,-1
 0 256 l 1,20,-1
 0 320 l 1,21,-1
 0 384 l 1,22,-1
 0 448 l 1,23,-1
 64 448 l 1,24,-1
 64 512 l 1,25,-1
 128 512 l 1,26,-1
 192 512 l 1,27,-1
 256 512 l 1,28,-1
 320 512 l 1,29,-1
 384 512 l 1,30,-1
 448 512 l 1,31,-1
 448 448 l 1,32,-1
 512 448 l 1,33,-1
 512 384 l 1,34,-1
 512 320 l 1,35,-1
 512 256 l 1,36,-1
 512 192 l 1,37,-1
 512 128 l 1,38,-1
 512 64 l 1,39,-1
 448 64 l 1,40,-1
 448 0 l 1,41,-1
 384 0 l 1,0,-1
320 320 m 1,42,-1
 384 320 l 1,43,-1
 384 384 l 1,44,-1
 320 384 l 1,45,-1
 256 384 l 1,46,-1
 192 384 l 1,47,-1
 128 384 l 1,48,-1
 128 320 l 1,49,-1
 192 320 l 1,50,-1
 256 320 l 1,51,-1
 320 320 l 1,42,-1
EndSplineSet
EndChar

StartChar: colon
Encoding: 29 58 28
GlifName: colon
Width: 192
GlyphClass: 1
Flags: W
LayerCount: 2
Fore
SplineSet
64 0 m 1,0,-1
 0 0 l 1,1,-1
 0 64 l 1,2,-1
 0 128 l 1,3,-1
 64 128 l 1,4,-1
 128 128 l 1,5,-1
 128 64 l 1,6,-1
 128 0 l 1,7,-1
 64 0 l 1,0,-1
64 256 m 1,8,-1
 0 256 l 1,9,-1
 0 320 l 1,10,-1
 0 384 l 1,11,-1
 64 384 l 1,12,-1
 128 384 l 1,13,-1
 128 320 l 1,14,-1
 128 256 l 1,15,-1
 64 256 l 1,8,-1
EndSplineSet
EndChar

StartChar: semicolon
Encoding: 30 59 29
GlifName: semicolon
Width: 192
GlyphClass: 1
Flags: W
LayerCount: 2
Fore
SplineSet
64 -128 m 1,0,-1
 0 -128 l 1,1,-1
 0 -64 l 1,2,-1
 0 0 l 1,3,-1
 0 64 l 1,4,-1
 0 128 l 1,5,-1
 64 128 l 1,6,-1
 128 128 l 1,7,-1
 128 64 l 1,8,-1
 128 0 l 1,9,-1
 128 -64 l 1,10,-1
 128 -128 l 1,11,-1
 64 -128 l 1,0,-1
64 256 m 1,12,-1
 0 256 l 1,13,-1
 0 320 l 1,14,-1
 0 384 l 1,15,-1
 64 384 l 1,16,-1
 128 384 l 1,17,-1
 128 320 l 1,18,-1
 128 256 l 1,19,-1
 64 256 l 1,12,-1
EndSplineSet
EndChar

StartChar: less
Encoding: 31 60 30
GlifName: less
Width: 448
GlyphClass: 1
Flags: W
LayerCount: 2
Fore
SplineSet
320 0 m 1,0,-1
 256 0 l 1,1,-1
 192 0 l 1,2,-1
 192 64 l 1,3,-1
 128 64 l 1,4,-1
 128 128 l 1,5,-1
 64 128 l 1,6,-1
 64 192 l 1,7,-1
 0 192 l 1,8,-1
 0 256 l 1,9,-1
 0 320 l 1,10,-1
 64 320 l 1,11,-1
 64 384 l 1,12,-1
 128 384 l 1,13,-1
 128 448 l 1,14,-1
 192 448 l 1,15,-1
 192 512 l 1,16,-1
 256 512 l 1,17,-1
 320 512 l 1,18,-1
 384 512 l 1,19,-1
 384 448 l 1,20,-1
 384 384 l 1,21,-1
 320 384 l 1,22,-1
 256 384 l 1,23,-1
 256 320 l 1,24,-1
 192 320 l 1,25,-1
 192 256 l 1,26,-1
 192 192 l 1,27,-1
 256 192 l 1,28,-1
 256 128 l 1,29,-1
 320 128 l 1,30,-1
 384 128 l 1,31,-1
 384 64 l 1,32,-1
 384 0 l 1,33,-1
 320 0 l 1,0,-1
EndSplineSet
EndChar

StartChar: equal
Encoding: 32 61 31
GlifName: equal
Width: 448
GlyphClass: 1
Flags: W
LayerCount: 2
Fore
SplineSet
320 0 m 1,0,-1
 256 0 l 1,1,-1
 192 0 l 1,2,-1
 128 0 l 1,3,-1
 64 0 l 1,4,-1
 0 0 l 1,5,-1
 0 64 l 1,6,-1
 0 128 l 1,7,-1
 64 128 l 1,8,-1
 128 128 l 1,9,-1
 192 128 l 1,10,-1
 256 128 l 1,11,-1
 320 128 l 1,12,-1
 384 128 l 1,13,-1
 384 64 l 1,14,-1
 384 0 l 1,15,-1
 320 0 l 1,0,-1
320 192 m 1,16,-1
 256 192 l 1,17,-1
 192 192 l 1,18,-1
 128 192 l 1,19,-1
 64 192 l 1,20,-1
 0 192 l 1,21,-1
 0 256 l 1,22,-1
 0 320 l 1,23,-1
 64 320 l 1,24,-1
 128 320 l 1,25,-1
 192 320 l 1,26,-1
 256 320 l 1,27,-1
 320 320 l 1,28,-1
 384 320 l 1,29,-1
 384 256 l 1,30,-1
 384 192 l 1,31,-1
 320 192 l 1,16,-1
EndSplineSet
EndChar

StartChar: greater
Encoding: 33 62 32
GlifName: greater
Width: 448
GlyphClass: 1
Flags: W
LayerCount: 2
Fore
SplineSet
128 0 m 1,0,-1
 64 0 l 1,1,-1
 0 0 l 1,2,-1
 0 64 l 1,3,-1
 0 128 l 1,4,-1
 64 128 l 1,5,-1
 128 128 l 1,6,-1
 128 192 l 1,7,-1
 192 192 l 1,8,-1
 192 256 l 1,9,-1
 192 320 l 1,10,-1
 128 320 l 1,11,-1
 128 384 l 1,12,-1
 64 384 l 1,13,-1
 0 384 l 1,14,-1
 0 448 l 1,15,-1
 0 512 l 1,16,-1
 64 512 l 1,17,-1
 128 512 l 1,18,-1
 192 512 l 1,19,-1
 192 448 l 1,20,-1
 256 448 l 1,21,-1
 256 384 l 1,22,-1
 320 384 l 1,23,-1
 320 320 l 1,24,-1
 384 320 l 1,25,-1
 384 256 l 1,26,-1
 384 192 l 1,27,-1
 320 192 l 1,28,-1
 320 128 l 1,29,-1
 256 128 l 1,30,-1
 256 64 l 1,31,-1
 192 64 l 1,32,-1
 192 0 l 1,33,-1
 128 0 l 1,0,-1
EndSplineSet
EndChar

StartChar: question
Encoding: 34 63 33
GlifName: question
Width: 448
GlyphClass: 1
Flags: W
LayerCount: 2
Fore
SplineSet
192 0 m 1,0,-1
 128 0 l 1,1,-1
 128 64 l 1,2,-1
 128 128 l 1,3,-1
 192 128 l 1,4,-1
 256 128 l 1,5,-1
 256 64 l 1,6,-1
 256 0 l 1,7,-1
 192 0 l 1,0,-1
192 192 m 1,8,-1
 128 192 l 1,9,-1
 128 256 l 1,10,-1
 128 320 l 1,11,-1
 192 320 l 1,12,-1
 192 384 l 1,13,-1
 256 384 l 1,14,-1
 256 448 l 1,15,-1
 192 448 l 1,16,-1
 128 448 l 1,17,-1
 128 384 l 1,18,-1
 64 384 l 1,19,-1
 0 384 l 1,20,-1
 0 448 l 1,21,-1
 0 512 l 1,22,-1
 64 512 l 1,23,-1
 64 576 l 1,24,-1
 128 576 l 1,25,-1
 192 576 l 1,26,-1
 256 576 l 1,27,-1
 320 576 l 1,28,-1
 320 512 l 1,29,-1
 384 512 l 1,30,-1
 384 448 l 1,31,-1
 384 384 l 1,32,-1
 384 320 l 1,33,-1
 320 320 l 1,34,-1
 320 256 l 1,35,-1
 256 256 l 1,36,-1
 256 192 l 1,37,-1
 192 192 l 1,8,-1
EndSplineSet
EndChar

StartChar: at
Encoding: 35 64 34
GlifName: at
Width: 576
GlyphClass: 1
Flags: W
LayerCount: 2
Fore
SplineSet
448 -64 m 1,0,-1
 384 -64 l 1,1,-1
 320 -64 l 1,2,-1
 256 -64 l 1,3,-1
 192 -64 l 1,4,-1
 128 -64 l 1,5,-1
 64 -64 l 1,6,-1
 64 0 l 1,7,-1
 0 0 l 1,8,-1
 0 64 l 1,9,-1
 0 128 l 1,10,-1
 0 192 l 1,11,-1
 0 256 l 1,12,-1
 0 320 l 1,13,-1
 0 384 l 1,14,-1
 0 448 l 1,15,-1
 0 512 l 1,16,-1
 64 512 l 1,17,-1
 64 576 l 1,18,-1
 128 576 l 1,19,-1
 192 576 l 1,20,-1
 256 576 l 1,21,-1
 320 576 l 1,22,-1
 384 576 l 1,23,-1
 448 576 l 1,24,-1
 448 512 l 1,25,-1
 512 512 l 1,26,-1
 512 448 l 1,27,-1
 512 384 l 1,28,-1
 512 320 l 1,29,-1
 512 256 l 1,30,-1
 512 192 l 1,31,-1
 512 128 l 1,32,-1
 448 128 l 1,33,-1
 384 128 l 1,34,-1
 320 128 l 1,35,-1
 256 128 l 1,36,-1
 256 192 l 1,37,-1
 192 192 l 1,38,-1
 192 256 l 1,39,-1
 192 320 l 1,40,-1
 192 384 l 1,41,-1
 256 384 l 1,42,-1
 320 384 l 1,43,-1
 384 384 l 1,44,-1
 384 448 l 1,45,-1
 320 448 l 1,46,-1
 256 448 l 1,47,-1
 192 448 l 1,48,-1
 128 448 l 1,49,-1
 128 384 l 1,50,-1
 128 320 l 1,51,-1
 128 256 l 1,52,-1
 128 192 l 1,53,-1
 128 128 l 1,54,-1
 128 64 l 1,55,-1
 192 64 l 1,56,-1
 256 64 l 1,57,-1
 320 64 l 1,58,-1
 384 64 l 1,59,-1
 448 64 l 1,60,-1
 512 64 l 1,61,-1
 512 0 l 1,62,-1
 512 -64 l 1,63,-1
 448 -64 l 1,0,-1
384 256 m 1,64,-1
 384 320 l 1,65,-1
 320 320 l 1,66,-1
 320 256 l 1,67,-1
 384 256 l 1,64,-1
EndSplineSet
EndChar

StartChar: A
Encoding: 36 65 35
GlifName: A_
Width: 576
GlyphClass: 1
Flags: W
LayerCount: 2
Fore
SplineSet
448 0 m 1,0,-1
 384 0 l 1,1,-1
 384 64 l 1,2,-1
 384 128 l 1,3,-1
 320 128 l 1,4,-1
 256 128 l 1,5,-1
 192 128 l 1,6,-1
 128 128 l 1,7,-1
 128 64 l 1,8,-1
 128 0 l 1,9,-1
 64 0 l 1,10,-1
 0 0 l 1,11,-1
 0 64 l 1,12,-1
 0 128 l 1,13,-1
 0 192 l 1,14,-1
 0 256 l 1,15,-1
 0 320 l 1,16,-1
 0 384 l 1,17,-1
 0 448 l 1,18,-1
 64 448 l 1,19,-1
 64 512 l 1,20,-1
 128 512 l 1,21,-1
 192 512 l 1,22,-1
 256 512 l 1,23,-1
 320 512 l 1,24,-1
 384 512 l 1,25,-1
 448 512 l 1,26,-1
 448 448 l 1,27,-1
 512 448 l 1,28,-1
 512 384 l 1,29,-1
 512 320 l 1,30,-1
 512 256 l 1,31,-1
 512 192 l 1,32,-1
 512 128 l 1,33,-1
 512 64 l 1,34,-1
 512 0 l 1,35,-1
 448 0 l 1,0,-1
320 256 m 1,36,-1
 384 256 l 1,37,-1
 384 320 l 1,38,-1
 384 384 l 1,39,-1
 320 384 l 1,40,-1
 256 384 l 1,41,-1
 192 384 l 1,42,-1
 128 384 l 1,43,-1
 128 320 l 1,44,-1
 128 256 l 1,45,-1
 192 256 l 1,46,-1
 256 256 l 1,47,-1
 320 256 l 1,36,-1
EndSplineSet
EndChar

StartChar: B
Encoding: 37 66 36
GlifName: B_
Width: 576
GlyphClass: 1
Flags: W
LayerCount: 2
Fore
SplineSet
384 0 m 1,0,-1
 320 0 l 1,1,-1
 256 0 l 1,2,-1
 192 0 l 1,3,-1
 128 0 l 1,4,-1
 64 0 l 1,5,-1
 0 0 l 1,6,-1
 0 64 l 1,7,-1
 0 128 l 1,8,-1
 0 192 l 1,9,-1
 0 256 l 1,10,-1
 0 320 l 1,11,-1
 0 384 l 1,12,-1
 0 448 l 1,13,-1
 0 512 l 1,14,-1
 64 512 l 1,15,-1
 128 512 l 1,16,-1
 192 512 l 1,17,-1
 256 512 l 1,18,-1
 320 512 l 1,19,-1
 384 512 l 1,20,-1
 448 512 l 1,21,-1
 448 448 l 1,22,-1
 512 448 l 1,23,-1
 512 384 l 1,24,-1
 512 320 l 1,25,-1
 512 256 l 1,26,-1
 512 192 l 1,27,-1
 512 128 l 1,28,-1
 512 64 l 1,29,-1
 448 64 l 1,30,-1
 448 0 l 1,31,-1
 384 0 l 1,0,-1
320 128 m 1,32,-1
 384 128 l 1,33,-1
 384 192 l 1,34,-1
 320 192 l 1,35,-1
 256 192 l 1,36,-1
 192 192 l 1,37,-1
 128 192 l 1,38,-1
 128 128 l 1,39,-1
 192 128 l 1,40,-1
 256 128 l 1,41,-1
 320 128 l 1,32,-1
320 320 m 1,42,-1
 384 320 l 1,43,-1
 384 384 l 1,44,-1
 320 384 l 1,45,-1
 256 384 l 1,46,-1
 192 384 l 1,47,-1
 128 384 l 1,48,-1
 128 320 l 1,49,-1
 192 320 l 1,50,-1
 256 320 l 1,51,-1
 320 320 l 1,42,-1
EndSplineSet
EndChar

StartChar: C
Encoding: 38 67 37
GlifName: C_
Width: 576
GlyphClass: 1
Flags: W
LayerCount: 2
Fore
SplineSet
384 0 m 1,0,-1
 320 0 l 1,1,-1
 256 0 l 1,2,-1
 192 0 l 1,3,-1
 128 0 l 1,4,-1
 64 0 l 1,5,-1
 64 64 l 1,6,-1
 0 64 l 1,7,-1
 0 128 l 1,8,-1
 0 192 l 1,9,-1
 0 256 l 1,10,-1
 0 320 l 1,11,-1
 0 384 l 1,12,-1
 0 448 l 1,13,-1
 64 448 l 1,14,-1
 64 512 l 1,15,-1
 128 512 l 1,16,-1
 192 512 l 1,17,-1
 256 512 l 1,18,-1
 320 512 l 1,19,-1
 384 512 l 1,20,-1
 448 512 l 1,21,-1
 448 448 l 1,22,-1
 512 448 l 1,23,-1
 512 384 l 1,24,-1
 512 320 l 1,25,-1
 448 320 l 1,26,-1
 384 320 l 1,27,-1
 384 384 l 1,28,-1
 320 384 l 1,29,-1
 256 384 l 1,30,-1
 192 384 l 1,31,-1
 128 384 l 1,32,-1
 128 320 l 1,33,-1
 128 256 l 1,34,-1
 128 192 l 1,35,-1
 128 128 l 1,36,-1
 192 128 l 1,37,-1
 256 128 l 1,38,-1
 320 128 l 1,39,-1
 384 128 l 1,40,-1
 384 192 l 1,41,-1
 448 192 l 1,42,-1
 512 192 l 1,43,-1
 512 128 l 1,44,-1
 512 64 l 1,45,-1
 448 64 l 1,46,-1
 448 0 l 1,47,-1
 384 0 l 1,0,-1
EndSplineSet
EndChar

StartChar: D
Encoding: 39 68 38
GlifName: D_
Width: 576
GlyphClass: 1
Flags: W
LayerCount: 2
Fore
SplineSet
384 0 m 1,0,-1
 320 0 l 1,1,-1
 256 0 l 1,2,-1
 192 0 l 1,3,-1
 128 0 l 1,4,-1
 64 0 l 1,5,-1
 0 0 l 1,6,-1
 0 64 l 1,7,-1
 0 128 l 1,8,-1
 0 192 l 1,9,-1
 0 256 l 1,10,-1
 0 320 l 1,11,-1
 0 384 l 1,12,-1
 0 448 l 1,13,-1
 0 512 l 1,14,-1
 64 512 l 1,15,-1
 128 512 l 1,16,-1
 192 512 l 1,17,-1
 256 512 l 1,18,-1
 320 512 l 1,19,-1
 384 512 l 1,20,-1
 448 512 l 1,21,-1
 448 448 l 1,22,-1
 512 448 l 1,23,-1
 512 384 l 1,24,-1
 512 320 l 1,25,-1
 512 256 l 1,26,-1
 512 192 l 1,27,-1
 512 128 l 1,28,-1
 512 64 l 1,29,-1
 448 64 l 1,30,-1
 448 0 l 1,31,-1
 384 0 l 1,0,-1
320 128 m 1,32,-1
 384 128 l 1,33,-1
 384 192 l 1,34,-1
 384 256 l 1,35,-1
 384 320 l 1,36,-1
 384 384 l 1,37,-1
 320 384 l 1,38,-1
 256 384 l 1,39,-1
 192 384 l 1,40,-1
 128 384 l 1,41,-1
 128 320 l 1,42,-1
 128 256 l 1,43,-1
 128 192 l 1,44,-1
 128 128 l 1,45,-1
 192 128 l 1,46,-1
 256 128 l 1,47,-1
 320 128 l 1,32,-1
EndSplineSet
EndChar

StartChar: E
Encoding: 40 69 39
GlifName: E_
Width: 576
GlyphClass: 1
Flags: W
LayerCount: 2
Fore
SplineSet
448 0 m 1,0,-1
 384 0 l 1,1,-1
 320 0 l 1,2,-1
 256 0 l 1,3,-1
 192 0 l 1,4,-1
 128 0 l 1,5,-1
 64 0 l 1,6,-1
 0 0 l 1,7,-1
 0 64 l 1,8,-1
 0 128 l 1,9,-1
 0 192 l 1,10,-1
 0 256 l 1,11,-1
 0 320 l 1,12,-1
 0 384 l 1,13,-1
 0 448 l 1,14,-1
 0 512 l 1,15,-1
 64 512 l 1,16,-1
 128 512 l 1,17,-1
 192 512 l 1,18,-1
 256 512 l 1,19,-1
 320 512 l 1,20,-1
 384 512 l 1,21,-1
 448 512 l 1,22,-1
 512 512 l 1,23,-1
 512 448 l 1,24,-1
 512 384 l 1,25,-1
 448 384 l 1,26,-1
 384 384 l 1,27,-1
 320 384 l 1,28,-1
 256 384 l 1,29,-1
 192 384 l 1,30,-1
 128 384 l 1,31,-1
 128 320 l 1,32,-1
 192 320 l 1,33,-1
 256 320 l 1,34,-1
 320 320 l 1,35,-1
 384 320 l 1,36,-1
 448 320 l 1,37,-1
 448 256 l 1,38,-1
 448 192 l 1,39,-1
 384 192 l 1,40,-1
 320 192 l 1,41,-1
 256 192 l 1,42,-1
 192 192 l 1,43,-1
 128 192 l 1,44,-1
 128 128 l 1,45,-1
 192 128 l 1,46,-1
 256 128 l 1,47,-1
 320 128 l 1,48,-1
 384 128 l 1,49,-1
 448 128 l 1,50,-1
 512 128 l 1,51,-1
 512 64 l 1,52,-1
 512 0 l 1,53,-1
 448 0 l 1,0,-1
EndSplineSet
EndChar

StartChar: F
Encoding: 41 70 40
GlifName: F_
Width: 576
GlyphClass: 1
Flags: W
LayerCount: 2
Fore
SplineSet
64 0 m 1,0,-1
 0 0 l 1,1,-1
 0 64 l 1,2,-1
 0 128 l 1,3,-1
 0 192 l 1,4,-1
 0 256 l 1,5,-1
 0 320 l 1,6,-1
 0 384 l 1,7,-1
 0 448 l 1,8,-1
 0 512 l 1,9,-1
 64 512 l 1,10,-1
 128 512 l 1,11,-1
 192 512 l 1,12,-1
 256 512 l 1,13,-1
 320 512 l 1,14,-1
 384 512 l 1,15,-1
 448 512 l 1,16,-1
 512 512 l 1,17,-1
 512 448 l 1,18,-1
 512 384 l 1,19,-1
 448 384 l 1,20,-1
 384 384 l 1,21,-1
 320 384 l 1,22,-1
 256 384 l 1,23,-1
 192 384 l 1,24,-1
 128 384 l 1,25,-1
 128 320 l 1,26,-1
 192 320 l 1,27,-1
 256 320 l 1,28,-1
 320 320 l 1,29,-1
 384 320 l 1,30,-1
 448 320 l 1,31,-1
 448 256 l 1,32,-1
 448 192 l 1,33,-1
 384 192 l 1,34,-1
 320 192 l 1,35,-1
 256 192 l 1,36,-1
 192 192 l 1,37,-1
 128 192 l 1,38,-1
 128 128 l 1,39,-1
 128 64 l 1,40,-1
 128 0 l 1,41,-1
 64 0 l 1,0,-1
EndSplineSet
EndChar

StartChar: G
Encoding: 42 71 41
GlifName: G_
Width: 576
GlyphClass: 1
Flags: W
LayerCount: 2
Fore
SplineSet
384 0 m 1,0,-1
 320 0 l 1,1,-1
 256 0 l 1,2,-1
 192 0 l 1,3,-1
 128 0 l 1,4,-1
 64 0 l 1,5,-1
 64 64 l 1,6,-1
 0 64 l 1,7,-1
 0 128 l 1,8,-1
 0 192 l 1,9,-1
 0 256 l 1,10,-1
 0 320 l 1,11,-1
 0 384 l 1,12,-1
 0 448 l 1,13,-1
 64 448 l 1,14,-1
 64 512 l 1,15,-1
 128 512 l 1,16,-1
 192 512 l 1,17,-1
 256 512 l 1,18,-1
 320 512 l 1,19,-1
 384 512 l 1,20,-1
 448 512 l 1,21,-1
 512 512 l 1,22,-1
 512 448 l 1,23,-1
 512 384 l 1,24,-1
 448 384 l 1,25,-1
 384 384 l 1,26,-1
 320 384 l 1,27,-1
 256 384 l 1,28,-1
 192 384 l 1,29,-1
 128 384 l 1,30,-1
 128 320 l 1,31,-1
 128 256 l 1,32,-1
 128 192 l 1,33,-1
 128 128 l 1,34,-1
 192 128 l 1,35,-1
 256 128 l 1,36,-1
 320 128 l 1,37,-1
 384 128 l 1,38,-1
 384 192 l 1,39,-1
 320 192 l 1,40,-1
 256 192 l 1,41,-1
 256 256 l 1,42,-1
 256 320 l 1,43,-1
 320 320 l 1,44,-1
 384 320 l 1,45,-1
 448 320 l 1,46,-1
 512 320 l 1,47,-1
 512 256 l 1,48,-1
 512 192 l 1,49,-1
 512 128 l 1,50,-1
 512 64 l 1,51,-1
 448 64 l 1,52,-1
 448 0 l 1,53,-1
 384 0 l 1,0,-1
EndSplineSet
EndChar

StartChar: H
Encoding: 43 72 42
GlifName: H_
Width: 576
GlyphClass: 1
Flags: W
LayerCount: 2
Fore
SplineSet
448 0 m 1,0,-1
 384 0 l 1,1,-1
 384 64 l 1,2,-1
 384 128 l 1,3,-1
 384 192 l 1,4,-1
 320 192 l 1,5,-1
 256 192 l 1,6,-1
 192 192 l 1,7,-1
 128 192 l 1,8,-1
 128 128 l 1,9,-1
 128 64 l 1,10,-1
 128 0 l 1,11,-1
 64 0 l 1,12,-1
 0 0 l 1,13,-1
 0 64 l 1,14,-1
 0 128 l 1,15,-1
 0 192 l 1,16,-1
 0 256 l 1,17,-1
 0 320 l 1,18,-1
 0 384 l 1,19,-1
 0 448 l 1,20,-1
 0 512 l 1,21,-1
 64 512 l 1,22,-1
 128 512 l 1,23,-1
 128 448 l 1,24,-1
 128 384 l 1,25,-1
 128 320 l 1,26,-1
 192 320 l 1,27,-1
 256 320 l 1,28,-1
 320 320 l 1,29,-1
 384 320 l 1,30,-1
 384 384 l 1,31,-1
 384 448 l 1,32,-1
 384 512 l 1,33,-1
 448 512 l 1,34,-1
 512 512 l 1,35,-1
 512 448 l 1,36,-1
 512 384 l 1,37,-1
 512 320 l 1,38,-1
 512 256 l 1,39,-1
 512 192 l 1,40,-1
 512 128 l 1,41,-1
 512 64 l 1,42,-1
 512 0 l 1,43,-1
 448 0 l 1,0,-1
EndSplineSet
EndChar

StartChar: I
Encoding: 44 73 43
GlifName: I_
Width: 576
GlyphClass: 1
Flags: W
LayerCount: 2
Fore
SplineSet
448 0 m 1,0,-1
 384 0 l 1,1,-1
 320 0 l 1,2,-1
 256 0 l 1,3,-1
 192 0 l 1,4,-1
 128 0 l 1,5,-1
 64 0 l 1,6,-1
 0 0 l 1,7,-1
 0 64 l 1,8,-1
 0 128 l 1,9,-1
 64 128 l 1,10,-1
 128 128 l 1,11,-1
 192 128 l 1,12,-1
 192 192 l 1,13,-1
 192 256 l 1,14,-1
 192 320 l 1,15,-1
 192 384 l 1,16,-1
 128 384 l 1,17,-1
 64 384 l 1,18,-1
 0 384 l 1,19,-1
 0 448 l 1,20,-1
 0 512 l 1,21,-1
 64 512 l 1,22,-1
 128 512 l 1,23,-1
 192 512 l 1,24,-1
 256 512 l 1,25,-1
 320 512 l 1,26,-1
 384 512 l 1,27,-1
 448 512 l 1,28,-1
 512 512 l 1,29,-1
 512 448 l 1,30,-1
 512 384 l 1,31,-1
 448 384 l 1,32,-1
 384 384 l 1,33,-1
 320 384 l 1,34,-1
 320 320 l 1,35,-1
 320 256 l 1,36,-1
 320 192 l 1,37,-1
 320 128 l 1,38,-1
 384 128 l 1,39,-1
 448 128 l 1,40,-1
 512 128 l 1,41,-1
 512 64 l 1,42,-1
 512 0 l 1,43,-1
 448 0 l 1,0,-1
EndSplineSet
EndChar

StartChar: J
Encoding: 45 74 44
GlifName: J_
Width: 576
GlyphClass: 1
Flags: W
LayerCount: 2
Fore
SplineSet
256 0 m 1,0,-1
 192 0 l 1,1,-1
 128 0 l 1,2,-1
 64 0 l 1,3,-1
 64 64 l 1,4,-1
 0 64 l 1,5,-1
 0 128 l 1,6,-1
 0 192 l 1,7,-1
 64 192 l 1,8,-1
 128 192 l 1,9,-1
 128 128 l 1,10,-1
 192 128 l 1,11,-1
 256 128 l 1,12,-1
 256 192 l 1,13,-1
 256 256 l 1,14,-1
 256 320 l 1,15,-1
 256 384 l 1,16,-1
 192 384 l 1,17,-1
 128 384 l 1,18,-1
 128 448 l 1,19,-1
 128 512 l 1,20,-1
 192 512 l 1,21,-1
 256 512 l 1,22,-1
 320 512 l 1,23,-1
 384 512 l 1,24,-1
 448 512 l 1,25,-1
 512 512 l 1,26,-1
 512 448 l 1,27,-1
 512 384 l 1,28,-1
 448 384 l 1,29,-1
 384 384 l 1,30,-1
 384 320 l 1,31,-1
 384 256 l 1,32,-1
 384 192 l 1,33,-1
 384 128 l 1,34,-1
 384 64 l 1,35,-1
 320 64 l 1,36,-1
 320 0 l 1,37,-1
 256 0 l 1,0,-1
EndSplineSet
EndChar

StartChar: K
Encoding: 46 75 45
GlifName: K_
Width: 576
GlyphClass: 1
Flags: W
LayerCount: 2
Fore
SplineSet
448 0 m 1,0,-1
 384 0 l 1,1,-1
 384 64 l 1,2,-1
 320 64 l 1,3,-1
 320 128 l 1,4,-1
 256 128 l 1,5,-1
 256 192 l 1,6,-1
 192 192 l 1,7,-1
 192 128 l 1,8,-1
 128 128 l 1,9,-1
 128 64 l 1,10,-1
 128 0 l 1,11,-1
 64 0 l 1,12,-1
 0 0 l 1,13,-1
 0 64 l 1,14,-1
 0 128 l 1,15,-1
 0 192 l 1,16,-1
 0 256 l 1,17,-1
 0 320 l 1,18,-1
 0 384 l 1,19,-1
 0 448 l 1,20,-1
 0 512 l 1,21,-1
 64 512 l 1,22,-1
 128 512 l 1,23,-1
 128 448 l 1,24,-1
 128 384 l 1,25,-1
 128 320 l 1,26,-1
 192 320 l 1,27,-1
 192 384 l 1,28,-1
 256 384 l 1,29,-1
 256 448 l 1,30,-1
 320 448 l 1,31,-1
 320 512 l 1,32,-1
 384 512 l 1,33,-1
 448 512 l 1,34,-1
 512 512 l 1,35,-1
 512 448 l 1,36,-1
 512 384 l 1,37,-1
 448 384 l 1,38,-1
 384 384 l 1,39,-1
 384 320 l 1,40,-1
 320 320 l 1,41,-1
 320 256 l 1,42,-1
 384 256 l 1,43,-1
 384 192 l 1,44,-1
 448 192 l 1,45,-1
 448 128 l 1,46,-1
 512 128 l 1,47,-1
 512 64 l 1,48,-1
 512 0 l 1,49,-1
 448 0 l 1,0,-1
EndSplineSet
EndChar

StartChar: L
Encoding: 47 76 46
GlifName: L_
Width: 576
GlyphClass: 1
Flags: W
LayerCount: 2
Fore
SplineSet
448 0 m 1,0,-1
 384 0 l 1,1,-1
 320 0 l 1,2,-1
 256 0 l 1,3,-1
 192 0 l 1,4,-1
 128 0 l 1,5,-1
 64 0 l 1,6,-1
 0 0 l 1,7,-1
 0 64 l 1,8,-1
 0 128 l 1,9,-1
 0 192 l 1,10,-1
 0 256 l 1,11,-1
 0 320 l 1,12,-1
 0 384 l 1,13,-1
 0 448 l 1,14,-1
 0 512 l 1,15,-1
 64 512 l 1,16,-1
 128 512 l 1,17,-1
 128 448 l 1,18,-1
 128 384 l 1,19,-1
 128 320 l 1,20,-1
 128 256 l 1,21,-1
 128 192 l 1,22,-1
 128 128 l 1,23,-1
 192 128 l 1,24,-1
 256 128 l 1,25,-1
 320 128 l 1,26,-1
 384 128 l 1,27,-1
 448 128 l 1,28,-1
 512 128 l 1,29,-1
 512 64 l 1,30,-1
 512 0 l 1,31,-1
 448 0 l 1,0,-1
EndSplineSet
EndChar

StartChar: M
Encoding: 48 77 47
GlifName: M_
Width: 576
GlyphClass: 1
Flags: W
LayerCount: 2
Fore
SplineSet
448 0 m 1,0,-1
 384 0 l 1,1,-1
 384 64 l 1,2,-1
 384 128 l 1,3,-1
 384 192 l 1,4,-1
 384 256 l 1,5,-1
 320 256 l 1,6,-1
 320 192 l 1,7,-1
 256 192 l 1,8,-1
 192 192 l 1,9,-1
 192 256 l 1,10,-1
 128 256 l 1,11,-1
 128 192 l 1,12,-1
 128 128 l 1,13,-1
 128 64 l 1,14,-1
 128 0 l 1,15,-1
 64 0 l 1,16,-1
 0 0 l 1,17,-1
 0 64 l 1,18,-1
 0 128 l 1,19,-1
 0 192 l 1,20,-1
 0 256 l 1,21,-1
 0 320 l 1,22,-1
 0 384 l 1,23,-1
 0 448 l 1,24,-1
 0 512 l 1,25,-1
 64 512 l 1,26,-1
 128 512 l 1,27,-1
 128 448 l 1,28,-1
 192 448 l 1,29,-1
 192 384 l 1,30,-1
 256 384 l 1,31,-1
 320 384 l 1,32,-1
 320 448 l 1,33,-1
 384 448 l 1,34,-1
 384 512 l 1,35,-1
 448 512 l 1,36,-1
 512 512 l 1,37,-1
 512 448 l 1,38,-1
 512 384 l 1,39,-1
 512 320 l 1,40,-1
 512 256 l 1,41,-1
 512 192 l 1,42,-1
 512 128 l 1,43,-1
 512 64 l 1,44,-1
 512 0 l 1,45,-1
 448 0 l 1,0,-1
EndSplineSet
EndChar

StartChar: N
Encoding: 49 78 48
GlifName: N_
Width: 576
GlyphClass: 1
Flags: W
LayerCount: 2
Fore
SplineSet
448 0 m 1,0,-1
 384 0 l 1,1,-1
 384 64 l 1,2,-1
 320 64 l 1,3,-1
 320 128 l 1,4,-1
 256 128 l 1,5,-1
 256 192 l 1,6,-1
 192 192 l 1,7,-1
 192 256 l 1,8,-1
 128 256 l 1,9,-1
 128 192 l 1,10,-1
 128 128 l 1,11,-1
 128 64 l 1,12,-1
 128 0 l 1,13,-1
 64 0 l 1,14,-1
 0 0 l 1,15,-1
 0 64 l 1,16,-1
 0 128 l 1,17,-1
 0 192 l 1,18,-1
 0 256 l 1,19,-1
 0 320 l 1,20,-1
 0 384 l 1,21,-1
 0 448 l 1,22,-1
 0 512 l 1,23,-1
 64 512 l 1,24,-1
 128 512 l 1,25,-1
 128 448 l 1,26,-1
 192 448 l 1,27,-1
 192 384 l 1,28,-1
 256 384 l 1,29,-1
 256 320 l 1,30,-1
 320 320 l 1,31,-1
 320 256 l 1,32,-1
 384 256 l 1,33,-1
 384 320 l 1,34,-1
 384 384 l 1,35,-1
 384 448 l 1,36,-1
 384 512 l 1,37,-1
 448 512 l 1,38,-1
 512 512 l 1,39,-1
 512 448 l 1,40,-1
 512 384 l 1,41,-1
 512 320 l 1,42,-1
 512 256 l 1,43,-1
 512 192 l 1,44,-1
 512 128 l 1,45,-1
 512 64 l 1,46,-1
 512 0 l 1,47,-1
 448 0 l 1,0,-1
EndSplineSet
EndChar

StartChar: O
Encoding: 50 79 49
GlifName: O_
Width: 576
GlyphClass: 1
Flags: W
LayerCount: 2
Fore
SplineSet
384 0 m 1,0,-1
 320 0 l 1,1,-1
 256 0 l 1,2,-1
 192 0 l 1,3,-1
 128 0 l 1,4,-1
 64 0 l 1,5,-1
 64 64 l 1,6,-1
 0 64 l 1,7,-1
 0 128 l 1,8,-1
 0 192 l 1,9,-1
 0 256 l 1,10,-1
 0 320 l 1,11,-1
 0 384 l 1,12,-1
 0 448 l 1,13,-1
 64 448 l 1,14,-1
 64 512 l 1,15,-1
 128 512 l 1,16,-1
 192 512 l 1,17,-1
 256 512 l 1,18,-1
 320 512 l 1,19,-1
 384 512 l 1,20,-1
 448 512 l 1,21,-1
 448 448 l 1,22,-1
 512 448 l 1,23,-1
 512 384 l 1,24,-1
 512 320 l 1,25,-1
 512 256 l 1,26,-1
 512 192 l 1,27,-1
 512 128 l 1,28,-1
 512 64 l 1,29,-1
 448 64 l 1,30,-1
 448 0 l 1,31,-1
 384 0 l 1,0,-1
320 128 m 1,32,-1
 384 128 l 1,33,-1
 384 192 l 1,34,-1
 384 256 l 1,35,-1
 384 320 l 1,36,-1
 384 384 l 1,37,-1
 320 384 l 1,38,-1
 256 384 l 1,39,-1
 192 384 l 1,40,-1
 128 384 l 1,41,-1
 128 320 l 1,42,-1
 128 256 l 1,43,-1
 128 192 l 1,44,-1
 128 128 l 1,45,-1
 192 128 l 1,46,-1
 256 128 l 1,47,-1
 320 128 l 1,32,-1
EndSplineSet
EndChar

StartChar: P
Encoding: 51 80 50
GlifName: P_
Width: 576
GlyphClass: 1
Flags: W
LayerCount: 2
Fore
SplineSet
64 0 m 1,0,-1
 0 0 l 1,1,-1
 0 64 l 1,2,-1
 0 128 l 1,3,-1
 0 192 l 1,4,-1
 0 256 l 1,5,-1
 0 320 l 1,6,-1
 0 384 l 1,7,-1
 0 448 l 1,8,-1
 0 512 l 1,9,-1
 64 512 l 1,10,-1
 128 512 l 1,11,-1
 192 512 l 1,12,-1
 256 512 l 1,13,-1
 320 512 l 1,14,-1
 384 512 l 1,15,-1
 448 512 l 1,16,-1
 448 448 l 1,17,-1
 512 448 l 1,18,-1
 512 384 l 1,19,-1
 512 320 l 1,20,-1
 512 256 l 1,21,-1
 512 192 l 1,22,-1
 448 192 l 1,23,-1
 448 128 l 1,24,-1
 384 128 l 1,25,-1
 320 128 l 1,26,-1
 256 128 l 1,27,-1
 192 128 l 1,28,-1
 128 128 l 1,29,-1
 128 64 l 1,30,-1
 128 0 l 1,31,-1
 64 0 l 1,0,-1
320 256 m 1,32,-1
 384 256 l 1,33,-1
 384 320 l 1,34,-1
 384 384 l 1,35,-1
 320 384 l 1,36,-1
 256 384 l 1,37,-1
 192 384 l 1,38,-1
 128 384 l 1,39,-1
 128 320 l 1,40,-1
 128 256 l 1,41,-1
 192 256 l 1,42,-1
 256 256 l 1,43,-1
 320 256 l 1,32,-1
EndSplineSet
EndChar

StartChar: Q
Encoding: 52 81 51
GlifName: Q_
Width: 576
GlyphClass: 1
Flags: W
LayerCount: 2
Fore
SplineSet
448 0 m 1,0,-1
 384 0 l 1,1,-1
 384 64 l 1,2,-1
 320 64 l 1,3,-1
 320 0 l 1,4,-1
 256 0 l 1,5,-1
 192 0 l 1,6,-1
 128 0 l 1,7,-1
 64 0 l 1,8,-1
 64 64 l 1,9,-1
 0 64 l 1,10,-1
 0 128 l 1,11,-1
 0 192 l 1,12,-1
 0 256 l 1,13,-1
 0 320 l 1,14,-1
 0 384 l 1,15,-1
 0 448 l 1,16,-1
 64 448 l 1,17,-1
 64 512 l 1,18,-1
 128 512 l 1,19,-1
 192 512 l 1,20,-1
 256 512 l 1,21,-1
 320 512 l 1,22,-1
 384 512 l 1,23,-1
 448 512 l 1,24,-1
 448 448 l 1,25,-1
 512 448 l 1,26,-1
 512 384 l 1,27,-1
 512 320 l 1,28,-1
 512 256 l 1,29,-1
 512 192 l 1,30,-1
 448 192 l 1,31,-1
 448 128 l 1,32,-1
 512 128 l 1,33,-1
 512 64 l 1,34,-1
 512 0 l 1,35,-1
 448 0 l 1,0,-1
256 128 m 1,36,-1
 320 128 l 1,37,-1
 320 192 l 1,38,-1
 384 192 l 1,39,-1
 384 256 l 1,40,-1
 384 320 l 1,41,-1
 384 384 l 1,42,-1
 320 384 l 1,43,-1
 256 384 l 1,44,-1
 192 384 l 1,45,-1
 128 384 l 1,46,-1
 128 320 l 1,47,-1
 128 256 l 1,48,-1
 128 192 l 1,49,-1
 128 128 l 1,50,-1
 192 128 l 1,51,-1
 256 128 l 1,36,-1
EndSplineSet
EndChar

StartChar: R
Encoding: 53 82 52
GlifName: R_
Width: 576
GlyphClass: 1
Flags: W
LayerCount: 2
Fore
SplineSet
448 0 m 1,0,-1
 384 0 l 1,1,-1
 384 64 l 1,2,-1
 384 128 l 1,3,-1
 320 128 l 1,4,-1
 256 128 l 1,5,-1
 192 128 l 1,6,-1
 128 128 l 1,7,-1
 128 64 l 1,8,-1
 128 0 l 1,9,-1
 64 0 l 1,10,-1
 0 0 l 1,11,-1
 0 64 l 1,12,-1
 0 128 l 1,13,-1
 0 192 l 1,14,-1
 0 256 l 1,15,-1
 0 320 l 1,16,-1
 0 384 l 1,17,-1
 0 448 l 1,18,-1
 0 512 l 1,19,-1
 64 512 l 1,20,-1
 128 512 l 1,21,-1
 192 512 l 1,22,-1
 256 512 l 1,23,-1
 320 512 l 1,24,-1
 384 512 l 1,25,-1
 448 512 l 1,26,-1
 448 448 l 1,27,-1
 512 448 l 1,28,-1
 512 384 l 1,29,-1
 512 320 l 1,30,-1
 512 256 l 1,31,-1
 448 256 l 1,32,-1
 448 192 l 1,33,-1
 512 192 l 1,34,-1
 512 128 l 1,35,-1
 512 64 l 1,36,-1
 512 0 l 1,37,-1
 448 0 l 1,0,-1
320 256 m 1,38,-1
 384 256 l 1,39,-1
 384 320 l 1,40,-1
 384 384 l 1,41,-1
 320 384 l 1,42,-1
 256 384 l 1,43,-1
 192 384 l 1,44,-1
 128 384 l 1,45,-1
 128 320 l 1,46,-1
 128 256 l 1,47,-1
 192 256 l 1,48,-1
 256 256 l 1,49,-1
 320 256 l 1,38,-1
EndSplineSet
EndChar

StartChar: S
Encoding: 54 83 53
GlifName: S_
Width: 576
GlyphClass: 1
Flags: W
LayerCount: 2
Fore
SplineSet
384 0 m 1,0,-1
 320 0 l 1,1,-1
 256 0 l 1,2,-1
 192 0 l 1,3,-1
 128 0 l 1,4,-1
 64 0 l 1,5,-1
 0 0 l 1,6,-1
 0 64 l 1,7,-1
 0 128 l 1,8,-1
 64 128 l 1,9,-1
 128 128 l 1,10,-1
 192 128 l 1,11,-1
 256 128 l 1,12,-1
 320 128 l 1,13,-1
 384 128 l 1,14,-1
 384 192 l 1,15,-1
 320 192 l 1,16,-1
 256 192 l 1,17,-1
 192 192 l 1,18,-1
 128 192 l 1,19,-1
 64 192 l 1,20,-1
 64 256 l 1,21,-1
 0 256 l 1,22,-1
 0 320 l 1,23,-1
 0 384 l 1,24,-1
 0 448 l 1,25,-1
 64 448 l 1,26,-1
 64 512 l 1,27,-1
 128 512 l 1,28,-1
 192 512 l 1,29,-1
 256 512 l 1,30,-1
 320 512 l 1,31,-1
 384 512 l 1,32,-1
 448 512 l 1,33,-1
 512 512 l 1,34,-1
 512 448 l 1,35,-1
 512 384 l 1,36,-1
 448 384 l 1,37,-1
 384 384 l 1,38,-1
 320 384 l 1,39,-1
 256 384 l 1,40,-1
 192 384 l 1,41,-1
 128 384 l 1,42,-1
 128 320 l 1,43,-1
 192 320 l 1,44,-1
 256 320 l 1,45,-1
 320 320 l 1,46,-1
 384 320 l 1,47,-1
 448 320 l 1,48,-1
 448 256 l 1,49,-1
 512 256 l 1,50,-1
 512 192 l 1,51,-1
 512 128 l 1,52,-1
 512 64 l 1,53,-1
 448 64 l 1,54,-1
 448 0 l 1,55,-1
 384 0 l 1,0,-1
EndSplineSet
EndChar

StartChar: T
Encoding: 55 84 54
GlifName: T_
Width: 576
GlyphClass: 1
Flags: W
LayerCount: 2
Fore
SplineSet
256 0 m 1,0,-1
 192 0 l 1,1,-1
 192 64 l 1,2,-1
 192 128 l 1,3,-1
 192 192 l 1,4,-1
 192 256 l 1,5,-1
 192 320 l 1,6,-1
 192 384 l 1,7,-1
 128 384 l 1,8,-1
 64 384 l 1,9,-1
 0 384 l 1,10,-1
 0 448 l 1,11,-1
 0 512 l 1,12,-1
 64 512 l 1,13,-1
 128 512 l 1,14,-1
 192 512 l 1,15,-1
 256 512 l 1,16,-1
 320 512 l 1,17,-1
 384 512 l 1,18,-1
 448 512 l 1,19,-1
 512 512 l 1,20,-1
 512 448 l 1,21,-1
 512 384 l 1,22,-1
 448 384 l 1,23,-1
 384 384 l 1,24,-1
 320 384 l 1,25,-1
 320 320 l 1,26,-1
 320 256 l 1,27,-1
 320 192 l 1,28,-1
 320 128 l 1,29,-1
 320 64 l 1,30,-1
 320 0 l 1,31,-1
 256 0 l 1,0,-1
EndSplineSet
EndChar

StartChar: U
Encoding: 56 85 55
GlifName: U_
Width: 576
GlyphClass: 1
Flags: W
LayerCount: 2
Fore
SplineSet
384 0 m 1,0,-1
 320 0 l 1,1,-1
 256 0 l 1,2,-1
 192 0 l 1,3,-1
 128 0 l 1,4,-1
 64 0 l 1,5,-1
 64 64 l 1,6,-1
 0 64 l 1,7,-1
 0 128 l 1,8,-1
 0 192 l 1,9,-1
 0 256 l 1,10,-1
 0 320 l 1,11,-1
 0 384 l 1,12,-1
 0 448 l 1,13,-1
 0 512 l 1,14,-1
 64 512 l 1,15,-1
 128 512 l 1,16,-1
 128 448 l 1,17,-1
 128 384 l 1,18,-1
 128 320 l 1,19,-1
 128 256 l 1,20,-1
 128 192 l 1,21,-1
 128 128 l 1,22,-1
 192 128 l 1,23,-1
 256 128 l 1,24,-1
 320 128 l 1,25,-1
 384 128 l 1,26,-1
 384 192 l 1,27,-1
 384 256 l 1,28,-1
 384 320 l 1,29,-1
 384 384 l 1,30,-1
 384 448 l 1,31,-1
 384 512 l 1,32,-1
 448 512 l 1,33,-1
 512 512 l 1,34,-1
 512 448 l 1,35,-1
 512 384 l 1,36,-1
 512 320 l 1,37,-1
 512 256 l 1,38,-1
 512 192 l 1,39,-1
 512 128 l 1,40,-1
 512 64 l 1,41,-1
 448 64 l 1,42,-1
 448 0 l 1,43,-1
 384 0 l 1,0,-1
EndSplineSet
EndChar

StartChar: V
Encoding: 57 86 56
GlifName: V_
Width: 576
GlyphClass: 1
Flags: W
LayerCount: 2
Fore
SplineSet
320 0 m 1,0,-1
 256 0 l 1,1,-1
 192 0 l 1,2,-1
 128 0 l 1,3,-1
 128 64 l 1,4,-1
 128 128 l 1,5,-1
 64 128 l 1,6,-1
 64 192 l 1,7,-1
 64 256 l 1,8,-1
 0 256 l 1,9,-1
 0 320 l 1,10,-1
 0 384 l 1,11,-1
 0 448 l 1,12,-1
 0 512 l 1,13,-1
 64 512 l 1,14,-1
 128 512 l 1,15,-1
 128 448 l 1,16,-1
 128 384 l 1,17,-1
 128 320 l 1,18,-1
 192 320 l 1,19,-1
 192 256 l 1,20,-1
 192 192 l 1,21,-1
 256 192 l 1,22,-1
 320 192 l 1,23,-1
 320 256 l 1,24,-1
 320 320 l 1,25,-1
 384 320 l 1,26,-1
 384 384 l 1,27,-1
 384 448 l 1,28,-1
 384 512 l 1,29,-1
 448 512 l 1,30,-1
 512 512 l 1,31,-1
 512 448 l 1,32,-1
 512 384 l 1,33,-1
 512 320 l 1,34,-1
 512 256 l 1,35,-1
 448 256 l 1,36,-1
 448 192 l 1,37,-1
 448 128 l 1,38,-1
 384 128 l 1,39,-1
 384 64 l 1,40,-1
 384 0 l 1,41,-1
 320 0 l 1,0,-1
EndSplineSet
EndChar

StartChar: W
Encoding: 58 87 57
GlifName: W_
Width: 576
GlyphClass: 1
Flags: W
LayerCount: 2
Fore
SplineSet
448 0 m 1,0,-1
 384 0 l 1,1,-1
 384 64 l 1,2,-1
 320 64 l 1,3,-1
 320 128 l 1,4,-1
 256 128 l 1,5,-1
 192 128 l 1,6,-1
 192 64 l 1,7,-1
 128 64 l 1,8,-1
 128 0 l 1,9,-1
 64 0 l 1,10,-1
 0 0 l 1,11,-1
 0 64 l 1,12,-1
 0 128 l 1,13,-1
 0 192 l 1,14,-1
 0 256 l 1,15,-1
 0 320 l 1,16,-1
 0 384 l 1,17,-1
 0 448 l 1,18,-1
 0 512 l 1,19,-1
 64 512 l 1,20,-1
 128 512 l 1,21,-1
 128 448 l 1,22,-1
 128 384 l 1,23,-1
 128 320 l 1,24,-1
 128 256 l 1,25,-1
 192 256 l 1,26,-1
 192 320 l 1,27,-1
 256 320 l 1,28,-1
 320 320 l 1,29,-1
 320 256 l 1,30,-1
 384 256 l 1,31,-1
 384 320 l 1,32,-1
 384 384 l 1,33,-1
 384 448 l 1,34,-1
 384 512 l 1,35,-1
 448 512 l 1,36,-1
 512 512 l 1,37,-1
 512 448 l 1,38,-1
 512 384 l 1,39,-1
 512 320 l 1,40,-1
 512 256 l 1,41,-1
 512 192 l 1,42,-1
 512 128 l 1,43,-1
 512 64 l 1,44,-1
 512 0 l 1,45,-1
 448 0 l 1,0,-1
EndSplineSet
EndChar

StartChar: X
Encoding: 59 88 58
GlifName: X_
Width: 576
GlyphClass: 1
Flags: W
LayerCount: 2
Fore
SplineSet
448 0 m 1,0,-1
 384 0 l 1,1,-1
 384 64 l 1,2,-1
 320 64 l 1,3,-1
 320 128 l 1,4,-1
 256 128 l 1,5,-1
 192 128 l 1,6,-1
 192 64 l 1,7,-1
 128 64 l 1,8,-1
 128 0 l 1,9,-1
 64 0 l 1,10,-1
 0 0 l 1,11,-1
 0 64 l 1,12,-1
 0 128 l 1,13,-1
 64 128 l 1,14,-1
 64 192 l 1,15,-1
 128 192 l 1,16,-1
 128 256 l 1,17,-1
 64 256 l 1,18,-1
 64 320 l 1,19,-1
 0 320 l 1,20,-1
 0 384 l 1,21,-1
 0 448 l 1,22,-1
 0 512 l 1,23,-1
 64 512 l 1,24,-1
 128 512 l 1,25,-1
 128 448 l 1,26,-1
 128 384 l 1,27,-1
 192 384 l 1,28,-1
 192 320 l 1,29,-1
 256 320 l 1,30,-1
 320 320 l 1,31,-1
 320 384 l 1,32,-1
 384 384 l 1,33,-1
 384 448 l 1,34,-1
 384 512 l 1,35,-1
 448 512 l 1,36,-1
 512 512 l 1,37,-1
 512 448 l 1,38,-1
 512 384 l 1,39,-1
 512 320 l 1,40,-1
 448 320 l 1,41,-1
 448 256 l 1,42,-1
 384 256 l 1,43,-1
 384 192 l 1,44,-1
 448 192 l 1,45,-1
 448 128 l 1,46,-1
 512 128 l 1,47,-1
 512 64 l 1,48,-1
 512 0 l 1,49,-1
 448 0 l 1,0,-1
EndSplineSet
EndChar

StartChar: Y
Encoding: 60 89 59
GlifName: Y_
Width: 576
GlyphClass: 1
Flags: W
LayerCount: 2
Fore
SplineSet
256 0 m 1,0,-1
 192 0 l 1,1,-1
 192 64 l 1,2,-1
 192 128 l 1,3,-1
 192 192 l 1,4,-1
 128 192 l 1,5,-1
 128 256 l 1,6,-1
 64 256 l 1,7,-1
 64 320 l 1,8,-1
 0 320 l 1,9,-1
 0 384 l 1,10,-1
 0 448 l 1,11,-1
 0 512 l 1,12,-1
 64 512 l 1,13,-1
 128 512 l 1,14,-1
 128 448 l 1,15,-1
 128 384 l 1,16,-1
 192 384 l 1,17,-1
 192 320 l 1,18,-1
 256 320 l 1,19,-1
 320 320 l 1,20,-1
 320 384 l 1,21,-1
 384 384 l 1,22,-1
 384 448 l 1,23,-1
 384 512 l 1,24,-1
 448 512 l 1,25,-1
 512 512 l 1,26,-1
 512 448 l 1,27,-1
 512 384 l 1,28,-1
 512 320 l 1,29,-1
 448 320 l 1,30,-1
 448 256 l 1,31,-1
 384 256 l 1,32,-1
 384 192 l 1,33,-1
 320 192 l 1,34,-1
 320 128 l 1,35,-1
 320 64 l 1,36,-1
 320 0 l 1,37,-1
 256 0 l 1,0,-1
EndSplineSet
EndChar

StartChar: Z
Encoding: 61 90 60
GlifName: Z_
Width: 576
GlyphClass: 1
Flags: W
LayerCount: 2
Fore
SplineSet
448 0 m 1,0,-1
 384 0 l 1,1,-1
 320 0 l 1,2,-1
 256 0 l 1,3,-1
 192 0 l 1,4,-1
 128 0 l 1,5,-1
 64 0 l 1,6,-1
 0 0 l 1,7,-1
 0 64 l 1,8,-1
 0 128 l 1,9,-1
 64 128 l 1,10,-1
 64 192 l 1,11,-1
 128 192 l 1,12,-1
 128 256 l 1,13,-1
 192 256 l 1,14,-1
 192 320 l 1,15,-1
 256 320 l 1,16,-1
 256 384 l 1,17,-1
 192 384 l 1,18,-1
 128 384 l 1,19,-1
 64 384 l 1,20,-1
 0 384 l 1,21,-1
 0 448 l 1,22,-1
 0 512 l 1,23,-1
 64 512 l 1,24,-1
 128 512 l 1,25,-1
 192 512 l 1,26,-1
 256 512 l 1,27,-1
 320 512 l 1,28,-1
 384 512 l 1,29,-1
 448 512 l 1,30,-1
 512 512 l 1,31,-1
 512 448 l 1,32,-1
 512 384 l 1,33,-1
 448 384 l 1,34,-1
 448 320 l 1,35,-1
 384 320 l 1,36,-1
 384 256 l 1,37,-1
 320 256 l 1,38,-1
 320 192 l 1,39,-1
 256 192 l 1,40,-1
 256 128 l 1,41,-1
 320 128 l 1,42,-1
 384 128 l 1,43,-1
 448 128 l 1,44,-1
 512 128 l 1,45,-1
 512 64 l 1,46,-1
 512 0 l 1,47,-1
 448 0 l 1,0,-1
EndSplineSet
EndChar

StartChar: bracketleft
Encoding: 62 91 61
GlifName: bracketleft
Width: 320
GlyphClass: 1
Flags: W
LayerCount: 2
Fore
SplineSet
192 -64 m 1,0,-1
 128 -64 l 1,1,-1
 64 -64 l 1,2,-1
 0 -64 l 1,3,-1
 0 0 l 1,4,-1
 0 64 l 1,5,-1
 0 128 l 1,6,-1
 0 192 l 1,7,-1
 0 256 l 1,8,-1
 0 320 l 1,9,-1
 0 384 l 1,10,-1
 0 448 l 1,11,-1
 0 512 l 1,12,-1
 0 576 l 1,13,-1
 64 576 l 1,14,-1
 128 576 l 1,15,-1
 192 576 l 1,16,-1
 256 576 l 1,17,-1
 256 512 l 1,18,-1
 256 448 l 1,19,-1
 192 448 l 1,20,-1
 128 448 l 1,21,-1
 128 384 l 1,22,-1
 128 320 l 1,23,-1
 128 256 l 1,24,-1
 128 192 l 1,25,-1
 128 128 l 1,26,-1
 128 64 l 1,27,-1
 192 64 l 1,28,-1
 256 64 l 1,29,-1
 256 0 l 1,30,-1
 256 -64 l 1,31,-1
 192 -64 l 1,0,-1
EndSplineSet
EndChar

StartChar: backslash
Encoding: 63 92 62
GlifName: backslash
Width: 448
GlyphClass: 1
Flags: W
LayerCount: 2
Fore
SplineSet
320 0 m 1,0,-1
 256 0 l 1,1,-1
 256 64 l 1,2,-1
 256 128 l 1,3,-1
 192 128 l 1,4,-1
 192 192 l 1,5,-1
 128 192 l 1,6,-1
 128 256 l 1,7,-1
 64 256 l 1,8,-1
 64 320 l 1,9,-1
 0 320 l 1,10,-1
 0 384 l 1,11,-1
 0 448 l 1,12,-1
 0 512 l 1,13,-1
 64 512 l 1,14,-1
 128 512 l 1,15,-1
 128 448 l 1,16,-1
 128 384 l 1,17,-1
 192 384 l 1,18,-1
 192 320 l 1,19,-1
 256 320 l 1,20,-1
 256 256 l 1,21,-1
 320 256 l 1,22,-1
 320 192 l 1,23,-1
 384 192 l 1,24,-1
 384 128 l 1,25,-1
 384 64 l 1,26,-1
 384 0 l 1,27,-1
 320 0 l 1,0,-1
EndSplineSet
EndChar

StartChar: bracketright
Encoding: 64 93 63
GlifName: bracketright
Width: 320
GlyphClass: 1
Flags: W
LayerCount: 2
Fore
SplineSet
192 -64 m 1,0,-1
 128 -64 l 1,1,-1
 64 -64 l 1,2,-1
 0 -64 l 1,3,-1
 0 0 l 1,4,-1
 0 64 l 1,5,-1
 64 64 l 1,6,-1
 128 64 l 1,7,-1
 128 128 l 1,8,-1
 128 192 l 1,9,-1
 128 256 l 1,10,-1
 128 320 l 1,11,-1
 128 384 l 1,12,-1
 128 448 l 1,13,-1
 64 448 l 1,14,-1
 0 448 l 1,15,-1
 0 512 l 1,16,-1
 0 576 l 1,17,-1
 64 576 l 1,18,-1
 128 576 l 1,19,-1
 192 576 l 1,20,-1
 256 576 l 1,21,-1
 256 512 l 1,22,-1
 256 448 l 1,23,-1
 256 384 l 1,24,-1
 256 320 l 1,25,-1
 256 256 l 1,26,-1
 256 192 l 1,27,-1
 256 128 l 1,28,-1
 256 64 l 1,29,-1
 256 0 l 1,30,-1
 256 -64 l 1,31,-1
 192 -64 l 1,0,-1
EndSplineSet
EndChar

StartChar: asciicircum
Encoding: 65 94 64
GlifName: asciicircum
Width: 512
GlyphClass: 1
Flags: W
LayerCount: 2
Fore
SplineSet
384 320 m 1,0,-1
 320 320 l 1,1,-1
 320 384 l 1,2,-1
 256 384 l 1,3,-1
 192 384 l 1,4,-1
 192 320 l 1,5,-1
 128 320 l 1,6,-1
 64 320 l 1,7,-1
 64 384 l 1,8,-1
 64 448 l 1,9,-1
 128 448 l 1,10,-1
 128 512 l 1,11,-1
 192 512 l 1,12,-1
 192 576 l 1,13,-1
 256 576 l 1,14,-1
 320 576 l 1,15,-1
 320 512 l 1,16,-1
 384 512 l 1,17,-1
 384 448 l 1,18,-1
 448 448 l 1,19,-1
 448 384 l 1,20,-1
 448 320 l 1,21,-1
 384 320 l 1,0,-1
EndSplineSet
EndChar

StartChar: underscore
Encoding: 66 95 65
GlifName: underscore
Width: 512
GlyphClass: 1
Flags: W
LayerCount: 2
Fore
SplineSet
384 -128 m 1,0,-1
 320 -128 l 1,1,-1
 256 -128 l 1,2,-1
 192 -128 l 1,3,-1
 128 -128 l 1,4,-1
 64 -128 l 1,5,-1
 64 -64 l 1,6,-1
 64 0 l 1,7,-1
 128 0 l 1,8,-1
 192 0 l 1,9,-1
 256 0 l 1,10,-1
 320 0 l 1,11,-1
 384 0 l 1,12,-1
 448 0 l 1,13,-1
 448 -64 l 1,14,-1
 448 -128 l 1,15,-1
 384 -128 l 1,0,-1
EndSplineSet
EndChar

StartChar: grave
Encoding: 67 96 66
GlifName: grave
Width: 320
GlyphClass: 1
Flags: W
LayerCount: 2
Fore
SplineSet
192 448 m 1,0,-1
 128 448 l 1,1,-1
 128 512 l 1,2,-1
 64 512 l 1,3,-1
 64 576 l 1,4,-1
 64 640 l 1,5,-1
 128 640 l 1,6,-1
 192 640 l 1,7,-1
 192 576 l 1,8,-1
 256 576 l 1,9,-1
 256 512 l 1,10,-1
 256 448 l 1,11,-1
 192 448 l 1,0,-1
EndSplineSet
EndChar

StartChar: a
Encoding: 68 97 67
GlifName: a
Width: 448
GlyphClass: 1
Flags: W
LayerCount: 2
Fore
SplineSet
320 0 m 1,0,-1
 256 0 l 1,1,-1
 192 0 l 1,2,-1
 128 0 l 1,3,-1
 64 0 l 1,4,-1
 64 64 l 1,5,-1
 0 64 l 1,6,-1
 0 128 l 1,7,-1
 0 192 l 1,8,-1
 0 256 l 1,9,-1
 64 256 l 1,10,-1
 128 256 l 1,11,-1
 192 256 l 1,12,-1
 256 256 l 1,13,-1
 256 320 l 1,14,-1
 192 320 l 1,15,-1
 128 320 l 1,16,-1
 64 320 l 1,17,-1
 0 320 l 1,18,-1
 0 384 l 1,19,-1
 0 448 l 1,20,-1
 64 448 l 1,21,-1
 128 448 l 1,22,-1
 192 448 l 1,23,-1
 256 448 l 1,24,-1
 320 448 l 1,25,-1
 320 384 l 1,26,-1
 384 384 l 1,27,-1
 384 320 l 1,28,-1
 384 256 l 1,29,-1
 384 192 l 1,30,-1
 384 128 l 1,31,-1
 384 64 l 1,32,-1
 384 0 l 1,33,-1
 320 0 l 1,0,-1
192 128 m 1,34,-1
 256 128 l 1,35,-1
 256 192 l 1,36,-1
 192 192 l 1,37,-1
 128 192 l 1,38,-1
 128 128 l 1,39,-1
 192 128 l 1,34,-1
EndSplineSet
EndChar

StartChar: b
Encoding: 69 98 68
GlifName: b
Width: 448
GlyphClass: 1
Flags: W
LayerCount: 2
Fore
SplineSet
256 0 m 1,0,-1
 192 0 l 1,1,-1
 128 0 l 1,2,-1
 64 0 l 1,3,-1
 0 0 l 1,4,-1
 0 64 l 1,5,-1
 0 128 l 1,6,-1
 0 192 l 1,7,-1
 0 256 l 1,8,-1
 0 320 l 1,9,-1
 0 384 l 1,10,-1
 0 448 l 1,11,-1
 0 512 l 1,12,-1
 64 512 l 1,13,-1
 128 512 l 1,14,-1
 128 448 l 1,15,-1
 128 384 l 1,16,-1
 192 384 l 1,17,-1
 256 384 l 1,18,-1
 320 384 l 1,19,-1
 320 320 l 1,20,-1
 384 320 l 1,21,-1
 384 256 l 1,22,-1
 384 192 l 1,23,-1
 384 128 l 1,24,-1
 384 64 l 1,25,-1
 320 64 l 1,26,-1
 320 0 l 1,27,-1
 256 0 l 1,0,-1
192 128 m 1,28,-1
 256 128 l 1,29,-1
 256 192 l 1,30,-1
 256 256 l 1,31,-1
 192 256 l 1,32,-1
 128 256 l 1,33,-1
 128 192 l 1,34,-1
 128 128 l 1,35,-1
 192 128 l 1,28,-1
EndSplineSet
EndChar

StartChar: c
Encoding: 70 99 69
GlifName: c
Width: 448
GlyphClass: 1
Flags: W
LayerCount: 2
Fore
SplineSet
256 0 m 1,0,-1
 192 0 l 1,1,-1
 128 0 l 1,2,-1
 64 0 l 1,3,-1
 64 64 l 1,4,-1
 0 64 l 1,5,-1
 0 128 l 1,6,-1
 0 192 l 1,7,-1
 0 256 l 1,8,-1
 0 320 l 1,9,-1
 0 384 l 1,10,-1
 64 384 l 1,11,-1
 64 448 l 1,12,-1
 128 448 l 1,13,-1
 192 448 l 1,14,-1
 256 448 l 1,15,-1
 320 448 l 1,16,-1
 320 384 l 1,17,-1
 384 384 l 1,18,-1
 384 320 l 1,19,-1
 384 256 l 1,20,-1
 320 256 l 1,21,-1
 256 256 l 1,22,-1
 256 320 l 1,23,-1
 192 320 l 1,24,-1
 128 320 l 1,25,-1
 128 256 l 1,26,-1
 128 192 l 1,27,-1
 128 128 l 1,28,-1
 192 128 l 1,29,-1
 256 128 l 1,30,-1
 256 192 l 1,31,-1
 320 192 l 1,32,-1
 384 192 l 1,33,-1
 384 128 l 1,34,-1
 384 64 l 1,35,-1
 320 64 l 1,36,-1
 320 0 l 1,37,-1
 256 0 l 1,0,-1
EndSplineSet
EndChar

StartChar: d
Encoding: 71 100 70
GlifName: d
Width: 448
GlyphClass: 1
Flags: W
LayerCount: 2
Fore
SplineSet
320 0 m 1,0,-1
 256 0 l 1,1,-1
 192 0 l 1,2,-1
 128 0 l 1,3,-1
 64 0 l 1,4,-1
 64 64 l 1,5,-1
 0 64 l 1,6,-1
 0 128 l 1,7,-1
 0 192 l 1,8,-1
 0 256 l 1,9,-1
 0 320 l 1,10,-1
 64 320 l 1,11,-1
 64 384 l 1,12,-1
 128 384 l 1,13,-1
 192 384 l 1,14,-1
 256 384 l 1,15,-1
 256 448 l 1,16,-1
 256 512 l 1,17,-1
 320 512 l 1,18,-1
 384 512 l 1,19,-1
 384 448 l 1,20,-1
 384 384 l 1,21,-1
 384 320 l 1,22,-1
 384 256 l 1,23,-1
 384 192 l 1,24,-1
 384 128 l 1,25,-1
 384 64 l 1,26,-1
 384 0 l 1,27,-1
 320 0 l 1,0,-1
192 128 m 1,28,-1
 256 128 l 1,29,-1
 256 192 l 1,30,-1
 256 256 l 1,31,-1
 192 256 l 1,32,-1
 128 256 l 1,33,-1
 128 192 l 1,34,-1
 128 128 l 1,35,-1
 192 128 l 1,28,-1
EndSplineSet
EndChar

StartChar: e
Encoding: 72 101 71
GlifName: e
Width: 448
GlyphClass: 1
Flags: W
LayerCount: 2
Fore
SplineSet
320 0 m 1,0,-1
 256 0 l 1,1,-1
 192 0 l 1,2,-1
 128 0 l 1,3,-1
 64 0 l 1,4,-1
 64 64 l 1,5,-1
 0 64 l 1,6,-1
 0 128 l 1,7,-1
 0 192 l 1,8,-1
 0 256 l 1,9,-1
 0 320 l 1,10,-1
 0 384 l 1,11,-1
 64 384 l 1,12,-1
 64 448 l 1,13,-1
 128 448 l 1,14,-1
 192 448 l 1,15,-1
 256 448 l 1,16,-1
 320 448 l 1,17,-1
 320 384 l 1,18,-1
 384 384 l 1,19,-1
 384 320 l 1,20,-1
 384 256 l 1,21,-1
 384 192 l 1,22,-1
 320 192 l 1,23,-1
 256 192 l 1,24,-1
 192 192 l 1,25,-1
 128 192 l 1,26,-1
 128 128 l 1,27,-1
 192 128 l 1,28,-1
 256 128 l 1,29,-1
 320 128 l 1,30,-1
 384 128 l 1,31,-1
 384 64 l 1,32,-1
 384 0 l 1,33,-1
 320 0 l 1,0,-1
192 256 m 1,34,-1
 256 256 l 1,35,-1
 256 320 l 1,36,-1
 192 320 l 1,37,-1
 128 320 l 1,38,-1
 128 256 l 1,39,-1
 192 256 l 1,34,-1
EndSplineSet
EndChar

StartChar: f
Encoding: 73 102 72
GlifName: f
Width: 448
GlyphClass: 1
Flags: W
LayerCount: 2
Fore
SplineSet
128 0 m 1,0,-1
 64 0 l 1,1,-1
 64 64 l 1,2,-1
 64 128 l 1,3,-1
 64 192 l 1,4,-1
 0 192 l 1,5,-1
 0 256 l 1,6,-1
 0 320 l 1,7,-1
 64 320 l 1,8,-1
 64 384 l 1,9,-1
 64 448 l 1,10,-1
 128 448 l 1,11,-1
 128 512 l 1,12,-1
 192 512 l 1,13,-1
 256 512 l 1,14,-1
 320 512 l 1,15,-1
 384 512 l 1,16,-1
 384 448 l 1,17,-1
 384 384 l 1,18,-1
 320 384 l 1,19,-1
 256 384 l 1,20,-1
 192 384 l 1,21,-1
 192 320 l 1,22,-1
 256 320 l 1,23,-1
 320 320 l 1,24,-1
 320 256 l 1,25,-1
 320 192 l 1,26,-1
 256 192 l 1,27,-1
 192 192 l 1,28,-1
 192 128 l 1,29,-1
 192 64 l 1,30,-1
 192 0 l 1,31,-1
 128 0 l 1,0,-1
EndSplineSet
EndChar

StartChar: g
Encoding: 74 103 73
GlifName: g
Width: 448
GlyphClass: 1
Flags: W
LayerCount: 2
Fore
SplineSet
256 -192 m 1,0,-1
 192 -192 l 1,1,-1
 128 -192 l 1,2,-1
 64 -192 l 1,3,-1
 64 -128 l 1,4,-1
 64 -64 l 1,5,-1
 128 -64 l 1,6,-1
 192 -64 l 1,7,-1
 256 -64 l 1,8,-1
 256 0 l 1,9,-1
 192 0 l 1,10,-1
 128 0 l 1,11,-1
 64 0 l 1,12,-1
 64 64 l 1,13,-1
 0 64 l 1,14,-1
 0 128 l 1,15,-1
 0 192 l 1,16,-1
 0 256 l 1,17,-1
 0 320 l 1,18,-1
 0 384 l 1,19,-1
 64 384 l 1,20,-1
 64 448 l 1,21,-1
 128 448 l 1,22,-1
 192 448 l 1,23,-1
 256 448 l 1,24,-1
 320 448 l 1,25,-1
 320 384 l 1,26,-1
 384 384 l 1,27,-1
 384 320 l 1,28,-1
 384 256 l 1,29,-1
 384 192 l 1,30,-1
 384 128 l 1,31,-1
 384 64 l 1,32,-1
 384 0 l 1,33,-1
 384 -64 l 1,34,-1
 384 -128 l 1,35,-1
 320 -128 l 1,36,-1
 320 -192 l 1,37,-1
 256 -192 l 1,0,-1
192 128 m 1,38,-1
 256 128 l 1,39,-1
 256 192 l 1,40,-1
 256 256 l 1,41,-1
 256 320 l 1,42,-1
 192 320 l 1,43,-1
 128 320 l 1,44,-1
 128 256 l 1,45,-1
 128 192 l 1,46,-1
 128 128 l 1,47,-1
 192 128 l 1,38,-1
EndSplineSet
EndChar

StartChar: h
Encoding: 75 104 74
GlifName: h
Width: 448
GlyphClass: 1
Flags: W
LayerCount: 2
Fore
SplineSet
320 0 m 1,0,-1
 256 0 l 1,1,-1
 256 64 l 1,2,-1
 256 128 l 1,3,-1
 256 192 l 1,4,-1
 256 256 l 1,5,-1
 192 256 l 1,6,-1
 128 256 l 1,7,-1
 128 192 l 1,8,-1
 128 128 l 1,9,-1
 128 64 l 1,10,-1
 128 0 l 1,11,-1
 64 0 l 1,12,-1
 0 0 l 1,13,-1
 0 64 l 1,14,-1
 0 128 l 1,15,-1
 0 192 l 1,16,-1
 0 256 l 1,17,-1
 0 320 l 1,18,-1
 0 384 l 1,19,-1
 0 448 l 1,20,-1
 0 512 l 1,21,-1
 64 512 l 1,22,-1
 128 512 l 1,23,-1
 128 448 l 1,24,-1
 128 384 l 1,25,-1
 192 384 l 1,26,-1
 256 384 l 1,27,-1
 320 384 l 1,28,-1
 320 320 l 1,29,-1
 384 320 l 1,30,-1
 384 256 l 1,31,-1
 384 192 l 1,32,-1
 384 128 l 1,33,-1
 384 64 l 1,34,-1
 384 0 l 1,35,-1
 320 0 l 1,0,-1
EndSplineSet
EndChar

StartChar: i
Encoding: 76 105 75
GlifName: i
Width: 448
GlyphClass: 1
Flags: W
LayerCount: 2
Fore
SplineSet
320 0 m 1,0,-1
 256 0 l 1,1,-1
 192 0 l 1,2,-1
 128 0 l 1,3,-1
 64 0 l 1,4,-1
 0 0 l 1,5,-1
 0 64 l 1,6,-1
 0 128 l 1,7,-1
 64 128 l 1,8,-1
 128 128 l 1,9,-1
 128 192 l 1,10,-1
 128 256 l 1,11,-1
 128 320 l 1,12,-1
 64 320 l 1,13,-1
 64 384 l 1,14,-1
 64 448 l 1,15,-1
 128 448 l 1,16,-1
 192 448 l 1,17,-1
 256 448 l 1,18,-1
 256 384 l 1,19,-1
 256 320 l 1,20,-1
 256 256 l 1,21,-1
 256 192 l 1,22,-1
 256 128 l 1,23,-1
 320 128 l 1,24,-1
 384 128 l 1,25,-1
 384 64 l 1,26,-1
 384 0 l 1,27,-1
 320 0 l 1,0,-1
192 512 m 1,28,-1
 128 512 l 1,29,-1
 128 576 l 1,30,-1
 128 640 l 1,31,-1
 192 640 l 1,32,-1
 256 640 l 1,33,-1
 256 576 l 1,34,-1
 256 512 l 1,35,-1
 192 512 l 1,28,-1
EndSplineSet
EndChar

StartChar: j
Encoding: 77 106 76
GlifName: j
Width: 448
GlyphClass: 1
Flags: W
LayerCount: 2
Fore
SplineSet
192 -192 m 1,0,-1
 128 -192 l 1,1,-1
 64 -192 l 1,2,-1
 64 -128 l 1,3,-1
 0 -128 l 1,4,-1
 0 -64 l 1,5,-1
 0 0 l 1,6,-1
 64 0 l 1,7,-1
 128 0 l 1,8,-1
 128 -64 l 1,9,-1
 192 -64 l 1,10,-1
 192 0 l 1,11,-1
 192 64 l 1,12,-1
 192 128 l 1,13,-1
 192 192 l 1,14,-1
 192 256 l 1,15,-1
 192 320 l 1,16,-1
 128 320 l 1,17,-1
 128 384 l 1,18,-1
 128 448 l 1,19,-1
 192 448 l 1,20,-1
 256 448 l 1,21,-1
 320 448 l 1,22,-1
 384 448 l 1,23,-1
 384 384 l 1,24,-1
 384 320 l 1,25,-1
 320 320 l 1,26,-1
 320 256 l 1,27,-1
 320 192 l 1,28,-1
 320 128 l 1,29,-1
 320 64 l 1,30,-1
 320 0 l 1,31,-1
 320 -64 l 1,32,-1
 320 -128 l 1,33,-1
 256 -128 l 1,34,-1
 256 -192 l 1,35,-1
 192 -192 l 1,0,-1
256 512 m 1,36,-1
 192 512 l 1,37,-1
 192 576 l 1,38,-1
 192 640 l 1,39,-1
 256 640 l 1,40,-1
 320 640 l 1,41,-1
 320 576 l 1,42,-1
 320 512 l 1,43,-1
 256 512 l 1,36,-1
EndSplineSet
EndChar

StartChar: k
Encoding: 78 107 77
GlifName: k
Width: 448
GlyphClass: 1
Flags: W
LayerCount: 2
Fore
SplineSet
320 0 m 1,0,-1
 256 0 l 1,1,-1
 256 64 l 1,2,-1
 192 64 l 1,3,-1
 192 128 l 1,4,-1
 128 128 l 1,5,-1
 128 64 l 1,6,-1
 128 0 l 1,7,-1
 64 0 l 1,8,-1
 0 0 l 1,9,-1
 0 64 l 1,10,-1
 0 128 l 1,11,-1
 0 192 l 1,12,-1
 0 256 l 1,13,-1
 0 320 l 1,14,-1
 0 384 l 1,15,-1
 0 448 l 1,16,-1
 0 512 l 1,17,-1
 64 512 l 1,18,-1
 128 512 l 1,19,-1
 128 448 l 1,20,-1
 128 384 l 1,21,-1
 128 320 l 1,22,-1
 192 320 l 1,23,-1
 192 384 l 1,24,-1
 256 384 l 1,25,-1
 256 448 l 1,26,-1
 320 448 l 1,27,-1
 384 448 l 1,28,-1
 384 384 l 1,29,-1
 384 320 l 1,30,-1
 320 320 l 1,31,-1
 320 256 l 1,32,-1
 256 256 l 1,33,-1
 256 192 l 1,34,-1
 320 192 l 1,35,-1
 320 128 l 1,36,-1
 384 128 l 1,37,-1
 384 64 l 1,38,-1
 384 0 l 1,39,-1
 320 0 l 1,0,-1
EndSplineSet
EndChar

StartChar: l
Encoding: 79 108 78
GlifName: l
Width: 448
GlyphClass: 1
Flags: W
LayerCount: 2
Fore
SplineSet
320 0 m 1,0,-1
 256 0 l 1,1,-1
 192 0 l 1,2,-1
 128 0 l 1,3,-1
 64 0 l 1,4,-1
 0 0 l 1,5,-1
 0 64 l 1,6,-1
 0 128 l 1,7,-1
 64 128 l 1,8,-1
 128 128 l 1,9,-1
 128 192 l 1,10,-1
 128 256 l 1,11,-1
 128 320 l 1,12,-1
 128 384 l 1,13,-1
 64 384 l 1,14,-1
 64 448 l 1,15,-1
 64 512 l 1,16,-1
 128 512 l 1,17,-1
 192 512 l 1,18,-1
 256 512 l 1,19,-1
 256 448 l 1,20,-1
 256 384 l 1,21,-1
 256 320 l 1,22,-1
 256 256 l 1,23,-1
 256 192 l 1,24,-1
 256 128 l 1,25,-1
 320 128 l 1,26,-1
 384 128 l 1,27,-1
 384 64 l 1,28,-1
 384 0 l 1,29,-1
 320 0 l 1,0,-1
EndSplineSet
EndChar

StartChar: m
Encoding: 80 109 79
GlifName: m
Width: 576
GlyphClass: 1
Flags: W
LayerCount: 2
Fore
SplineSet
448 0 m 1,0,-1
 384 0 l 1,1,-1
 384 64 l 1,2,-1
 384 128 l 1,3,-1
 384 192 l 1,4,-1
 384 256 l 1,5,-1
 384 320 l 1,6,-1
 320 320 l 1,7,-1
 320 256 l 1,8,-1
 320 192 l 1,9,-1
 320 128 l 1,10,-1
 320 64 l 1,11,-1
 256 64 l 1,12,-1
 192 64 l 1,13,-1
 192 128 l 1,14,-1
 192 192 l 1,15,-1
 192 256 l 1,16,-1
 192 320 l 1,17,-1
 128 320 l 1,18,-1
 128 256 l 1,19,-1
 128 192 l 1,20,-1
 128 128 l 1,21,-1
 128 64 l 1,22,-1
 128 0 l 1,23,-1
 64 0 l 1,24,-1
 0 0 l 1,25,-1
 0 64 l 1,26,-1
 0 128 l 1,27,-1
 0 192 l 1,28,-1
 0 256 l 1,29,-1
 0 320 l 1,30,-1
 0 384 l 1,31,-1
 64 384 l 1,32,-1
 64 448 l 1,33,-1
 128 448 l 1,34,-1
 192 448 l 1,35,-1
 256 448 l 1,36,-1
 320 448 l 1,37,-1
 384 448 l 1,38,-1
 448 448 l 1,39,-1
 448 384 l 1,40,-1
 512 384 l 1,41,-1
 512 320 l 1,42,-1
 512 256 l 1,43,-1
 512 192 l 1,44,-1
 512 128 l 1,45,-1
 512 64 l 1,46,-1
 512 0 l 1,47,-1
 448 0 l 1,0,-1
EndSplineSet
EndChar

StartChar: n
Encoding: 81 110 80
GlifName: n
Width: 448
GlyphClass: 1
Flags: W
LayerCount: 2
Fore
SplineSet
320 0 m 1,0,-1
 256 0 l 1,1,-1
 256 64 l 1,2,-1
 256 128 l 1,3,-1
 256 192 l 1,4,-1
 256 256 l 1,5,-1
 256 320 l 1,6,-1
 192 320 l 1,7,-1
 128 320 l 1,8,-1
 128 256 l 1,9,-1
 128 192 l 1,10,-1
 128 128 l 1,11,-1
 128 64 l 1,12,-1
 128 0 l 1,13,-1
 64 0 l 1,14,-1
 0 0 l 1,15,-1
 0 64 l 1,16,-1
 0 128 l 1,17,-1
 0 192 l 1,18,-1
 0 256 l 1,19,-1
 0 320 l 1,20,-1
 0 384 l 1,21,-1
 64 384 l 1,22,-1
 64 448 l 1,23,-1
 128 448 l 1,24,-1
 192 448 l 1,25,-1
 256 448 l 1,26,-1
 320 448 l 1,27,-1
 320 384 l 1,28,-1
 384 384 l 1,29,-1
 384 320 l 1,30,-1
 384 256 l 1,31,-1
 384 192 l 1,32,-1
 384 128 l 1,33,-1
 384 64 l 1,34,-1
 384 0 l 1,35,-1
 320 0 l 1,0,-1
EndSplineSet
EndChar

StartChar: o
Encoding: 82 111 81
GlifName: o
Width: 448
GlyphClass: 1
Flags: W
LayerCount: 2
Fore
SplineSet
256 0 m 1,0,-1
 192 0 l 1,1,-1
 128 0 l 1,2,-1
 64 0 l 1,3,-1
 64 64 l 1,4,-1
 0 64 l 1,5,-1
 0 128 l 1,6,-1
 0 192 l 1,7,-1
 0 256 l 1,8,-1
 0 320 l 1,9,-1
 0 384 l 1,10,-1
 64 384 l 1,11,-1
 64 448 l 1,12,-1
 128 448 l 1,13,-1
 192 448 l 1,14,-1
 256 448 l 1,15,-1
 320 448 l 1,16,-1
 320 384 l 1,17,-1
 384 384 l 1,18,-1
 384 320 l 1,19,-1
 384 256 l 1,20,-1
 384 192 l 1,21,-1
 384 128 l 1,22,-1
 384 64 l 1,23,-1
 320 64 l 1,24,-1
 320 0 l 1,25,-1
 256 0 l 1,0,-1
192 128 m 1,26,-1
 256 128 l 1,27,-1
 256 192 l 1,28,-1
 256 256 l 1,29,-1
 256 320 l 1,30,-1
 192 320 l 1,31,-1
 128 320 l 1,32,-1
 128 256 l 1,33,-1
 128 192 l 1,34,-1
 128 128 l 1,35,-1
 192 128 l 1,26,-1
EndSplineSet
EndChar

StartChar: p
Encoding: 83 112 82
GlifName: p
Width: 448
GlyphClass: 1
Flags: W
LayerCount: 2
Fore
SplineSet
64 -192 m 1,0,-1
 0 -192 l 1,1,-1
 0 -128 l 1,2,-1
 0 -64 l 1,3,-1
 0 0 l 1,4,-1
 0 64 l 1,5,-1
 0 128 l 1,6,-1
 0 192 l 1,7,-1
 0 256 l 1,8,-1
 0 320 l 1,9,-1
 0 384 l 1,10,-1
 0 448 l 1,11,-1
 64 448 l 1,12,-1
 128 448 l 1,13,-1
 192 448 l 1,14,-1
 256 448 l 1,15,-1
 320 448 l 1,16,-1
 320 384 l 1,17,-1
 384 384 l 1,18,-1
 384 320 l 1,19,-1
 384 256 l 1,20,-1
 384 192 l 1,21,-1
 384 128 l 1,22,-1
 384 64 l 1,23,-1
 320 64 l 1,24,-1
 320 0 l 1,25,-1
 256 0 l 1,26,-1
 192 0 l 1,27,-1
 128 0 l 1,28,-1
 128 -64 l 1,29,-1
 128 -128 l 1,30,-1
 128 -192 l 1,31,-1
 64 -192 l 1,0,-1
192 128 m 1,32,-1
 256 128 l 1,33,-1
 256 192 l 1,34,-1
 256 256 l 1,35,-1
 256 320 l 1,36,-1
 192 320 l 1,37,-1
 128 320 l 1,38,-1
 128 256 l 1,39,-1
 128 192 l 1,40,-1
 128 128 l 1,41,-1
 192 128 l 1,32,-1
EndSplineSet
EndChar

StartChar: q
Encoding: 84 113 83
GlifName: q
Width: 448
GlyphClass: 1
Flags: W
LayerCount: 2
Fore
SplineSet
320 -192 m 1,0,-1
 256 -192 l 1,1,-1
 256 -128 l 1,2,-1
 256 -64 l 1,3,-1
 256 0 l 1,4,-1
 192 0 l 1,5,-1
 128 0 l 1,6,-1
 64 0 l 1,7,-1
 64 64 l 1,8,-1
 0 64 l 1,9,-1
 0 128 l 1,10,-1
 0 192 l 1,11,-1
 0 256 l 1,12,-1
 0 320 l 1,13,-1
 0 384 l 1,14,-1
 64 384 l 1,15,-1
 64 448 l 1,16,-1
 128 448 l 1,17,-1
 192 448 l 1,18,-1
 256 448 l 1,19,-1
 320 448 l 1,20,-1
 384 448 l 1,21,-1
 384 384 l 1,22,-1
 384 320 l 1,23,-1
 384 256 l 1,24,-1
 384 192 l 1,25,-1
 384 128 l 1,26,-1
 384 64 l 1,27,-1
 384 0 l 1,28,-1
 384 -64 l 1,29,-1
 384 -128 l 1,30,-1
 384 -192 l 1,31,-1
 320 -192 l 1,0,-1
192 128 m 1,32,-1
 256 128 l 1,33,-1
 256 192 l 1,34,-1
 256 256 l 1,35,-1
 256 320 l 1,36,-1
 192 320 l 1,37,-1
 128 320 l 1,38,-1
 128 256 l 1,39,-1
 128 192 l 1,40,-1
 128 128 l 1,41,-1
 192 128 l 1,32,-1
EndSplineSet
EndChar

StartChar: r
Encoding: 85 114 84
GlifName: r
Width: 448
GlyphClass: 1
Flags: W
LayerCount: 2
Fore
SplineSet
64 0 m 1,0,-1
 0 0 l 1,1,-1
 0 64 l 1,2,-1
 0 128 l 1,3,-1
 0 192 l 1,4,-1
 0 256 l 1,5,-1
 0 320 l 1,6,-1
 0 384 l 1,7,-1
 0 448 l 1,8,-1
 64 448 l 1,9,-1
 128 448 l 1,10,-1
 128 384 l 1,11,-1
 192 384 l 1,12,-1
 192 448 l 1,13,-1
 256 448 l 1,14,-1
 320 448 l 1,15,-1
 384 448 l 1,16,-1
 384 384 l 1,17,-1
 384 320 l 1,18,-1
 320 320 l 1,19,-1
 256 320 l 1,20,-1
 256 256 l 1,21,-1
 192 256 l 1,22,-1
 128 256 l 1,23,-1
 128 192 l 1,24,-1
 128 128 l 1,25,-1
 128 64 l 1,26,-1
 128 0 l 1,27,-1
 64 0 l 1,0,-1
EndSplineSet
EndChar

StartChar: s
Encoding: 86 115 85
GlifName: s
Width: 448
GlyphClass: 1
Flags: W
LayerCount: 2
Fore
SplineSet
256 0 m 1,0,-1
 192 0 l 1,1,-1
 128 0 l 1,2,-1
 64 0 l 1,3,-1
 0 0 l 1,4,-1
 0 64 l 1,5,-1
 0 128 l 1,6,-1
 64 128 l 1,7,-1
 128 128 l 1,8,-1
 192 128 l 1,9,-1
 192 192 l 1,10,-1
 128 192 l 1,11,-1
 64 192 l 1,12,-1
 64 256 l 1,13,-1
 0 256 l 1,14,-1
 0 320 l 1,15,-1
 0 384 l 1,16,-1
 64 384 l 1,17,-1
 64 448 l 1,18,-1
 128 448 l 1,19,-1
 192 448 l 1,20,-1
 256 448 l 1,21,-1
 320 448 l 1,22,-1
 384 448 l 1,23,-1
 384 384 l 1,24,-1
 384 320 l 1,25,-1
 320 320 l 1,26,-1
 256 320 l 1,27,-1
 192 320 l 1,28,-1
 192 256 l 1,29,-1
 256 256 l 1,30,-1
 320 256 l 1,31,-1
 320 192 l 1,32,-1
 384 192 l 1,33,-1
 384 128 l 1,34,-1
 384 64 l 1,35,-1
 320 64 l 1,36,-1
 320 0 l 1,37,-1
 256 0 l 1,0,-1
EndSplineSet
EndChar

StartChar: t
Encoding: 87 116 86
GlifName: t
Width: 448
GlyphClass: 1
Flags: W
LayerCount: 2
Fore
SplineSet
320 0 m 1,0,-1
 256 0 l 1,1,-1
 192 0 l 1,2,-1
 128 0 l 1,3,-1
 128 64 l 1,4,-1
 64 64 l 1,5,-1
 64 128 l 1,6,-1
 64 192 l 1,7,-1
 64 256 l 1,8,-1
 64 320 l 1,9,-1
 0 320 l 1,10,-1
 0 384 l 1,11,-1
 0 448 l 1,12,-1
 64 448 l 1,13,-1
 64 512 l 1,14,-1
 128 512 l 1,15,-1
 192 512 l 1,16,-1
 192 448 l 1,17,-1
 256 448 l 1,18,-1
 320 448 l 1,19,-1
 320 384 l 1,20,-1
 320 320 l 1,21,-1
 256 320 l 1,22,-1
 192 320 l 1,23,-1
 192 256 l 1,24,-1
 192 192 l 1,25,-1
 192 128 l 1,26,-1
 256 128 l 1,27,-1
 320 128 l 1,28,-1
 384 128 l 1,29,-1
 384 64 l 1,30,-1
 384 0 l 1,31,-1
 320 0 l 1,0,-1
EndSplineSet
EndChar

StartChar: u
Encoding: 88 117 87
GlifName: u
Width: 448
GlyphClass: 1
Flags: W
LayerCount: 2
Fore
SplineSet
256 0 m 1,0,-1
 192 0 l 1,1,-1
 128 0 l 1,2,-1
 64 0 l 1,3,-1
 64 64 l 1,4,-1
 0 64 l 1,5,-1
 0 128 l 1,6,-1
 0 192 l 1,7,-1
 0 256 l 1,8,-1
 0 320 l 1,9,-1
 0 384 l 1,10,-1
 0 448 l 1,11,-1
 64 448 l 1,12,-1
 128 448 l 1,13,-1
 128 384 l 1,14,-1
 128 320 l 1,15,-1
 128 256 l 1,16,-1
 128 192 l 1,17,-1
 128 128 l 1,18,-1
 192 128 l 1,19,-1
 256 128 l 1,20,-1
 256 192 l 1,21,-1
 256 256 l 1,22,-1
 256 320 l 1,23,-1
 256 384 l 1,24,-1
 256 448 l 1,25,-1
 320 448 l 1,26,-1
 384 448 l 1,27,-1
 384 384 l 1,28,-1
 384 320 l 1,29,-1
 384 256 l 1,30,-1
 384 192 l 1,31,-1
 384 128 l 1,32,-1
 384 64 l 1,33,-1
 320 64 l 1,34,-1
 320 0 l 1,35,-1
 256 0 l 1,0,-1
EndSplineSet
EndChar

StartChar: v
Encoding: 89 118 88
GlifName: v
Width: 448
GlyphClass: 1
Flags: W
LayerCount: 2
Fore
SplineSet
192 0 m 1,0,-1
 128 0 l 1,1,-1
 128 64 l 1,2,-1
 64 64 l 1,3,-1
 64 128 l 1,4,-1
 0 128 l 1,5,-1
 0 192 l 1,6,-1
 0 256 l 1,7,-1
 0 320 l 1,8,-1
 0 384 l 1,9,-1
 0 448 l 1,10,-1
 64 448 l 1,11,-1
 128 448 l 1,12,-1
 128 384 l 1,13,-1
 128 320 l 1,14,-1
 128 256 l 1,15,-1
 128 192 l 1,16,-1
 192 192 l 1,17,-1
 256 192 l 1,18,-1
 256 256 l 1,19,-1
 256 320 l 1,20,-1
 256 384 l 1,21,-1
 256 448 l 1,22,-1
 320 448 l 1,23,-1
 384 448 l 1,24,-1
 384 384 l 1,25,-1
 384 320 l 1,26,-1
 384 256 l 1,27,-1
 384 192 l 1,28,-1
 384 128 l 1,29,-1
 320 128 l 1,30,-1
 320 64 l 1,31,-1
 256 64 l 1,32,-1
 256 0 l 1,33,-1
 192 0 l 1,0,-1
EndSplineSet
EndChar

StartChar: w
Encoding: 90 119 89
GlifName: w
Width: 576
GlyphClass: 1
Flags: W
LayerCount: 2
Fore
SplineSet
384 0 m 1,0,-1
 320 0 l 1,1,-1
 256 0 l 1,2,-1
 192 0 l 1,3,-1
 128 0 l 1,4,-1
 64 0 l 1,5,-1
 64 64 l 1,6,-1
 0 64 l 1,7,-1
 0 128 l 1,8,-1
 0 192 l 1,9,-1
 0 256 l 1,10,-1
 0 320 l 1,11,-1
 0 384 l 1,12,-1
 0 448 l 1,13,-1
 64 448 l 1,14,-1
 128 448 l 1,15,-1
 128 384 l 1,16,-1
 128 320 l 1,17,-1
 128 256 l 1,18,-1
 128 192 l 1,19,-1
 128 128 l 1,20,-1
 192 128 l 1,21,-1
 192 192 l 1,22,-1
 192 256 l 1,23,-1
 192 320 l 1,24,-1
 192 384 l 1,25,-1
 256 384 l 1,26,-1
 320 384 l 1,27,-1
 320 320 l 1,28,-1
 320 256 l 1,29,-1
 320 192 l 1,30,-1
 320 128 l 1,31,-1
 384 128 l 1,32,-1
 384 192 l 1,33,-1
 384 256 l 1,34,-1
 384 320 l 1,35,-1
 384 384 l 1,36,-1
 384 448 l 1,37,-1
 448 448 l 1,38,-1
 512 448 l 1,39,-1
 512 384 l 1,40,-1
 512 320 l 1,41,-1
 512 256 l 1,42,-1
 512 192 l 1,43,-1
 512 128 l 1,44,-1
 512 64 l 1,45,-1
 448 64 l 1,46,-1
 448 0 l 1,47,-1
 384 0 l 1,0,-1
EndSplineSet
EndChar

StartChar: x
Encoding: 91 120 90
GlifName: x
Width: 448
GlyphClass: 1
Flags: W
LayerCount: 2
Fore
SplineSet
320 0 m 1,0,-1
 256 0 l 1,1,-1
 256 64 l 1,2,-1
 192 64 l 1,3,-1
 192 128 l 1,4,-1
 128 128 l 1,5,-1
 128 64 l 1,6,-1
 128 0 l 1,7,-1
 64 0 l 1,8,-1
 0 0 l 1,9,-1
 0 64 l 1,10,-1
 0 128 l 1,11,-1
 0 192 l 1,12,-1
 64 192 l 1,13,-1
 64 256 l 1,14,-1
 0 256 l 1,15,-1
 0 320 l 1,16,-1
 0 384 l 1,17,-1
 0 448 l 1,18,-1
 64 448 l 1,19,-1
 128 448 l 1,20,-1
 128 384 l 1,21,-1
 128 320 l 1,22,-1
 192 320 l 1,23,-1
 192 256 l 1,24,-1
 256 256 l 1,25,-1
 256 320 l 1,26,-1
 256 384 l 1,27,-1
 256 448 l 1,28,-1
 320 448 l 1,29,-1
 384 448 l 1,30,-1
 384 384 l 1,31,-1
 384 320 l 1,32,-1
 384 256 l 1,33,-1
 384 192 l 1,34,-1
 320 192 l 1,35,-1
 320 128 l 1,36,-1
 384 128 l 1,37,-1
 384 64 l 1,38,-1
 384 0 l 1,39,-1
 320 0 l 1,0,-1
EndSplineSet
EndChar

StartChar: y
Encoding: 92 121 91
GlifName: y
Width: 448
GlyphClass: 1
Flags: W
LayerCount: 2
Fore
SplineSet
256 -192 m 1,0,-1
 192 -192 l 1,1,-1
 128 -192 l 1,2,-1
 64 -192 l 1,3,-1
 64 -128 l 1,4,-1
 64 -64 l 1,5,-1
 128 -64 l 1,6,-1
 192 -64 l 1,7,-1
 256 -64 l 1,8,-1
 256 0 l 1,9,-1
 192 0 l 1,10,-1
 128 0 l 1,11,-1
 64 0 l 1,12,-1
 64 64 l 1,13,-1
 0 64 l 1,14,-1
 0 128 l 1,15,-1
 0 192 l 1,16,-1
 0 256 l 1,17,-1
 0 320 l 1,18,-1
 0 384 l 1,19,-1
 0 448 l 1,20,-1
 64 448 l 1,21,-1
 128 448 l 1,22,-1
 128 384 l 1,23,-1
 128 320 l 1,24,-1
 128 256 l 1,25,-1
 128 192 l 1,26,-1
 128 128 l 1,27,-1
 192 128 l 1,28,-1
 256 128 l 1,29,-1
 256 192 l 1,30,-1
 256 256 l 1,31,-1
 256 320 l 1,32,-1
 256 384 l 1,33,-1
 256 448 l 1,34,-1
 320 448 l 1,35,-1
 384 448 l 1,36,-1
 384 384 l 1,37,-1
 384 320 l 1,38,-1
 384 256 l 1,39,-1
 384 192 l 1,40,-1
 384 128 l 1,41,-1
 384 64 l 1,42,-1
 384 0 l 1,43,-1
 384 -64 l 1,44,-1
 384 -128 l 1,45,-1
 320 -128 l 1,46,-1
 320 -192 l 1,47,-1
 256 -192 l 1,0,-1
EndSplineSet
EndChar

StartChar: z
Encoding: 93 122 92
GlifName: z
Width: 448
GlyphClass: 1
Flags: W
LayerCount: 2
Fore
SplineSet
320 0 m 1,0,-1
 256 0 l 1,1,-1
 192 0 l 1,2,-1
 128 0 l 1,3,-1
 64 0 l 1,4,-1
 0 0 l 1,5,-1
 0 64 l 1,6,-1
 0 128 l 1,7,-1
 0 192 l 1,8,-1
 64 192 l 1,9,-1
 64 256 l 1,10,-1
 128 256 l 1,11,-1
 192 256 l 1,12,-1
 192 320 l 1,13,-1
 128 320 l 1,14,-1
 64 320 l 1,15,-1
 0 320 l 1,16,-1
 0 384 l 1,17,-1
 0 448 l 1,18,-1
 64 448 l 1,19,-1
 128 448 l 1,20,-1
 192 448 l 1,21,-1
 256 448 l 1,22,-1
 320 448 l 1,23,-1
 384 448 l 1,24,-1
 384 384 l 1,25,-1
 384 320 l 1,26,-1
 384 256 l 1,27,-1
 320 256 l 1,28,-1
 320 192 l 1,29,-1
 256 192 l 1,30,-1
 192 192 l 1,31,-1
 192 128 l 1,32,-1
 256 128 l 1,33,-1
 320 128 l 1,34,-1
 384 128 l 1,35,-1
 384 64 l 1,36,-1
 384 0 l 1,37,-1
 320 0 l 1,0,-1
EndSplineSet
EndChar

StartChar: braceleft
Encoding: 94 123 93
GlifName: braceleft
Width: 384
GlyphClass: 1
Flags: W
LayerCount: 2
Fore
SplineSet
256 -64 m 1,0,-1
 192 -64 l 1,1,-1
 128 -64 l 1,2,-1
 128 0 l 1,3,-1
 64 0 l 1,4,-1
 64 64 l 1,5,-1
 64 128 l 1,6,-1
 64 192 l 1,7,-1
 0 192 l 1,8,-1
 0 256 l 1,9,-1
 0 320 l 1,10,-1
 64 320 l 1,11,-1
 64 384 l 1,12,-1
 64 448 l 1,13,-1
 64 512 l 1,14,-1
 128 512 l 1,15,-1
 128 576 l 1,16,-1
 192 576 l 1,17,-1
 256 576 l 1,18,-1
 320 576 l 1,19,-1
 320 512 l 1,20,-1
 320 448 l 1,21,-1
 256 448 l 1,22,-1
 192 448 l 1,23,-1
 192 384 l 1,24,-1
 192 320 l 1,25,-1
 128 320 l 1,26,-1
 128 256 l 1,27,-1
 128 192 l 1,28,-1
 192 192 l 1,29,-1
 192 128 l 1,30,-1
 192 64 l 1,31,-1
 256 64 l 1,32,-1
 320 64 l 1,33,-1
 320 0 l 1,34,-1
 320 -64 l 1,35,-1
 256 -64 l 1,0,-1
EndSplineSet
EndChar

StartChar: bar
Encoding: 95 124 94
GlifName: bar
Width: 256
GlyphClass: 1
Flags: W
LayerCount: 2
Fore
SplineSet
128 -64 m 1,0,-1
 64 -64 l 1,1,-1
 64 0 l 1,2,-1
 64 64 l 1,3,-1
 64 128 l 1,4,-1
 64 192 l 1,5,-1
 64 256 l 1,6,-1
 64 320 l 1,7,-1
 64 384 l 1,8,-1
 64 448 l 1,9,-1
 64 512 l 1,10,-1
 64 576 l 1,11,-1
 128 576 l 1,12,-1
 192 576 l 1,13,-1
 192 512 l 1,14,-1
 192 448 l 1,15,-1
 192 384 l 1,16,-1
 192 320 l 1,17,-1
 192 256 l 1,18,-1
 192 192 l 1,19,-1
 192 128 l 1,20,-1
 192 64 l 1,21,-1
 192 0 l 1,22,-1
 192 -64 l 1,23,-1
 128 -64 l 1,0,-1
EndSplineSet
EndChar

StartChar: braceright
Encoding: 96 125 95
GlifName: braceright
Width: 384
GlyphClass: 1
Flags: W
LayerCount: 2
Fore
SplineSet
128 -64 m 1,0,-1
 64 -64 l 1,1,-1
 0 -64 l 1,2,-1
 0 0 l 1,3,-1
 0 64 l 1,4,-1
 64 64 l 1,5,-1
 128 64 l 1,6,-1
 128 128 l 1,7,-1
 128 192 l 1,8,-1
 192 192 l 1,9,-1
 192 256 l 1,10,-1
 192 320 l 1,11,-1
 128 320 l 1,12,-1
 128 384 l 1,13,-1
 128 448 l 1,14,-1
 64 448 l 1,15,-1
 0 448 l 1,16,-1
 0 512 l 1,17,-1
 0 576 l 1,18,-1
 64 576 l 1,19,-1
 128 576 l 1,20,-1
 192 576 l 1,21,-1
 192 512 l 1,22,-1
 256 512 l 1,23,-1
 256 448 l 1,24,-1
 256 384 l 1,25,-1
 256 320 l 1,26,-1
 320 320 l 1,27,-1
 320 256 l 1,28,-1
 320 192 l 1,29,-1
 256 192 l 1,30,-1
 256 128 l 1,31,-1
 256 64 l 1,32,-1
 256 0 l 1,33,-1
 192 0 l 1,34,-1
 192 -64 l 1,35,-1
 128 -64 l 1,0,-1
EndSplineSet
EndChar

StartChar: asciitilde
Encoding: 97 126 96
GlifName: asciitilde
Width: 512
GlyphClass: 1
Flags: W
LayerCount: 2
Fore
SplineSet
64 192 m 1,0,-1
 64 256 l 1,1,-1
 64 320 l 1,2,-1
 128 320 l 1,3,-1
 128 384 l 1,4,-1
 192 384 l 1,5,-1
 256 384 l 1,6,-1
 320 384 l 1,7,-1
 320 320 l 1,8,-1
 384 320 l 1,9,-1
 384 384 l 1,10,-1
 448 384 l 1,11,-1
 448 320 l 1,12,-1
 448 256 l 1,13,-1
 384 256 l 1,14,-1
 384 192 l 1,15,-1
 320 192 l 1,16,-1
 256 192 l 1,17,-1
 192 192 l 1,18,-1
 192 256 l 1,19,-1
 128 256 l 1,20,-1
 128 192 l 1,21,-1
 64 192 l 1,0,-1
EndSplineSet
EndChar

StartChar: exclamdown
Encoding: 98 161 97
GlifName: exclamdown
Width: 256
GlyphClass: 1
Flags: W
LayerCount: 2
Fore
SplineSet
128 -64 m 1,0,-1
 64 -64 l 1,1,-1
 64 0 l 1,2,-1
 64 64 l 1,3,-1
 64 128 l 1,4,-1
 64 192 l 1,5,-1
 64 256 l 1,6,-1
 64 320 l 1,7,-1
 64 384 l 1,8,-1
 128 384 l 1,9,-1
 192 384 l 1,10,-1
 192 320 l 1,11,-1
 192 256 l 1,12,-1
 192 192 l 1,13,-1
 192 128 l 1,14,-1
 192 64 l 1,15,-1
 192 0 l 1,16,-1
 192 -64 l 1,17,-1
 128 -64 l 1,0,-1
128 448 m 1,18,-1
 64 448 l 1,19,-1
 64 512 l 1,20,-1
 64 576 l 1,21,-1
 128 576 l 1,22,-1
 192 576 l 1,23,-1
 192 512 l 1,24,-1
 192 448 l 1,25,-1
 128 448 l 1,18,-1
EndSplineSet
EndChar

StartChar: cent
Encoding: 99 162 98
GlifName: cent
Width: 576
GlyphClass: 1
Flags: W
LayerCount: 2
Fore
SplineSet
256 -64 m 1,0,-1
 192 -64 l 1,1,-1
 192 0 l 1,2,-1
 128 0 l 1,3,-1
 64 0 l 1,4,-1
 64 64 l 1,5,-1
 0 64 l 1,6,-1
 0 128 l 1,7,-1
 0 192 l 1,8,-1
 0 256 l 1,9,-1
 0 320 l 1,10,-1
 0 384 l 1,11,-1
 0 448 l 1,12,-1
 64 448 l 1,13,-1
 64 512 l 1,14,-1
 128 512 l 1,15,-1
 192 512 l 1,16,-1
 192 576 l 1,17,-1
 256 576 l 1,18,-1
 320 576 l 1,19,-1
 320 512 l 1,20,-1
 384 512 l 1,21,-1
 448 512 l 1,22,-1
 448 448 l 1,23,-1
 512 448 l 1,24,-1
 512 384 l 1,25,-1
 512 320 l 1,26,-1
 448 320 l 1,27,-1
 384 320 l 1,28,-1
 384 384 l 1,29,-1
 320 384 l 1,30,-1
 320 320 l 1,31,-1
 320 256 l 1,32,-1
 320 192 l 1,33,-1
 320 128 l 1,34,-1
 384 128 l 1,35,-1
 384 192 l 1,36,-1
 448 192 l 1,37,-1
 512 192 l 1,38,-1
 512 128 l 1,39,-1
 512 64 l 1,40,-1
 448 64 l 1,41,-1
 448 0 l 1,42,-1
 384 0 l 1,43,-1
 320 0 l 1,44,-1
 320 -64 l 1,45,-1
 256 -64 l 1,0,-1
192 128 m 1,46,-1
 192 192 l 1,47,-1
 192 256 l 1,48,-1
 192 320 l 1,49,-1
 192 384 l 1,50,-1
 128 384 l 1,51,-1
 128 320 l 1,52,-1
 128 256 l 1,53,-1
 128 192 l 1,54,-1
 128 128 l 1,55,-1
 192 128 l 1,46,-1
EndSplineSet
EndChar

StartChar: sterling
Encoding: 100 163 99
GlifName: sterling
Width: 576
GlyphClass: 1
Flags: W
LayerCount: 2
Fore
SplineSet
448 0 m 1,0,-1
 384 0 l 1,1,-1
 320 0 l 1,2,-1
 256 0 l 1,3,-1
 192 0 l 1,4,-1
 128 0 l 1,5,-1
 64 0 l 1,6,-1
 0 0 l 1,7,-1
 0 64 l 1,8,-1
 0 128 l 1,9,-1
 64 128 l 1,10,-1
 64 192 l 1,11,-1
 0 192 l 1,12,-1
 0 256 l 1,13,-1
 0 320 l 1,14,-1
 64 320 l 1,15,-1
 128 320 l 1,16,-1
 128 384 l 1,17,-1
 128 448 l 1,18,-1
 128 512 l 1,19,-1
 192 512 l 1,20,-1
 192 576 l 1,21,-1
 256 576 l 1,22,-1
 320 576 l 1,23,-1
 384 576 l 1,24,-1
 448 576 l 1,25,-1
 448 512 l 1,26,-1
 512 512 l 1,27,-1
 512 448 l 1,28,-1
 512 384 l 1,29,-1
 448 384 l 1,30,-1
 384 384 l 1,31,-1
 384 448 l 1,32,-1
 320 448 l 1,33,-1
 256 448 l 1,34,-1
 256 384 l 1,35,-1
 256 320 l 1,36,-1
 320 320 l 1,37,-1
 384 320 l 1,38,-1
 384 256 l 1,39,-1
 384 192 l 1,40,-1
 320 192 l 1,41,-1
 256 192 l 1,42,-1
 192 192 l 1,43,-1
 192 128 l 1,44,-1
 256 128 l 1,45,-1
 320 128 l 1,46,-1
 384 128 l 1,47,-1
 448 128 l 1,48,-1
 512 128 l 1,49,-1
 512 64 l 1,50,-1
 512 0 l 1,51,-1
 448 0 l 1,0,-1
EndSplineSet
EndChar

StartChar: currency
Encoding: 101 164 100
GlifName: currency
Width: 512
GlyphClass: 1
Flags: W
LayerCount: 2
Fore
SplineSet
384 128 m 1,0,-1
 320 128 l 1,1,-1
 320 192 l 1,2,-1
 256 192 l 1,3,-1
 256 128 l 1,4,-1
 192 128 l 1,5,-1
 128 128 l 1,6,-1
 64 128 l 1,7,-1
 64 192 l 1,8,-1
 64 256 l 1,9,-1
 128 256 l 1,10,-1
 128 320 l 1,11,-1
 64 320 l 1,12,-1
 64 384 l 1,13,-1
 64 448 l 1,14,-1
 64 512 l 1,15,-1
 128 512 l 1,16,-1
 192 512 l 1,17,-1
 192 448 l 1,18,-1
 256 448 l 1,19,-1
 256 512 l 1,20,-1
 320 512 l 1,21,-1
 384 512 l 1,22,-1
 448 512 l 1,23,-1
 448 448 l 1,24,-1
 448 384 l 1,25,-1
 384 384 l 1,26,-1
 384 320 l 1,27,-1
 448 320 l 1,28,-1
 448 256 l 1,29,-1
 448 192 l 1,30,-1
 448 128 l 1,31,-1
 384 128 l 1,0,-1
256 256 m 1,32,-1
 320 256 l 1,33,-1
 320 320 l 1,34,-1
 320 384 l 1,35,-1
 256 384 l 1,36,-1
 192 384 l 1,37,-1
 192 320 l 1,38,-1
 192 256 l 1,39,-1
 256 256 l 1,32,-1
EndSplineSet
EndChar

StartChar: yen
Encoding: 102 165 101
GlifName: yen
Width: 576
GlyphClass: 1
Flags: W
LayerCount: 2
Fore
SplineSet
256 0 m 1,0,-1
 192 0 l 1,1,-1
 192 64 l 1,2,-1
 128 64 l 1,3,-1
 64 64 l 1,4,-1
 64 128 l 1,5,-1
 64 192 l 1,6,-1
 128 192 l 1,7,-1
 192 192 l 1,8,-1
 192 256 l 1,9,-1
 128 256 l 1,10,-1
 128 320 l 1,11,-1
 64 320 l 1,12,-1
 64 384 l 1,13,-1
 0 384 l 1,14,-1
 0 448 l 1,15,-1
 0 512 l 1,16,-1
 0 576 l 1,17,-1
 64 576 l 1,18,-1
 128 576 l 1,19,-1
 128 512 l 1,20,-1
 128 448 l 1,21,-1
 192 448 l 1,22,-1
 192 384 l 1,23,-1
 256 384 l 1,24,-1
 320 384 l 1,25,-1
 320 448 l 1,26,-1
 384 448 l 1,27,-1
 384 512 l 1,28,-1
 384 576 l 1,29,-1
 448 576 l 1,30,-1
 512 576 l 1,31,-1
 512 512 l 1,32,-1
 512 448 l 1,33,-1
 512 384 l 1,34,-1
 448 384 l 1,35,-1
 448 320 l 1,36,-1
 384 320 l 1,37,-1
 384 256 l 1,38,-1
 320 256 l 1,39,-1
 320 192 l 1,40,-1
 384 192 l 1,41,-1
 448 192 l 1,42,-1
 448 128 l 1,43,-1
 448 64 l 1,44,-1
 384 64 l 1,45,-1
 320 64 l 1,46,-1
 320 0 l 1,47,-1
 256 0 l 1,0,-1
EndSplineSet
EndChar

StartChar: brokenbar
Encoding: 103 166 102
GlifName: brokenbar
Width: 320
GlyphClass: 1
Flags: W
LayerCount: 2
Fore
SplineSet
192 -64 m 1,0,-1
 128 -64 l 1,1,-1
 128 0 l 1,2,-1
 128 64 l 1,3,-1
 128 128 l 1,4,-1
 128 192 l 1,5,-1
 192 192 l 1,6,-1
 256 192 l 1,7,-1
 256 128 l 1,8,-1
 256 64 l 1,9,-1
 256 0 l 1,10,-1
 256 -64 l 1,11,-1
 192 -64 l 1,0,-1
192 320 m 1,12,-1
 128 320 l 1,13,-1
 128 384 l 1,14,-1
 128 448 l 1,15,-1
 128 512 l 1,16,-1
 128 576 l 1,17,-1
 192 576 l 1,18,-1
 256 576 l 1,19,-1
 256 512 l 1,20,-1
 256 448 l 1,21,-1
 256 384 l 1,22,-1
 256 320 l 1,23,-1
 192 320 l 1,12,-1
EndSplineSet
EndChar

StartChar: section
Encoding: 104 167 103
GlifName: section
Width: 448
GlyphClass: 1
Flags: W
LayerCount: 2
Fore
SplineSet
256 -64 m 1,0,-1
 192 -64 l 1,1,-1
 128 -64 l 1,2,-1
 64 -64 l 1,3,-1
 0 -64 l 1,4,-1
 0 0 l 1,5,-1
 0 64 l 1,6,-1
 64 64 l 1,7,-1
 128 64 l 1,8,-1
 192 64 l 1,9,-1
 192 128 l 1,10,-1
 128 128 l 1,11,-1
 64 128 l 1,12,-1
 64 192 l 1,13,-1
 0 192 l 1,14,-1
 0 256 l 1,15,-1
 0 320 l 1,16,-1
 64 320 l 1,17,-1
 64 384 l 1,18,-1
 0 384 l 1,19,-1
 0 448 l 1,20,-1
 0 512 l 1,21,-1
 64 512 l 1,22,-1
 64 576 l 1,23,-1
 128 576 l 1,24,-1
 192 576 l 1,25,-1
 256 576 l 1,26,-1
 320 576 l 1,27,-1
 384 576 l 1,28,-1
 384 512 l 1,29,-1
 384 448 l 1,30,-1
 320 448 l 1,31,-1
 256 448 l 1,32,-1
 192 448 l 1,33,-1
 192 384 l 1,34,-1
 256 384 l 1,35,-1
 320 384 l 1,36,-1
 320 320 l 1,37,-1
 384 320 l 1,38,-1
 384 256 l 1,39,-1
 384 192 l 1,40,-1
 320 192 l 1,41,-1
 320 128 l 1,42,-1
 384 128 l 1,43,-1
 384 64 l 1,44,-1
 384 0 l 1,45,-1
 320 0 l 1,46,-1
 320 -64 l 1,47,-1
 256 -64 l 1,0,-1
EndSplineSet
EndChar

StartChar: dieresis
Encoding: 105 168 104
GlifName: dieresis
Width: 448
GlyphClass: 1
Flags: W
LayerCount: 2
Fore
SplineSet
320 448 m 1,0,-1
 256 448 l 1,1,-1
 256 512 l 1,2,-1
 256 576 l 1,3,-1
 320 576 l 1,4,-1
 384 576 l 1,5,-1
 384 512 l 1,6,-1
 384 448 l 1,7,-1
 320 448 l 1,0,-1
64 448 m 1,8,-1
 0 448 l 1,9,-1
 0 512 l 1,10,-1
 0 576 l 1,11,-1
 64 576 l 1,12,-1
 128 576 l 1,13,-1
 128 512 l 1,14,-1
 128 448 l 1,15,-1
 64 448 l 1,8,-1
EndSplineSet
EndChar

StartChar: copyright
Encoding: 106 169 105
GlifName: copyright
Width: 512
GlyphClass: 1
Flags: W
LayerCount: 2
Fore
SplineSet
320 128 m 1,0,-1
 256 128 l 1,1,-1
 192 128 l 1,2,-1
 128 128 l 1,3,-1
 128 192 l 1,4,-1
 64 192 l 1,5,-1
 64 256 l 1,6,-1
 64 320 l 1,7,-1
 64 384 l 1,8,-1
 64 448 l 1,9,-1
 64 512 l 1,10,-1
 128 512 l 1,11,-1
 128 576 l 1,12,-1
 192 576 l 1,13,-1
 256 576 l 1,14,-1
 320 576 l 1,15,-1
 384 576 l 1,16,-1
 384 512 l 1,17,-1
 448 512 l 1,18,-1
 448 448 l 1,19,-1
 448 384 l 1,20,-1
 384 384 l 1,21,-1
 320 384 l 1,22,-1
 320 448 l 1,23,-1
 256 448 l 1,24,-1
 192 448 l 1,25,-1
 192 384 l 1,26,-1
 192 320 l 1,27,-1
 192 256 l 1,28,-1
 256 256 l 1,29,-1
 320 256 l 1,30,-1
 320 320 l 1,31,-1
 384 320 l 1,32,-1
 448 320 l 1,33,-1
 448 256 l 1,34,-1
 448 192 l 1,35,-1
 384 192 l 1,36,-1
 384 128 l 1,37,-1
 320 128 l 1,0,-1
EndSplineSet
EndChar

StartChar: guillemotleft
Encoding: 107 171 106
GlifName: guillemotleft
Width: 576
GlyphClass: 1
Flags: W
LayerCount: 2
Fore
SplineSet
448 0 m 1,0,-1
 384 0 l 1,1,-1
 384 64 l 1,2,-1
 320 64 l 1,3,-1
 320 128 l 1,4,-1
 256 128 l 1,5,-1
 256 64 l 1,6,-1
 256 0 l 1,7,-1
 192 0 l 1,8,-1
 128 0 l 1,9,-1
 128 64 l 1,10,-1
 64 64 l 1,11,-1
 64 128 l 1,12,-1
 0 128 l 1,13,-1
 0 192 l 1,14,-1
 0 256 l 1,15,-1
 64 256 l 1,16,-1
 64 320 l 1,17,-1
 128 320 l 1,18,-1
 128 384 l 1,19,-1
 192 384 l 1,20,-1
 256 384 l 1,21,-1
 256 320 l 1,22,-1
 256 256 l 1,23,-1
 192 256 l 1,24,-1
 192 192 l 1,25,-1
 192 128 l 1,26,-1
 256 128 l 1,27,-1
 256 192 l 1,28,-1
 256 256 l 1,29,-1
 320 256 l 1,30,-1
 320 320 l 1,31,-1
 384 320 l 1,32,-1
 384 384 l 1,33,-1
 448 384 l 1,34,-1
 512 384 l 1,35,-1
 512 320 l 1,36,-1
 512 256 l 1,37,-1
 448 256 l 1,38,-1
 448 192 l 1,39,-1
 448 128 l 1,40,-1
 512 128 l 1,41,-1
 512 64 l 1,42,-1
 512 0 l 1,43,-1
 448 0 l 1,0,-1
EndSplineSet
EndChar

StartChar: logicalnot
Encoding: 108 172 107
GlifName: logicalnot
Width: 576
GlyphClass: 1
Flags: W
LayerCount: 2
Fore
SplineSet
448 64 m 1,0,-1
 384 64 l 1,1,-1
 384 128 l 1,2,-1
 384 192 l 1,3,-1
 320 192 l 1,4,-1
 256 192 l 1,5,-1
 192 192 l 1,6,-1
 128 192 l 1,7,-1
 64 192 l 1,8,-1
 0 192 l 1,9,-1
 0 256 l 1,10,-1
 0 320 l 1,11,-1
 64 320 l 1,12,-1
 128 320 l 1,13,-1
 192 320 l 1,14,-1
 256 320 l 1,15,-1
 320 320 l 1,16,-1
 384 320 l 1,17,-1
 448 320 l 1,18,-1
 512 320 l 1,19,-1
 512 256 l 1,20,-1
 512 192 l 1,21,-1
 512 128 l 1,22,-1
 512 64 l 1,23,-1
 448 64 l 1,0,-1
EndSplineSet
EndChar

StartChar: registered
Encoding: 109 174 108
GlifName: registered
Width: 512
GlyphClass: 1
Flags: W
LayerCount: 2
Fore
SplineSet
384 128 m 1,0,-1
 320 128 l 1,1,-1
 320 192 l 1,2,-1
 320 256 l 1,3,-1
 256 256 l 1,4,-1
 192 256 l 1,5,-1
 192 192 l 1,6,-1
 192 128 l 1,7,-1
 128 128 l 1,8,-1
 64 128 l 1,9,-1
 64 192 l 1,10,-1
 64 256 l 1,11,-1
 64 320 l 1,12,-1
 64 384 l 1,13,-1
 64 448 l 1,14,-1
 64 512 l 1,15,-1
 64 576 l 1,16,-1
 128 576 l 1,17,-1
 192 576 l 1,18,-1
 256 576 l 1,19,-1
 320 576 l 1,20,-1
 384 576 l 1,21,-1
 384 512 l 1,22,-1
 448 512 l 1,23,-1
 448 448 l 1,24,-1
 448 384 l 1,25,-1
 448 320 l 1,26,-1
 384 320 l 1,27,-1
 384 256 l 1,28,-1
 448 256 l 1,29,-1
 448 192 l 1,30,-1
 448 128 l 1,31,-1
 384 128 l 1,0,-1
256 384 m 1,32,-1
 320 384 l 1,33,-1
 320 448 l 1,34,-1
 256 448 l 1,35,-1
 192 448 l 1,36,-1
 192 384 l 1,37,-1
 256 384 l 1,32,-1
EndSplineSet
EndChar

StartChar: macron
Encoding: 110 175 109
GlifName: macron
Width: 512
GlyphClass: 1
Flags: W
LayerCount: 2
Fore
SplineSet
384 448 m 1,0,-1
 320 448 l 1,1,-1
 256 448 l 1,2,-1
 192 448 l 1,3,-1
 128 448 l 1,4,-1
 64 448 l 1,5,-1
 64 512 l 1,6,-1
 64 576 l 1,7,-1
 128 576 l 1,8,-1
 192 576 l 1,9,-1
 256 576 l 1,10,-1
 320 576 l 1,11,-1
 384 576 l 1,12,-1
 448 576 l 1,13,-1
 448 512 l 1,14,-1
 448 448 l 1,15,-1
 384 448 l 1,0,-1
EndSplineSet
EndChar

StartChar: degree
Encoding: 111 176 110
GlifName: degree
Width: 448
GlyphClass: 1
Flags: W
LayerCount: 2
Fore
SplineSet
256 320 m 1,0,-1
 192 320 l 1,1,-1
 128 320 l 1,2,-1
 128 384 l 1,3,-1
 64 384 l 1,4,-1
 64 448 l 1,5,-1
 64 512 l 1,6,-1
 128 512 l 1,7,-1
 128 576 l 1,8,-1
 192 576 l 1,9,-1
 256 576 l 1,10,-1
 320 576 l 1,11,-1
 320 512 l 1,12,-1
 384 512 l 1,13,-1
 384 448 l 1,14,-1
 384 384 l 1,15,-1
 320 384 l 1,16,-1
 320 320 l 1,17,-1
 256 320 l 1,0,-1
256 384 m 1,18,-1
 256 448 l 1,19,-1
 256 512 l 1,20,-1
 192 512 l 1,21,-1
 192 448 l 1,22,-1
 192 384 l 1,23,-1
 256 384 l 1,18,-1
EndSplineSet
EndChar

StartChar: plusminus
Encoding: 112 177 111
GlifName: plusminus
Width: 448
GlyphClass: 1
Flags: W
LayerCount: 2
Fore
SplineSet
320 0 m 1,0,-1
 256 0 l 1,1,-1
 192 0 l 1,2,-1
 128 0 l 1,3,-1
 64 0 l 1,4,-1
 0 0 l 1,5,-1
 0 64 l 1,6,-1
 0 128 l 1,7,-1
 64 128 l 1,8,-1
 128 128 l 1,9,-1
 192 128 l 1,10,-1
 256 128 l 1,11,-1
 320 128 l 1,12,-1
 384 128 l 1,13,-1
 384 64 l 1,14,-1
 384 0 l 1,15,-1
 320 0 l 1,0,-1
192 192 m 1,16,-1
 128 192 l 1,17,-1
 128 256 l 1,18,-1
 128 320 l 1,19,-1
 64 320 l 1,20,-1
 0 320 l 1,21,-1
 0 384 l 1,22,-1
 0 448 l 1,23,-1
 64 448 l 1,24,-1
 128 448 l 1,25,-1
 128 512 l 1,26,-1
 128 576 l 1,27,-1
 192 576 l 1,28,-1
 256 576 l 1,29,-1
 256 512 l 1,30,-1
 256 448 l 1,31,-1
 320 448 l 1,32,-1
 384 448 l 1,33,-1
 384 384 l 1,34,-1
 384 320 l 1,35,-1
 320 320 l 1,36,-1
 256 320 l 1,37,-1
 256 256 l 1,38,-1
 256 192 l 1,39,-1
 192 192 l 1,16,-1
EndSplineSet
EndChar

StartChar: acute
Encoding: 113 180 112
GlifName: acute
Width: 384
GlyphClass: 1
Flags: W
LayerCount: 2
Fore
SplineSet
192 448 m 1,0,-1
 128 448 l 1,1,-1
 64 448 l 1,2,-1
 64 512 l 1,3,-1
 128 512 l 1,4,-1
 128 576 l 1,5,-1
 192 576 l 1,6,-1
 256 576 l 1,7,-1
 320 576 l 1,8,-1
 320 512 l 1,9,-1
 256 512 l 1,10,-1
 256 448 l 1,11,-1
 192 448 l 1,0,-1
EndSplineSet
EndChar

StartChar: uni00B5
Encoding: 114 181 113
GlifName: uni00B_5
Width: 448
GlyphClass: 1
Flags: W
LayerCount: 2
Fore
SplineSet
64 -128 m 1,0,-1
 0 -128 l 1,1,-1
 0 -64 l 1,2,-1
 0 0 l 1,3,-1
 0 64 l 1,4,-1
 0 128 l 1,5,-1
 0 192 l 1,6,-1
 0 256 l 1,7,-1
 0 320 l 1,8,-1
 0 384 l 1,9,-1
 64 384 l 1,10,-1
 128 384 l 1,11,-1
 128 320 l 1,12,-1
 128 256 l 1,13,-1
 128 192 l 1,14,-1
 128 128 l 1,15,-1
 192 128 l 1,16,-1
 256 128 l 1,17,-1
 256 192 l 1,18,-1
 256 256 l 1,19,-1
 256 320 l 1,20,-1
 256 384 l 1,21,-1
 320 384 l 1,22,-1
 384 384 l 1,23,-1
 384 320 l 1,24,-1
 384 256 l 1,25,-1
 384 192 l 1,26,-1
 384 128 l 1,27,-1
 384 64 l 1,28,-1
 320 64 l 1,29,-1
 320 0 l 1,30,-1
 256 0 l 1,31,-1
 192 0 l 1,32,-1
 128 0 l 1,33,-1
 128 -64 l 1,34,-1
 128 -128 l 1,35,-1
 64 -128 l 1,0,-1
EndSplineSet
EndChar

StartChar: paragraph
Encoding: 115 182 114
GlifName: paragraph
Width: 576
GlyphClass: 1
Flags: W
LayerCount: 2
Fore
SplineSet
448 -128 m 1,0,-1
 384 -128 l 1,1,-1
 384 -64 l 1,2,-1
 384 0 l 1,3,-1
 384 64 l 1,4,-1
 384 128 l 1,5,-1
 384 192 l 1,6,-1
 384 256 l 1,7,-1
 384 320 l 1,8,-1
 384 384 l 1,9,-1
 320 384 l 1,10,-1
 320 320 l 1,11,-1
 320 256 l 1,12,-1
 320 192 l 1,13,-1
 320 128 l 1,14,-1
 320 64 l 1,15,-1
 320 0 l 1,16,-1
 320 -64 l 1,17,-1
 320 -128 l 1,18,-1
 256 -128 l 1,19,-1
 192 -128 l 1,20,-1
 192 -64 l 1,21,-1
 192 0 l 1,22,-1
 192 64 l 1,23,-1
 192 128 l 1,24,-1
 192 192 l 1,25,-1
 128 192 l 1,26,-1
 64 192 l 1,27,-1
 64 256 l 1,28,-1
 0 256 l 1,29,-1
 0 320 l 1,30,-1
 0 384 l 1,31,-1
 0 448 l 1,32,-1
 64 448 l 1,33,-1
 64 512 l 1,34,-1
 128 512 l 1,35,-1
 192 512 l 1,36,-1
 256 512 l 1,37,-1
 320 512 l 1,38,-1
 384 512 l 1,39,-1
 448 512 l 1,40,-1
 512 512 l 1,41,-1
 512 448 l 1,42,-1
 512 384 l 1,43,-1
 512 320 l 1,44,-1
 512 256 l 1,45,-1
 512 192 l 1,46,-1
 512 128 l 1,47,-1
 512 64 l 1,48,-1
 512 0 l 1,49,-1
 512 -64 l 1,50,-1
 512 -128 l 1,51,-1
 448 -128 l 1,0,-1
EndSplineSet
EndChar

StartChar: periodcentered
Encoding: 116 183 115
GlifName: periodcentered
Width: 256
GlyphClass: 1
Flags: W
LayerCount: 2
Fore
SplineSet
128 192 m 1,0,-1
 64 192 l 1,1,-1
 64 256 l 1,2,-1
 64 320 l 1,3,-1
 128 320 l 1,4,-1
 192 320 l 1,5,-1
 192 256 l 1,6,-1
 192 192 l 1,7,-1
 128 192 l 1,0,-1
EndSplineSet
EndChar

StartChar: cedilla
Encoding: 117 184 116
GlifName: cedilla
Width: 320
GlyphClass: 1
Flags: W
LayerCount: 2
Fore
SplineSet
128 -128 m 1,0,-1
 64 -128 l 1,1,-1
 64 -64 l 1,2,-1
 64 0 l 1,3,-1
 128 0 l 1,4,-1
 128 64 l 1,5,-1
 192 64 l 1,6,-1
 256 64 l 1,7,-1
 256 0 l 1,8,-1
 256 -64 l 1,9,-1
 192 -64 l 1,10,-1
 192 -128 l 1,11,-1
 128 -128 l 1,0,-1
EndSplineSet
EndChar

StartChar: guillemotright
Encoding: 118 187 117
GlifName: guillemotright
Width: 576
GlyphClass: 1
Flags: W
LayerCount: 2
Fore
SplineSet
320 0 m 1,0,-1
 256 0 l 1,1,-1
 256 64 l 1,2,-1
 256 128 l 1,3,-1
 192 128 l 1,4,-1
 192 64 l 1,5,-1
 128 64 l 1,6,-1
 128 0 l 1,7,-1
 64 0 l 1,8,-1
 0 0 l 1,9,-1
 0 64 l 1,10,-1
 0 128 l 1,11,-1
 64 128 l 1,12,-1
 64 192 l 1,13,-1
 64 256 l 1,14,-1
 0 256 l 1,15,-1
 0 320 l 1,16,-1
 0 384 l 1,17,-1
 64 384 l 1,18,-1
 128 384 l 1,19,-1
 128 320 l 1,20,-1
 192 320 l 1,21,-1
 192 256 l 1,22,-1
 256 256 l 1,23,-1
 256 320 l 1,24,-1
 256 384 l 1,25,-1
 320 384 l 1,26,-1
 384 384 l 1,27,-1
 384 320 l 1,28,-1
 448 320 l 1,29,-1
 448 256 l 1,30,-1
 512 256 l 1,31,-1
 512 192 l 1,32,-1
 512 128 l 1,33,-1
 448 128 l 1,34,-1
 448 64 l 1,35,-1
 384 64 l 1,36,-1
 384 0 l 1,37,-1
 320 0 l 1,0,-1
320 128 m 1,38,-1
 320 192 l 1,39,-1
 320 256 l 1,40,-1
 256 256 l 1,41,-1
 256 192 l 1,42,-1
 256 128 l 1,43,-1
 320 128 l 1,38,-1
EndSplineSet
EndChar

StartChar: questiondown
Encoding: 119 191 118
GlifName: questiondown
Width: 448
GlyphClass: 1
Flags: W
LayerCount: 2
Fore
SplineSet
256 -64 m 1,0,-1
 192 -64 l 1,1,-1
 128 -64 l 1,2,-1
 64 -64 l 1,3,-1
 64 0 l 1,4,-1
 0 0 l 1,5,-1
 0 64 l 1,6,-1
 0 128 l 1,7,-1
 0 192 l 1,8,-1
 64 192 l 1,9,-1
 64 256 l 1,10,-1
 128 256 l 1,11,-1
 128 320 l 1,12,-1
 128 384 l 1,13,-1
 192 384 l 1,14,-1
 256 384 l 1,15,-1
 256 320 l 1,16,-1
 256 256 l 1,17,-1
 256 192 l 1,18,-1
 192 192 l 1,19,-1
 192 128 l 1,20,-1
 128 128 l 1,21,-1
 128 64 l 1,22,-1
 192 64 l 1,23,-1
 256 64 l 1,24,-1
 256 128 l 1,25,-1
 320 128 l 1,26,-1
 384 128 l 1,27,-1
 384 64 l 1,28,-1
 384 0 l 1,29,-1
 320 0 l 1,30,-1
 320 -64 l 1,31,-1
 256 -64 l 1,0,-1
192 448 m 1,32,-1
 128 448 l 1,33,-1
 128 512 l 1,34,-1
 128 576 l 1,35,-1
 192 576 l 1,36,-1
 256 576 l 1,37,-1
 256 512 l 1,38,-1
 256 448 l 1,39,-1
 192 448 l 1,32,-1
EndSplineSet
EndChar

StartChar: Agrave
Encoding: 120 192 119
GlifName: A_grave
Width: 576
GlyphClass: 1
Flags: W
LayerCount: 2
Fore
SplineSet
448 0 m 1,0,-1
 384 0 l 1,1,-1
 384 64 l 1,2,-1
 384 128 l 1,3,-1
 320 128 l 1,4,-1
 256 128 l 1,5,-1
 192 128 l 1,6,-1
 128 128 l 1,7,-1
 128 64 l 1,8,-1
 128 0 l 1,9,-1
 64 0 l 1,10,-1
 0 0 l 1,11,-1
 0 64 l 1,12,-1
 0 128 l 1,13,-1
 0 192 l 1,14,-1
 0 256 l 1,15,-1
 0 320 l 1,16,-1
 0 384 l 1,17,-1
 0 448 l 1,18,-1
 64 448 l 1,19,-1
 64 512 l 1,20,-1
 128 512 l 1,21,-1
 192 512 l 1,22,-1
 256 512 l 1,23,-1
 320 512 l 1,24,-1
 384 512 l 1,25,-1
 448 512 l 1,26,-1
 448 448 l 1,27,-1
 512 448 l 1,28,-1
 512 384 l 1,29,-1
 512 320 l 1,30,-1
 512 256 l 1,31,-1
 512 192 l 1,32,-1
 512 128 l 1,33,-1
 512 64 l 1,34,-1
 512 0 l 1,35,-1
 448 0 l 1,0,-1
320 256 m 1,36,-1
 384 256 l 1,37,-1
 384 320 l 1,38,-1
 384 384 l 1,39,-1
 320 384 l 1,40,-1
 256 384 l 1,41,-1
 192 384 l 1,42,-1
 128 384 l 1,43,-1
 128 320 l 1,44,-1
 128 256 l 1,45,-1
 192 256 l 1,46,-1
 256 256 l 1,47,-1
 320 256 l 1,36,-1
320 576 m 1,48,-1
 256 576 l 1,49,-1
 192 576 l 1,50,-1
 192 640 l 1,51,-1
 128 640 l 1,52,-1
 128 704 l 1,53,-1
 192 704 l 1,54,-1
 256 704 l 1,55,-1
 320 704 l 1,56,-1
 320 640 l 1,57,-1
 384 640 l 1,58,-1
 384 576 l 1,59,-1
 320 576 l 1,48,-1
EndSplineSet
EndChar

StartChar: Aacute
Encoding: 121 193 120
GlifName: A_acute
Width: 576
GlyphClass: 1
Flags: W
LayerCount: 2
Fore
SplineSet
448 0 m 1,0,-1
 384 0 l 1,1,-1
 384 64 l 1,2,-1
 384 128 l 1,3,-1
 320 128 l 1,4,-1
 256 128 l 1,5,-1
 192 128 l 1,6,-1
 128 128 l 1,7,-1
 128 64 l 1,8,-1
 128 0 l 1,9,-1
 64 0 l 1,10,-1
 0 0 l 1,11,-1
 0 64 l 1,12,-1
 0 128 l 1,13,-1
 0 192 l 1,14,-1
 0 256 l 1,15,-1
 0 320 l 1,16,-1
 0 384 l 1,17,-1
 0 448 l 1,18,-1
 64 448 l 1,19,-1
 64 512 l 1,20,-1
 128 512 l 1,21,-1
 192 512 l 1,22,-1
 256 512 l 1,23,-1
 320 512 l 1,24,-1
 384 512 l 1,25,-1
 448 512 l 1,26,-1
 448 448 l 1,27,-1
 512 448 l 1,28,-1
 512 384 l 1,29,-1
 512 320 l 1,30,-1
 512 256 l 1,31,-1
 512 192 l 1,32,-1
 512 128 l 1,33,-1
 512 64 l 1,34,-1
 512 0 l 1,35,-1
 448 0 l 1,0,-1
320 256 m 1,36,-1
 384 256 l 1,37,-1
 384 320 l 1,38,-1
 384 384 l 1,39,-1
 320 384 l 1,40,-1
 256 384 l 1,41,-1
 192 384 l 1,42,-1
 128 384 l 1,43,-1
 128 320 l 1,44,-1
 128 256 l 1,45,-1
 192 256 l 1,46,-1
 256 256 l 1,47,-1
 320 256 l 1,36,-1
256 576 m 1,48,-1
 192 576 l 1,49,-1
 128 576 l 1,50,-1
 128 640 l 1,51,-1
 192 640 l 1,52,-1
 192 704 l 1,53,-1
 256 704 l 1,54,-1
 320 704 l 1,55,-1
 384 704 l 1,56,-1
 384 640 l 1,57,-1
 320 640 l 1,58,-1
 320 576 l 1,59,-1
 256 576 l 1,48,-1
EndSplineSet
EndChar

StartChar: Acircumflex
Encoding: 122 194 121
GlifName: A_circumflex
Width: 576
GlyphClass: 1
Flags: W
LayerCount: 2
Fore
SplineSet
448 0 m 1,0,-1
 384 0 l 1,1,-1
 384 64 l 1,2,-1
 384 128 l 1,3,-1
 320 128 l 1,4,-1
 256 128 l 1,5,-1
 192 128 l 1,6,-1
 128 128 l 1,7,-1
 128 64 l 1,8,-1
 128 0 l 1,9,-1
 64 0 l 1,10,-1
 0 0 l 1,11,-1
 0 64 l 1,12,-1
 0 128 l 1,13,-1
 0 192 l 1,14,-1
 0 256 l 1,15,-1
 0 320 l 1,16,-1
 0 384 l 1,17,-1
 0 448 l 1,18,-1
 64 448 l 1,19,-1
 64 512 l 1,20,-1
 128 512 l 1,21,-1
 192 512 l 1,22,-1
 256 512 l 1,23,-1
 320 512 l 1,24,-1
 384 512 l 1,25,-1
 448 512 l 1,26,-1
 448 448 l 1,27,-1
 512 448 l 1,28,-1
 512 384 l 1,29,-1
 512 320 l 1,30,-1
 512 256 l 1,31,-1
 512 192 l 1,32,-1
 512 128 l 1,33,-1
 512 64 l 1,34,-1
 512 0 l 1,35,-1
 448 0 l 1,0,-1
320 256 m 1,36,-1
 384 256 l 1,37,-1
 384 320 l 1,38,-1
 384 384 l 1,39,-1
 320 384 l 1,40,-1
 256 384 l 1,41,-1
 192 384 l 1,42,-1
 128 384 l 1,43,-1
 128 320 l 1,44,-1
 128 256 l 1,45,-1
 192 256 l 1,46,-1
 256 256 l 1,47,-1
 320 256 l 1,36,-1
320 576 m 1,48,-1
 256 576 l 1,49,-1
 192 576 l 1,50,-1
 128 576 l 1,51,-1
 128 640 l 1,52,-1
 192 640 l 1,53,-1
 192 704 l 1,54,-1
 256 704 l 1,55,-1
 320 704 l 1,56,-1
 320 640 l 1,57,-1
 384 640 l 1,58,-1
 384 576 l 1,59,-1
 320 576 l 1,48,-1
EndSplineSet
EndChar

StartChar: Atilde
Encoding: 123 195 122
GlifName: A_tilde
Width: 576
GlyphClass: 1
Flags: W
LayerCount: 2
Fore
SplineSet
64 576 m 1,0,-1
 64 640 l 1,1,-1
 128 640 l 1,2,-1
 128 576 l 1,3,-1
 64 576 l 1,0,-1
448 0 m 1,4,-1
 384 0 l 1,5,-1
 384 64 l 1,6,-1
 384 128 l 1,7,-1
 320 128 l 1,8,-1
 256 128 l 1,9,-1
 192 128 l 1,10,-1
 128 128 l 1,11,-1
 128 64 l 1,12,-1
 128 0 l 1,13,-1
 64 0 l 1,14,-1
 0 0 l 1,15,-1
 0 64 l 1,16,-1
 0 128 l 1,17,-1
 0 192 l 1,18,-1
 0 256 l 1,19,-1
 0 320 l 1,20,-1
 0 384 l 1,21,-1
 0 448 l 1,22,-1
 64 448 l 1,23,-1
 64 512 l 1,24,-1
 128 512 l 1,25,-1
 192 512 l 1,26,-1
 256 512 l 1,27,-1
 320 512 l 1,28,-1
 384 512 l 1,29,-1
 448 512 l 1,30,-1
 448 448 l 1,31,-1
 512 448 l 1,32,-1
 512 384 l 1,33,-1
 512 320 l 1,34,-1
 512 256 l 1,35,-1
 512 192 l 1,36,-1
 512 128 l 1,37,-1
 512 64 l 1,38,-1
 512 0 l 1,39,-1
 448 0 l 1,4,-1
320 256 m 1,40,-1
 384 256 l 1,41,-1
 384 320 l 1,42,-1
 384 384 l 1,43,-1
 320 384 l 1,44,-1
 256 384 l 1,45,-1
 192 384 l 1,46,-1
 128 384 l 1,47,-1
 128 320 l 1,48,-1
 128 256 l 1,49,-1
 192 256 l 1,50,-1
 256 256 l 1,51,-1
 320 256 l 1,40,-1
320 576 m 1,52,-1
 256 576 l 1,53,-1
 192 576 l 1,54,-1
 192 640 l 1,55,-1
 128 640 l 1,56,-1
 128 704 l 1,57,-1
 192 704 l 1,58,-1
 256 704 l 1,59,-1
 320 704 l 1,60,-1
 320 640 l 1,61,-1
 384 640 l 1,62,-1
 384 576 l 1,63,-1
 320 576 l 1,52,-1
384 640 m 1,64,-1
 384 704 l 1,65,-1
 448 704 l 1,66,-1
 448 640 l 1,67,-1
 384 640 l 1,64,-1
EndSplineSet
EndChar

StartChar: Adieresis
Encoding: 124 196 123
GlifName: A_dieresis
Width: 576
GlyphClass: 1
Flags: W
LayerCount: 2
Fore
SplineSet
448 0 m 1,0,-1
 384 0 l 1,1,-1
 384 64 l 1,2,-1
 384 128 l 1,3,-1
 320 128 l 1,4,-1
 256 128 l 1,5,-1
 192 128 l 1,6,-1
 128 128 l 1,7,-1
 128 64 l 1,8,-1
 128 0 l 1,9,-1
 64 0 l 1,10,-1
 0 0 l 1,11,-1
 0 64 l 1,12,-1
 0 128 l 1,13,-1
 0 192 l 1,14,-1
 0 256 l 1,15,-1
 0 320 l 1,16,-1
 0 384 l 1,17,-1
 0 448 l 1,18,-1
 64 448 l 1,19,-1
 64 512 l 1,20,-1
 128 512 l 1,21,-1
 192 512 l 1,22,-1
 256 512 l 1,23,-1
 320 512 l 1,24,-1
 384 512 l 1,25,-1
 448 512 l 1,26,-1
 448 448 l 1,27,-1
 512 448 l 1,28,-1
 512 384 l 1,29,-1
 512 320 l 1,30,-1
 512 256 l 1,31,-1
 512 192 l 1,32,-1
 512 128 l 1,33,-1
 512 64 l 1,34,-1
 512 0 l 1,35,-1
 448 0 l 1,0,-1
320 256 m 1,36,-1
 384 256 l 1,37,-1
 384 320 l 1,38,-1
 384 384 l 1,39,-1
 320 384 l 1,40,-1
 256 384 l 1,41,-1
 192 384 l 1,42,-1
 128 384 l 1,43,-1
 128 320 l 1,44,-1
 128 256 l 1,45,-1
 192 256 l 1,46,-1
 256 256 l 1,47,-1
 320 256 l 1,36,-1
384 576 m 1,48,-1
 320 576 l 1,49,-1
 320 640 l 1,50,-1
 320 704 l 1,51,-1
 384 704 l 1,52,-1
 448 704 l 1,53,-1
 448 640 l 1,54,-1
 448 576 l 1,55,-1
 384 576 l 1,48,-1
128 576 m 1,56,-1
 64 576 l 1,57,-1
 64 640 l 1,58,-1
 64 704 l 1,59,-1
 128 704 l 1,60,-1
 192 704 l 1,61,-1
 192 640 l 1,62,-1
 192 576 l 1,63,-1
 128 576 l 1,56,-1
EndSplineSet
EndChar

StartChar: Aring
Encoding: 125 197 124
GlifName: A_ring
Width: 576
GlyphClass: 1
Flags: W
LayerCount: 2
Fore
SplineSet
448 0 m 1,0,-1
 384 0 l 1,1,-1
 384 64 l 1,2,-1
 384 128 l 1,3,-1
 320 128 l 1,4,-1
 256 128 l 1,5,-1
 192 128 l 1,6,-1
 128 128 l 1,7,-1
 128 64 l 1,8,-1
 128 0 l 1,9,-1
 64 0 l 1,10,-1
 0 0 l 1,11,-1
 0 64 l 1,12,-1
 0 128 l 1,13,-1
 0 192 l 1,14,-1
 0 256 l 1,15,-1
 0 320 l 1,16,-1
 0 384 l 1,17,-1
 0 448 l 1,18,-1
 64 448 l 1,19,-1
 64 512 l 1,20,-1
 128 512 l 1,21,-1
 192 512 l 1,22,-1
 192 576 l 1,23,-1
 128 576 l 1,24,-1
 128 640 l 1,25,-1
 192 640 l 1,26,-1
 192 704 l 1,27,-1
 256 704 l 1,28,-1
 320 704 l 1,29,-1
 320 640 l 1,30,-1
 384 640 l 1,31,-1
 384 576 l 1,32,-1
 320 576 l 1,33,-1
 320 512 l 1,34,-1
 384 512 l 1,35,-1
 448 512 l 1,36,-1
 448 448 l 1,37,-1
 512 448 l 1,38,-1
 512 384 l 1,39,-1
 512 320 l 1,40,-1
 512 256 l 1,41,-1
 512 192 l 1,42,-1
 512 128 l 1,43,-1
 512 64 l 1,44,-1
 512 0 l 1,45,-1
 448 0 l 1,0,-1
320 256 m 1,46,-1
 384 256 l 1,47,-1
 384 320 l 1,48,-1
 384 384 l 1,49,-1
 320 384 l 1,50,-1
 256 384 l 1,51,-1
 192 384 l 1,52,-1
 128 384 l 1,53,-1
 128 320 l 1,54,-1
 128 256 l 1,55,-1
 192 256 l 1,56,-1
 256 256 l 1,57,-1
 320 256 l 1,46,-1
EndSplineSet
EndChar

StartChar: AE
Encoding: 126 198 125
GlifName: A_E_
Width: 576
GlyphClass: 1
Flags: W
LayerCount: 2
Fore
SplineSet
448 0 m 1,0,-1
 384 0 l 1,1,-1
 320 0 l 1,2,-1
 256 0 l 1,3,-1
 256 64 l 1,4,-1
 256 128 l 1,5,-1
 192 128 l 1,6,-1
 128 128 l 1,7,-1
 128 64 l 1,8,-1
 128 0 l 1,9,-1
 64 0 l 1,10,-1
 0 0 l 1,11,-1
 0 64 l 1,12,-1
 0 128 l 1,13,-1
 0 192 l 1,14,-1
 0 256 l 1,15,-1
 0 320 l 1,16,-1
 0 384 l 1,17,-1
 0 448 l 1,18,-1
 64 448 l 1,19,-1
 64 512 l 1,20,-1
 128 512 l 1,21,-1
 192 512 l 1,22,-1
 256 512 l 1,23,-1
 320 512 l 1,24,-1
 384 512 l 1,25,-1
 448 512 l 1,26,-1
 512 512 l 1,27,-1
 512 448 l 1,28,-1
 512 384 l 1,29,-1
 448 384 l 1,30,-1
 384 384 l 1,31,-1
 384 320 l 1,32,-1
 448 320 l 1,33,-1
 512 320 l 1,34,-1
 512 256 l 1,35,-1
 512 192 l 1,36,-1
 448 192 l 1,37,-1
 384 192 l 1,38,-1
 384 128 l 1,39,-1
 448 128 l 1,40,-1
 512 128 l 1,41,-1
 512 64 l 1,42,-1
 512 0 l 1,43,-1
 448 0 l 1,0,-1
192 256 m 1,44,-1
 256 256 l 1,45,-1
 256 320 l 1,46,-1
 256 384 l 1,47,-1
 192 384 l 1,48,-1
 128 384 l 1,49,-1
 128 320 l 1,50,-1
 128 256 l 1,51,-1
 192 256 l 1,44,-1
EndSplineSet
EndChar

StartChar: Ccedilla
Encoding: 127 199 126
GlifName: C_cedilla
Width: 576
GlyphClass: 1
Flags: W
LayerCount: 2
Fore
SplineSet
192 -128 m 1,0,-1
 128 -128 l 1,1,-1
 128 -64 l 1,2,-1
 192 -64 l 1,3,-1
 192 0 l 1,4,-1
 128 0 l 1,5,-1
 64 0 l 1,6,-1
 64 64 l 1,7,-1
 0 64 l 1,8,-1
 0 128 l 1,9,-1
 0 192 l 1,10,-1
 0 256 l 1,11,-1
 0 320 l 1,12,-1
 0 384 l 1,13,-1
 0 448 l 1,14,-1
 64 448 l 1,15,-1
 64 512 l 1,16,-1
 128 512 l 1,17,-1
 192 512 l 1,18,-1
 256 512 l 1,19,-1
 320 512 l 1,20,-1
 384 512 l 1,21,-1
 448 512 l 1,22,-1
 448 448 l 1,23,-1
 512 448 l 1,24,-1
 512 384 l 1,25,-1
 512 320 l 1,26,-1
 448 320 l 1,27,-1
 384 320 l 1,28,-1
 384 384 l 1,29,-1
 320 384 l 1,30,-1
 256 384 l 1,31,-1
 192 384 l 1,32,-1
 128 384 l 1,33,-1
 128 320 l 1,34,-1
 128 256 l 1,35,-1
 128 192 l 1,36,-1
 128 128 l 1,37,-1
 192 128 l 1,38,-1
 256 128 l 1,39,-1
 320 128 l 1,40,-1
 384 128 l 1,41,-1
 384 192 l 1,42,-1
 448 192 l 1,43,-1
 512 192 l 1,44,-1
 512 128 l 1,45,-1
 512 64 l 1,46,-1
 448 64 l 1,47,-1
 448 0 l 1,48,-1
 384 0 l 1,49,-1
 320 0 l 1,50,-1
 320 -64 l 1,51,-1
 256 -64 l 1,52,-1
 256 -128 l 1,53,-1
 192 -128 l 1,0,-1
EndSplineSet
EndChar

StartChar: Egrave
Encoding: 128 200 127
GlifName: E_grave
Width: 576
GlyphClass: 1
Flags: W
LayerCount: 2
Fore
SplineSet
448 0 m 1,0,-1
 384 0 l 1,1,-1
 320 0 l 1,2,-1
 256 0 l 1,3,-1
 192 0 l 1,4,-1
 128 0 l 1,5,-1
 64 0 l 1,6,-1
 0 0 l 1,7,-1
 0 64 l 1,8,-1
 0 128 l 1,9,-1
 0 192 l 1,10,-1
 0 256 l 1,11,-1
 0 320 l 1,12,-1
 0 384 l 1,13,-1
 0 448 l 1,14,-1
 0 512 l 1,15,-1
 64 512 l 1,16,-1
 128 512 l 1,17,-1
 192 512 l 1,18,-1
 256 512 l 1,19,-1
 320 512 l 1,20,-1
 384 512 l 1,21,-1
 448 512 l 1,22,-1
 512 512 l 1,23,-1
 512 448 l 1,24,-1
 512 384 l 1,25,-1
 448 384 l 1,26,-1
 384 384 l 1,27,-1
 320 384 l 1,28,-1
 256 384 l 1,29,-1
 192 384 l 1,30,-1
 128 384 l 1,31,-1
 128 320 l 1,32,-1
 192 320 l 1,33,-1
 256 320 l 1,34,-1
 320 320 l 1,35,-1
 384 320 l 1,36,-1
 448 320 l 1,37,-1
 448 256 l 1,38,-1
 448 192 l 1,39,-1
 384 192 l 1,40,-1
 320 192 l 1,41,-1
 256 192 l 1,42,-1
 192 192 l 1,43,-1
 128 192 l 1,44,-1
 128 128 l 1,45,-1
 192 128 l 1,46,-1
 256 128 l 1,47,-1
 320 128 l 1,48,-1
 384 128 l 1,49,-1
 448 128 l 1,50,-1
 512 128 l 1,51,-1
 512 64 l 1,52,-1
 512 0 l 1,53,-1
 448 0 l 1,0,-1
320 576 m 1,54,-1
 256 576 l 1,55,-1
 192 576 l 1,56,-1
 192 640 l 1,57,-1
 128 640 l 1,58,-1
 128 704 l 1,59,-1
 192 704 l 1,60,-1
 256 704 l 1,61,-1
 320 704 l 1,62,-1
 320 640 l 1,63,-1
 384 640 l 1,64,-1
 384 576 l 1,65,-1
 320 576 l 1,54,-1
EndSplineSet
EndChar

StartChar: Eacute
Encoding: 129 201 128
GlifName: E_acute
Width: 576
GlyphClass: 1
Flags: W
LayerCount: 2
Fore
SplineSet
448 0 m 1,0,-1
 384 0 l 1,1,-1
 320 0 l 1,2,-1
 256 0 l 1,3,-1
 192 0 l 1,4,-1
 128 0 l 1,5,-1
 64 0 l 1,6,-1
 0 0 l 1,7,-1
 0 64 l 1,8,-1
 0 128 l 1,9,-1
 0 192 l 1,10,-1
 0 256 l 1,11,-1
 0 320 l 1,12,-1
 0 384 l 1,13,-1
 0 448 l 1,14,-1
 0 512 l 1,15,-1
 64 512 l 1,16,-1
 128 512 l 1,17,-1
 192 512 l 1,18,-1
 256 512 l 1,19,-1
 320 512 l 1,20,-1
 384 512 l 1,21,-1
 448 512 l 1,22,-1
 512 512 l 1,23,-1
 512 448 l 1,24,-1
 512 384 l 1,25,-1
 448 384 l 1,26,-1
 384 384 l 1,27,-1
 320 384 l 1,28,-1
 256 384 l 1,29,-1
 192 384 l 1,30,-1
 128 384 l 1,31,-1
 128 320 l 1,32,-1
 192 320 l 1,33,-1
 256 320 l 1,34,-1
 320 320 l 1,35,-1
 384 320 l 1,36,-1
 448 320 l 1,37,-1
 448 256 l 1,38,-1
 448 192 l 1,39,-1
 384 192 l 1,40,-1
 320 192 l 1,41,-1
 256 192 l 1,42,-1
 192 192 l 1,43,-1
 128 192 l 1,44,-1
 128 128 l 1,45,-1
 192 128 l 1,46,-1
 256 128 l 1,47,-1
 320 128 l 1,48,-1
 384 128 l 1,49,-1
 448 128 l 1,50,-1
 512 128 l 1,51,-1
 512 64 l 1,52,-1
 512 0 l 1,53,-1
 448 0 l 1,0,-1
256 576 m 1,54,-1
 192 576 l 1,55,-1
 128 576 l 1,56,-1
 128 640 l 1,57,-1
 192 640 l 1,58,-1
 192 704 l 1,59,-1
 256 704 l 1,60,-1
 320 704 l 1,61,-1
 384 704 l 1,62,-1
 384 640 l 1,63,-1
 320 640 l 1,64,-1
 320 576 l 1,65,-1
 256 576 l 1,54,-1
EndSplineSet
EndChar

StartChar: Ecircumflex
Encoding: 130 202 129
GlifName: E_circumflex
Width: 576
GlyphClass: 1
Flags: W
LayerCount: 2
Fore
SplineSet
448 0 m 1,0,-1
 384 0 l 1,1,-1
 320 0 l 1,2,-1
 256 0 l 1,3,-1
 192 0 l 1,4,-1
 128 0 l 1,5,-1
 64 0 l 1,6,-1
 0 0 l 1,7,-1
 0 64 l 1,8,-1
 0 128 l 1,9,-1
 0 192 l 1,10,-1
 0 256 l 1,11,-1
 0 320 l 1,12,-1
 0 384 l 1,13,-1
 0 448 l 1,14,-1
 0 512 l 1,15,-1
 64 512 l 1,16,-1
 128 512 l 1,17,-1
 192 512 l 1,18,-1
 256 512 l 1,19,-1
 320 512 l 1,20,-1
 384 512 l 1,21,-1
 448 512 l 1,22,-1
 512 512 l 1,23,-1
 512 448 l 1,24,-1
 512 384 l 1,25,-1
 448 384 l 1,26,-1
 384 384 l 1,27,-1
 320 384 l 1,28,-1
 256 384 l 1,29,-1
 192 384 l 1,30,-1
 128 384 l 1,31,-1
 128 320 l 1,32,-1
 192 320 l 1,33,-1
 256 320 l 1,34,-1
 320 320 l 1,35,-1
 384 320 l 1,36,-1
 448 320 l 1,37,-1
 448 256 l 1,38,-1
 448 192 l 1,39,-1
 384 192 l 1,40,-1
 320 192 l 1,41,-1
 256 192 l 1,42,-1
 192 192 l 1,43,-1
 128 192 l 1,44,-1
 128 128 l 1,45,-1
 192 128 l 1,46,-1
 256 128 l 1,47,-1
 320 128 l 1,48,-1
 384 128 l 1,49,-1
 448 128 l 1,50,-1
 512 128 l 1,51,-1
 512 64 l 1,52,-1
 512 0 l 1,53,-1
 448 0 l 1,0,-1
320 576 m 1,54,-1
 256 576 l 1,55,-1
 192 576 l 1,56,-1
 128 576 l 1,57,-1
 128 640 l 1,58,-1
 192 640 l 1,59,-1
 192 704 l 1,60,-1
 256 704 l 1,61,-1
 320 704 l 1,62,-1
 320 640 l 1,63,-1
 384 640 l 1,64,-1
 384 576 l 1,65,-1
 320 576 l 1,54,-1
EndSplineSet
EndChar

StartChar: Edieresis
Encoding: 131 203 130
GlifName: E_dieresis
Width: 576
GlyphClass: 1
Flags: W
LayerCount: 2
Fore
SplineSet
448 0 m 1,0,-1
 384 0 l 1,1,-1
 320 0 l 1,2,-1
 256 0 l 1,3,-1
 192 0 l 1,4,-1
 128 0 l 1,5,-1
 64 0 l 1,6,-1
 0 0 l 1,7,-1
 0 64 l 1,8,-1
 0 128 l 1,9,-1
 0 192 l 1,10,-1
 0 256 l 1,11,-1
 0 320 l 1,12,-1
 0 384 l 1,13,-1
 0 448 l 1,14,-1
 0 512 l 1,15,-1
 64 512 l 1,16,-1
 128 512 l 1,17,-1
 192 512 l 1,18,-1
 256 512 l 1,19,-1
 320 512 l 1,20,-1
 384 512 l 1,21,-1
 448 512 l 1,22,-1
 512 512 l 1,23,-1
 512 448 l 1,24,-1
 512 384 l 1,25,-1
 448 384 l 1,26,-1
 384 384 l 1,27,-1
 320 384 l 1,28,-1
 256 384 l 1,29,-1
 192 384 l 1,30,-1
 128 384 l 1,31,-1
 128 320 l 1,32,-1
 192 320 l 1,33,-1
 256 320 l 1,34,-1
 320 320 l 1,35,-1
 384 320 l 1,36,-1
 448 320 l 1,37,-1
 448 256 l 1,38,-1
 448 192 l 1,39,-1
 384 192 l 1,40,-1
 320 192 l 1,41,-1
 256 192 l 1,42,-1
 192 192 l 1,43,-1
 128 192 l 1,44,-1
 128 128 l 1,45,-1
 192 128 l 1,46,-1
 256 128 l 1,47,-1
 320 128 l 1,48,-1
 384 128 l 1,49,-1
 448 128 l 1,50,-1
 512 128 l 1,51,-1
 512 64 l 1,52,-1
 512 0 l 1,53,-1
 448 0 l 1,0,-1
384 576 m 1,54,-1
 320 576 l 1,55,-1
 320 640 l 1,56,-1
 320 704 l 1,57,-1
 384 704 l 1,58,-1
 448 704 l 1,59,-1
 448 640 l 1,60,-1
 448 576 l 1,61,-1
 384 576 l 1,54,-1
128 576 m 1,62,-1
 64 576 l 1,63,-1
 64 640 l 1,64,-1
 64 704 l 1,65,-1
 128 704 l 1,66,-1
 192 704 l 1,67,-1
 192 640 l 1,68,-1
 192 576 l 1,69,-1
 128 576 l 1,62,-1
EndSplineSet
EndChar

StartChar: Igrave
Encoding: 132 204 131
GlifName: I_grave
Width: 576
GlyphClass: 1
Flags: W
LayerCount: 2
Fore
SplineSet
448 0 m 1,0,-1
 384 0 l 1,1,-1
 320 0 l 1,2,-1
 256 0 l 1,3,-1
 192 0 l 1,4,-1
 128 0 l 1,5,-1
 64 0 l 1,6,-1
 0 0 l 1,7,-1
 0 64 l 1,8,-1
 0 128 l 1,9,-1
 64 128 l 1,10,-1
 128 128 l 1,11,-1
 192 128 l 1,12,-1
 192 192 l 1,13,-1
 192 256 l 1,14,-1
 192 320 l 1,15,-1
 192 384 l 1,16,-1
 128 384 l 1,17,-1
 64 384 l 1,18,-1
 0 384 l 1,19,-1
 0 448 l 1,20,-1
 0 512 l 1,21,-1
 64 512 l 1,22,-1
 128 512 l 1,23,-1
 192 512 l 1,24,-1
 256 512 l 1,25,-1
 320 512 l 1,26,-1
 384 512 l 1,27,-1
 448 512 l 1,28,-1
 512 512 l 1,29,-1
 512 448 l 1,30,-1
 512 384 l 1,31,-1
 448 384 l 1,32,-1
 384 384 l 1,33,-1
 320 384 l 1,34,-1
 320 320 l 1,35,-1
 320 256 l 1,36,-1
 320 192 l 1,37,-1
 320 128 l 1,38,-1
 384 128 l 1,39,-1
 448 128 l 1,40,-1
 512 128 l 1,41,-1
 512 64 l 1,42,-1
 512 0 l 1,43,-1
 448 0 l 1,0,-1
320 576 m 1,44,-1
 256 576 l 1,45,-1
 192 576 l 1,46,-1
 192 640 l 1,47,-1
 128 640 l 1,48,-1
 128 704 l 1,49,-1
 192 704 l 1,50,-1
 256 704 l 1,51,-1
 320 704 l 1,52,-1
 320 640 l 1,53,-1
 384 640 l 1,54,-1
 384 576 l 1,55,-1
 320 576 l 1,44,-1
EndSplineSet
EndChar

StartChar: Iacute
Encoding: 133 205 132
GlifName: I_acute
Width: 576
GlyphClass: 1
Flags: W
LayerCount: 2
Fore
SplineSet
448 0 m 1,0,-1
 384 0 l 1,1,-1
 320 0 l 1,2,-1
 256 0 l 1,3,-1
 192 0 l 1,4,-1
 128 0 l 1,5,-1
 64 0 l 1,6,-1
 0 0 l 1,7,-1
 0 64 l 1,8,-1
 0 128 l 1,9,-1
 64 128 l 1,10,-1
 128 128 l 1,11,-1
 192 128 l 1,12,-1
 192 192 l 1,13,-1
 192 256 l 1,14,-1
 192 320 l 1,15,-1
 192 384 l 1,16,-1
 128 384 l 1,17,-1
 64 384 l 1,18,-1
 0 384 l 1,19,-1
 0 448 l 1,20,-1
 0 512 l 1,21,-1
 64 512 l 1,22,-1
 128 512 l 1,23,-1
 192 512 l 1,24,-1
 256 512 l 1,25,-1
 320 512 l 1,26,-1
 384 512 l 1,27,-1
 448 512 l 1,28,-1
 512 512 l 1,29,-1
 512 448 l 1,30,-1
 512 384 l 1,31,-1
 448 384 l 1,32,-1
 384 384 l 1,33,-1
 320 384 l 1,34,-1
 320 320 l 1,35,-1
 320 256 l 1,36,-1
 320 192 l 1,37,-1
 320 128 l 1,38,-1
 384 128 l 1,39,-1
 448 128 l 1,40,-1
 512 128 l 1,41,-1
 512 64 l 1,42,-1
 512 0 l 1,43,-1
 448 0 l 1,0,-1
256 576 m 1,44,-1
 192 576 l 1,45,-1
 128 576 l 1,46,-1
 128 640 l 1,47,-1
 192 640 l 1,48,-1
 192 704 l 1,49,-1
 256 704 l 1,50,-1
 320 704 l 1,51,-1
 384 704 l 1,52,-1
 384 640 l 1,53,-1
 320 640 l 1,54,-1
 320 576 l 1,55,-1
 256 576 l 1,44,-1
EndSplineSet
EndChar

StartChar: Icircumflex
Encoding: 134 206 133
GlifName: I_circumflex
Width: 576
GlyphClass: 1
Flags: W
LayerCount: 2
Fore
SplineSet
448 0 m 1,0,-1
 384 0 l 1,1,-1
 320 0 l 1,2,-1
 256 0 l 1,3,-1
 192 0 l 1,4,-1
 128 0 l 1,5,-1
 64 0 l 1,6,-1
 0 0 l 1,7,-1
 0 64 l 1,8,-1
 0 128 l 1,9,-1
 64 128 l 1,10,-1
 128 128 l 1,11,-1
 192 128 l 1,12,-1
 192 192 l 1,13,-1
 192 256 l 1,14,-1
 192 320 l 1,15,-1
 192 384 l 1,16,-1
 128 384 l 1,17,-1
 64 384 l 1,18,-1
 0 384 l 1,19,-1
 0 448 l 1,20,-1
 0 512 l 1,21,-1
 64 512 l 1,22,-1
 128 512 l 1,23,-1
 192 512 l 1,24,-1
 256 512 l 1,25,-1
 320 512 l 1,26,-1
 384 512 l 1,27,-1
 448 512 l 1,28,-1
 512 512 l 1,29,-1
 512 448 l 1,30,-1
 512 384 l 1,31,-1
 448 384 l 1,32,-1
 384 384 l 1,33,-1
 320 384 l 1,34,-1
 320 320 l 1,35,-1
 320 256 l 1,36,-1
 320 192 l 1,37,-1
 320 128 l 1,38,-1
 384 128 l 1,39,-1
 448 128 l 1,40,-1
 512 128 l 1,41,-1
 512 64 l 1,42,-1
 512 0 l 1,43,-1
 448 0 l 1,0,-1
320 576 m 1,44,-1
 256 576 l 1,45,-1
 192 576 l 1,46,-1
 128 576 l 1,47,-1
 128 640 l 1,48,-1
 192 640 l 1,49,-1
 192 704 l 1,50,-1
 256 704 l 1,51,-1
 320 704 l 1,52,-1
 320 640 l 1,53,-1
 384 640 l 1,54,-1
 384 576 l 1,55,-1
 320 576 l 1,44,-1
EndSplineSet
EndChar

StartChar: Idieresis
Encoding: 135 207 134
GlifName: I_dieresis
Width: 576
GlyphClass: 1
Flags: W
LayerCount: 2
Fore
SplineSet
448 0 m 1,0,-1
 384 0 l 1,1,-1
 320 0 l 1,2,-1
 256 0 l 1,3,-1
 192 0 l 1,4,-1
 128 0 l 1,5,-1
 64 0 l 1,6,-1
 0 0 l 1,7,-1
 0 64 l 1,8,-1
 0 128 l 1,9,-1
 64 128 l 1,10,-1
 128 128 l 1,11,-1
 192 128 l 1,12,-1
 192 192 l 1,13,-1
 192 256 l 1,14,-1
 192 320 l 1,15,-1
 192 384 l 1,16,-1
 128 384 l 1,17,-1
 64 384 l 1,18,-1
 0 384 l 1,19,-1
 0 448 l 1,20,-1
 0 512 l 1,21,-1
 64 512 l 1,22,-1
 128 512 l 1,23,-1
 192 512 l 1,24,-1
 256 512 l 1,25,-1
 320 512 l 1,26,-1
 384 512 l 1,27,-1
 448 512 l 1,28,-1
 512 512 l 1,29,-1
 512 448 l 1,30,-1
 512 384 l 1,31,-1
 448 384 l 1,32,-1
 384 384 l 1,33,-1
 320 384 l 1,34,-1
 320 320 l 1,35,-1
 320 256 l 1,36,-1
 320 192 l 1,37,-1
 320 128 l 1,38,-1
 384 128 l 1,39,-1
 448 128 l 1,40,-1
 512 128 l 1,41,-1
 512 64 l 1,42,-1
 512 0 l 1,43,-1
 448 0 l 1,0,-1
384 576 m 1,44,-1
 320 576 l 1,45,-1
 320 640 l 1,46,-1
 320 704 l 1,47,-1
 384 704 l 1,48,-1
 448 704 l 1,49,-1
 448 640 l 1,50,-1
 448 576 l 1,51,-1
 384 576 l 1,44,-1
128 576 m 1,52,-1
 64 576 l 1,53,-1
 64 640 l 1,54,-1
 64 704 l 1,55,-1
 128 704 l 1,56,-1
 192 704 l 1,57,-1
 192 640 l 1,58,-1
 192 576 l 1,59,-1
 128 576 l 1,52,-1
EndSplineSet
EndChar

StartChar: Eth
Encoding: 136 208 135
GlifName: E_th
Width: 576
GlyphClass: 1
Flags: W
LayerCount: 2
Fore
SplineSet
384 0 m 1,0,-1
 320 0 l 1,1,-1
 256 0 l 1,2,-1
 192 0 l 1,3,-1
 128 0 l 1,4,-1
 64 0 l 1,5,-1
 64 64 l 1,6,-1
 64 128 l 1,7,-1
 64 192 l 1,8,-1
 0 192 l 1,9,-1
 0 256 l 1,10,-1
 0 320 l 1,11,-1
 64 320 l 1,12,-1
 64 384 l 1,13,-1
 64 448 l 1,14,-1
 64 512 l 1,15,-1
 128 512 l 1,16,-1
 192 512 l 1,17,-1
 256 512 l 1,18,-1
 320 512 l 1,19,-1
 384 512 l 1,20,-1
 448 512 l 1,21,-1
 448 448 l 1,22,-1
 512 448 l 1,23,-1
 512 384 l 1,24,-1
 512 320 l 1,25,-1
 512 256 l 1,26,-1
 512 192 l 1,27,-1
 512 128 l 1,28,-1
 512 64 l 1,29,-1
 448 64 l 1,30,-1
 448 0 l 1,31,-1
 384 0 l 1,0,-1
320 128 m 1,32,-1
 384 128 l 1,33,-1
 384 192 l 1,34,-1
 384 256 l 1,35,-1
 384 320 l 1,36,-1
 384 384 l 1,37,-1
 320 384 l 1,38,-1
 256 384 l 1,39,-1
 192 384 l 1,40,-1
 192 320 l 1,41,-1
 256 320 l 1,42,-1
 256 256 l 1,43,-1
 256 192 l 1,44,-1
 192 192 l 1,45,-1
 192 128 l 1,46,-1
 256 128 l 1,47,-1
 320 128 l 1,32,-1
EndSplineSet
EndChar

StartChar: Ntilde
Encoding: 137 209 136
GlifName: N_tilde
Width: 576
GlyphClass: 1
Flags: W
LayerCount: 2
Fore
SplineSet
64 576 m 1,0,-1
 64 640 l 1,1,-1
 128 640 l 1,2,-1
 128 576 l 1,3,-1
 64 576 l 1,0,-1
448 0 m 1,4,-1
 384 0 l 1,5,-1
 384 64 l 1,6,-1
 320 64 l 1,7,-1
 320 128 l 1,8,-1
 256 128 l 1,9,-1
 256 192 l 1,10,-1
 192 192 l 1,11,-1
 192 256 l 1,12,-1
 128 256 l 1,13,-1
 128 192 l 1,14,-1
 128 128 l 1,15,-1
 128 64 l 1,16,-1
 128 0 l 1,17,-1
 64 0 l 1,18,-1
 0 0 l 1,19,-1
 0 64 l 1,20,-1
 0 128 l 1,21,-1
 0 192 l 1,22,-1
 0 256 l 1,23,-1
 0 320 l 1,24,-1
 0 384 l 1,25,-1
 0 448 l 1,26,-1
 0 512 l 1,27,-1
 64 512 l 1,28,-1
 128 512 l 1,29,-1
 128 448 l 1,30,-1
 192 448 l 1,31,-1
 192 384 l 1,32,-1
 256 384 l 1,33,-1
 256 320 l 1,34,-1
 320 320 l 1,35,-1
 320 256 l 1,36,-1
 384 256 l 1,37,-1
 384 320 l 1,38,-1
 384 384 l 1,39,-1
 384 448 l 1,40,-1
 384 512 l 1,41,-1
 448 512 l 1,42,-1
 512 512 l 1,43,-1
 512 448 l 1,44,-1
 512 384 l 1,45,-1
 512 320 l 1,46,-1
 512 256 l 1,47,-1
 512 192 l 1,48,-1
 512 128 l 1,49,-1
 512 64 l 1,50,-1
 512 0 l 1,51,-1
 448 0 l 1,4,-1
320 576 m 1,52,-1
 256 576 l 1,53,-1
 192 576 l 1,54,-1
 192 640 l 1,55,-1
 128 640 l 1,56,-1
 128 704 l 1,57,-1
 192 704 l 1,58,-1
 256 704 l 1,59,-1
 320 704 l 1,60,-1
 320 640 l 1,61,-1
 384 640 l 1,62,-1
 384 576 l 1,63,-1
 320 576 l 1,52,-1
384 640 m 1,64,-1
 384 704 l 1,65,-1
 448 704 l 1,66,-1
 448 640 l 1,67,-1
 384 640 l 1,64,-1
EndSplineSet
EndChar

StartChar: Ograve
Encoding: 138 210 137
GlifName: O_grave
Width: 576
GlyphClass: 1
Flags: W
LayerCount: 2
Fore
SplineSet
384 0 m 1,0,-1
 320 0 l 1,1,-1
 256 0 l 1,2,-1
 192 0 l 1,3,-1
 128 0 l 1,4,-1
 64 0 l 1,5,-1
 64 64 l 1,6,-1
 0 64 l 1,7,-1
 0 128 l 1,8,-1
 0 192 l 1,9,-1
 0 256 l 1,10,-1
 0 320 l 1,11,-1
 0 384 l 1,12,-1
 0 448 l 1,13,-1
 64 448 l 1,14,-1
 64 512 l 1,15,-1
 128 512 l 1,16,-1
 192 512 l 1,17,-1
 256 512 l 1,18,-1
 320 512 l 1,19,-1
 384 512 l 1,20,-1
 448 512 l 1,21,-1
 448 448 l 1,22,-1
 512 448 l 1,23,-1
 512 384 l 1,24,-1
 512 320 l 1,25,-1
 512 256 l 1,26,-1
 512 192 l 1,27,-1
 512 128 l 1,28,-1
 512 64 l 1,29,-1
 448 64 l 1,30,-1
 448 0 l 1,31,-1
 384 0 l 1,0,-1
320 128 m 1,32,-1
 384 128 l 1,33,-1
 384 192 l 1,34,-1
 384 256 l 1,35,-1
 384 320 l 1,36,-1
 384 384 l 1,37,-1
 320 384 l 1,38,-1
 256 384 l 1,39,-1
 192 384 l 1,40,-1
 128 384 l 1,41,-1
 128 320 l 1,42,-1
 128 256 l 1,43,-1
 128 192 l 1,44,-1
 128 128 l 1,45,-1
 192 128 l 1,46,-1
 256 128 l 1,47,-1
 320 128 l 1,32,-1
320 576 m 1,48,-1
 256 576 l 1,49,-1
 192 576 l 1,50,-1
 192 640 l 1,51,-1
 128 640 l 1,52,-1
 128 704 l 1,53,-1
 192 704 l 1,54,-1
 256 704 l 1,55,-1
 320 704 l 1,56,-1
 320 640 l 1,57,-1
 384 640 l 1,58,-1
 384 576 l 1,59,-1
 320 576 l 1,48,-1
EndSplineSet
EndChar

StartChar: Oacute
Encoding: 139 211 138
GlifName: O_acute
Width: 576
GlyphClass: 1
Flags: W
LayerCount: 2
Fore
SplineSet
384 0 m 1,0,-1
 320 0 l 1,1,-1
 256 0 l 1,2,-1
 192 0 l 1,3,-1
 128 0 l 1,4,-1
 64 0 l 1,5,-1
 64 64 l 1,6,-1
 0 64 l 1,7,-1
 0 128 l 1,8,-1
 0 192 l 1,9,-1
 0 256 l 1,10,-1
 0 320 l 1,11,-1
 0 384 l 1,12,-1
 0 448 l 1,13,-1
 64 448 l 1,14,-1
 64 512 l 1,15,-1
 128 512 l 1,16,-1
 192 512 l 1,17,-1
 256 512 l 1,18,-1
 320 512 l 1,19,-1
 384 512 l 1,20,-1
 448 512 l 1,21,-1
 448 448 l 1,22,-1
 512 448 l 1,23,-1
 512 384 l 1,24,-1
 512 320 l 1,25,-1
 512 256 l 1,26,-1
 512 192 l 1,27,-1
 512 128 l 1,28,-1
 512 64 l 1,29,-1
 448 64 l 1,30,-1
 448 0 l 1,31,-1
 384 0 l 1,0,-1
320 128 m 1,32,-1
 384 128 l 1,33,-1
 384 192 l 1,34,-1
 384 256 l 1,35,-1
 384 320 l 1,36,-1
 384 384 l 1,37,-1
 320 384 l 1,38,-1
 256 384 l 1,39,-1
 192 384 l 1,40,-1
 128 384 l 1,41,-1
 128 320 l 1,42,-1
 128 256 l 1,43,-1
 128 192 l 1,44,-1
 128 128 l 1,45,-1
 192 128 l 1,46,-1
 256 128 l 1,47,-1
 320 128 l 1,32,-1
256 576 m 1,48,-1
 192 576 l 1,49,-1
 128 576 l 1,50,-1
 128 640 l 1,51,-1
 192 640 l 1,52,-1
 192 704 l 1,53,-1
 256 704 l 1,54,-1
 320 704 l 1,55,-1
 384 704 l 1,56,-1
 384 640 l 1,57,-1
 320 640 l 1,58,-1
 320 576 l 1,59,-1
 256 576 l 1,48,-1
EndSplineSet
EndChar

StartChar: Ocircumflex
Encoding: 140 212 139
GlifName: O_circumflex
Width: 576
GlyphClass: 1
Flags: W
LayerCount: 2
Fore
SplineSet
384 0 m 1,0,-1
 320 0 l 1,1,-1
 256 0 l 1,2,-1
 192 0 l 1,3,-1
 128 0 l 1,4,-1
 64 0 l 1,5,-1
 64 64 l 1,6,-1
 0 64 l 1,7,-1
 0 128 l 1,8,-1
 0 192 l 1,9,-1
 0 256 l 1,10,-1
 0 320 l 1,11,-1
 0 384 l 1,12,-1
 0 448 l 1,13,-1
 64 448 l 1,14,-1
 64 512 l 1,15,-1
 128 512 l 1,16,-1
 192 512 l 1,17,-1
 256 512 l 1,18,-1
 320 512 l 1,19,-1
 384 512 l 1,20,-1
 448 512 l 1,21,-1
 448 448 l 1,22,-1
 512 448 l 1,23,-1
 512 384 l 1,24,-1
 512 320 l 1,25,-1
 512 256 l 1,26,-1
 512 192 l 1,27,-1
 512 128 l 1,28,-1
 512 64 l 1,29,-1
 448 64 l 1,30,-1
 448 0 l 1,31,-1
 384 0 l 1,0,-1
320 128 m 1,32,-1
 384 128 l 1,33,-1
 384 192 l 1,34,-1
 384 256 l 1,35,-1
 384 320 l 1,36,-1
 384 384 l 1,37,-1
 320 384 l 1,38,-1
 256 384 l 1,39,-1
 192 384 l 1,40,-1
 128 384 l 1,41,-1
 128 320 l 1,42,-1
 128 256 l 1,43,-1
 128 192 l 1,44,-1
 128 128 l 1,45,-1
 192 128 l 1,46,-1
 256 128 l 1,47,-1
 320 128 l 1,32,-1
320 576 m 1,48,-1
 256 576 l 1,49,-1
 192 576 l 1,50,-1
 128 576 l 1,51,-1
 128 640 l 1,52,-1
 192 640 l 1,53,-1
 192 704 l 1,54,-1
 256 704 l 1,55,-1
 320 704 l 1,56,-1
 320 640 l 1,57,-1
 384 640 l 1,58,-1
 384 576 l 1,59,-1
 320 576 l 1,48,-1
EndSplineSet
EndChar

StartChar: Otilde
Encoding: 141 213 140
GlifName: O_tilde
Width: 576
GlyphClass: 1
Flags: W
LayerCount: 2
Fore
SplineSet
64 576 m 1,0,-1
 64 640 l 1,1,-1
 128 640 l 1,2,-1
 128 576 l 1,3,-1
 64 576 l 1,0,-1
384 0 m 1,4,-1
 320 0 l 1,5,-1
 256 0 l 1,6,-1
 192 0 l 1,7,-1
 128 0 l 1,8,-1
 64 0 l 1,9,-1
 64 64 l 1,10,-1
 0 64 l 1,11,-1
 0 128 l 1,12,-1
 0 192 l 1,13,-1
 0 256 l 1,14,-1
 0 320 l 1,15,-1
 0 384 l 1,16,-1
 0 448 l 1,17,-1
 64 448 l 1,18,-1
 64 512 l 1,19,-1
 128 512 l 1,20,-1
 192 512 l 1,21,-1
 256 512 l 1,22,-1
 320 512 l 1,23,-1
 384 512 l 1,24,-1
 448 512 l 1,25,-1
 448 448 l 1,26,-1
 512 448 l 1,27,-1
 512 384 l 1,28,-1
 512 320 l 1,29,-1
 512 256 l 1,30,-1
 512 192 l 1,31,-1
 512 128 l 1,32,-1
 512 64 l 1,33,-1
 448 64 l 1,34,-1
 448 0 l 1,35,-1
 384 0 l 1,4,-1
320 128 m 1,36,-1
 384 128 l 1,37,-1
 384 192 l 1,38,-1
 384 256 l 1,39,-1
 384 320 l 1,40,-1
 384 384 l 1,41,-1
 320 384 l 1,42,-1
 256 384 l 1,43,-1
 192 384 l 1,44,-1
 128 384 l 1,45,-1
 128 320 l 1,46,-1
 128 256 l 1,47,-1
 128 192 l 1,48,-1
 128 128 l 1,49,-1
 192 128 l 1,50,-1
 256 128 l 1,51,-1
 320 128 l 1,36,-1
320 576 m 1,52,-1
 256 576 l 1,53,-1
 192 576 l 1,54,-1
 192 640 l 1,55,-1
 128 640 l 1,56,-1
 128 704 l 1,57,-1
 192 704 l 1,58,-1
 256 704 l 1,59,-1
 320 704 l 1,60,-1
 320 640 l 1,61,-1
 384 640 l 1,62,-1
 384 576 l 1,63,-1
 320 576 l 1,52,-1
384 640 m 1,64,-1
 384 704 l 1,65,-1
 448 704 l 1,66,-1
 448 640 l 1,67,-1
 384 640 l 1,64,-1
EndSplineSet
EndChar

StartChar: Odieresis
Encoding: 142 214 141
GlifName: O_dieresis
Width: 576
GlyphClass: 1
Flags: W
LayerCount: 2
Fore
SplineSet
384 0 m 1,0,-1
 320 0 l 1,1,-1
 256 0 l 1,2,-1
 192 0 l 1,3,-1
 128 0 l 1,4,-1
 64 0 l 1,5,-1
 64 64 l 1,6,-1
 0 64 l 1,7,-1
 0 128 l 1,8,-1
 0 192 l 1,9,-1
 0 256 l 1,10,-1
 0 320 l 1,11,-1
 0 384 l 1,12,-1
 0 448 l 1,13,-1
 64 448 l 1,14,-1
 64 512 l 1,15,-1
 128 512 l 1,16,-1
 192 512 l 1,17,-1
 256 512 l 1,18,-1
 320 512 l 1,19,-1
 384 512 l 1,20,-1
 448 512 l 1,21,-1
 448 448 l 1,22,-1
 512 448 l 1,23,-1
 512 384 l 1,24,-1
 512 320 l 1,25,-1
 512 256 l 1,26,-1
 512 192 l 1,27,-1
 512 128 l 1,28,-1
 512 64 l 1,29,-1
 448 64 l 1,30,-1
 448 0 l 1,31,-1
 384 0 l 1,0,-1
320 128 m 1,32,-1
 384 128 l 1,33,-1
 384 192 l 1,34,-1
 384 256 l 1,35,-1
 384 320 l 1,36,-1
 384 384 l 1,37,-1
 320 384 l 1,38,-1
 256 384 l 1,39,-1
 192 384 l 1,40,-1
 128 384 l 1,41,-1
 128 320 l 1,42,-1
 128 256 l 1,43,-1
 128 192 l 1,44,-1
 128 128 l 1,45,-1
 192 128 l 1,46,-1
 256 128 l 1,47,-1
 320 128 l 1,32,-1
384 576 m 1,48,-1
 320 576 l 1,49,-1
 320 640 l 1,50,-1
 320 704 l 1,51,-1
 384 704 l 1,52,-1
 448 704 l 1,53,-1
 448 640 l 1,54,-1
 448 576 l 1,55,-1
 384 576 l 1,48,-1
128 576 m 1,56,-1
 64 576 l 1,57,-1
 64 640 l 1,58,-1
 64 704 l 1,59,-1
 128 704 l 1,60,-1
 192 704 l 1,61,-1
 192 640 l 1,62,-1
 192 576 l 1,63,-1
 128 576 l 1,56,-1
EndSplineSet
EndChar

StartChar: multiply
Encoding: 143 215 142
GlifName: multiply
Width: 512
GlyphClass: 1
Flags: W
LayerCount: 2
Fore
SplineSet
384 0 m 1,0,-1
 320 0 l 1,1,-1
 320 64 l 1,2,-1
 256 64 l 1,3,-1
 256 128 l 1,4,-1
 192 128 l 1,5,-1
 192 64 l 1,6,-1
 128 64 l 1,7,-1
 128 0 l 1,8,-1
 64 0 l 1,9,-1
 0 0 l 1,10,-1
 0 64 l 1,11,-1
 0 128 l 1,12,-1
 64 128 l 1,13,-1
 64 192 l 1,14,-1
 128 192 l 1,15,-1
 128 256 l 1,16,-1
 64 256 l 1,17,-1
 64 320 l 1,18,-1
 0 320 l 1,19,-1
 0 384 l 1,20,-1
 0 448 l 1,21,-1
 64 448 l 1,22,-1
 128 448 l 1,23,-1
 128 384 l 1,24,-1
 192 384 l 1,25,-1
 192 320 l 1,26,-1
 256 320 l 1,27,-1
 256 384 l 1,28,-1
 320 384 l 1,29,-1
 320 448 l 1,30,-1
 384 448 l 1,31,-1
 448 448 l 1,32,-1
 448 384 l 1,33,-1
 448 320 l 1,34,-1
 384 320 l 1,35,-1
 384 256 l 1,36,-1
 320 256 l 1,37,-1
 320 192 l 1,38,-1
 384 192 l 1,39,-1
 384 128 l 1,40,-1
 448 128 l 1,41,-1
 448 64 l 1,42,-1
 448 0 l 1,43,-1
 384 0 l 1,0,-1
EndSplineSet
EndChar

StartChar: Oslash
Encoding: 144 216 143
GlifName: O_slash
Width: 576
GlyphClass: 1
Flags: W
LayerCount: 2
Fore
SplineSet
64 -64 m 1,0,-1
 0 -64 l 1,1,-1
 0 0 l 1,2,-1
 0 64 l 1,3,-1
 64 64 l 1,4,-1
 64 128 l 1,5,-1
 0 128 l 1,6,-1
 0 192 l 1,7,-1
 0 256 l 1,8,-1
 0 320 l 1,9,-1
 0 384 l 1,10,-1
 0 448 l 1,11,-1
 64 448 l 1,12,-1
 64 512 l 1,13,-1
 128 512 l 1,14,-1
 192 512 l 1,15,-1
 256 512 l 1,16,-1
 320 512 l 1,17,-1
 384 512 l 1,18,-1
 384 576 l 1,19,-1
 448 576 l 1,20,-1
 512 576 l 1,21,-1
 512 512 l 1,22,-1
 512 448 l 1,23,-1
 448 448 l 1,24,-1
 448 384 l 1,25,-1
 512 384 l 1,26,-1
 512 320 l 1,27,-1
 512 256 l 1,28,-1
 512 192 l 1,29,-1
 512 128 l 1,30,-1
 512 64 l 1,31,-1
 448 64 l 1,32,-1
 448 0 l 1,33,-1
 384 0 l 1,34,-1
 320 0 l 1,35,-1
 256 0 l 1,36,-1
 192 0 l 1,37,-1
 128 0 l 1,38,-1
 128 -64 l 1,39,-1
 64 -64 l 1,0,-1
320 128 m 1,40,-1
 384 128 l 1,41,-1
 384 192 l 1,42,-1
 384 256 l 1,43,-1
 320 256 l 1,44,-1
 320 192 l 1,45,-1
 256 192 l 1,46,-1
 256 128 l 1,47,-1
 320 128 l 1,40,-1
192 256 m 1,48,-1
 192 320 l 1,49,-1
 256 320 l 1,50,-1
 256 384 l 1,51,-1
 192 384 l 1,52,-1
 128 384 l 1,53,-1
 128 320 l 1,54,-1
 128 256 l 1,55,-1
 192 256 l 1,48,-1
EndSplineSet
EndChar

StartChar: Ugrave
Encoding: 145 217 144
GlifName: U_grave
Width: 576
GlyphClass: 1
Flags: W
LayerCount: 2
Fore
SplineSet
384 0 m 1,0,-1
 320 0 l 1,1,-1
 256 0 l 1,2,-1
 192 0 l 1,3,-1
 128 0 l 1,4,-1
 64 0 l 1,5,-1
 64 64 l 1,6,-1
 0 64 l 1,7,-1
 0 128 l 1,8,-1
 0 192 l 1,9,-1
 0 256 l 1,10,-1
 0 320 l 1,11,-1
 0 384 l 1,12,-1
 0 448 l 1,13,-1
 0 512 l 1,14,-1
 64 512 l 1,15,-1
 128 512 l 1,16,-1
 128 448 l 1,17,-1
 128 384 l 1,18,-1
 128 320 l 1,19,-1
 128 256 l 1,20,-1
 128 192 l 1,21,-1
 128 128 l 1,22,-1
 192 128 l 1,23,-1
 256 128 l 1,24,-1
 320 128 l 1,25,-1
 384 128 l 1,26,-1
 384 192 l 1,27,-1
 384 256 l 1,28,-1
 384 320 l 1,29,-1
 384 384 l 1,30,-1
 384 448 l 1,31,-1
 384 512 l 1,32,-1
 448 512 l 1,33,-1
 512 512 l 1,34,-1
 512 448 l 1,35,-1
 512 384 l 1,36,-1
 512 320 l 1,37,-1
 512 256 l 1,38,-1
 512 192 l 1,39,-1
 512 128 l 1,40,-1
 512 64 l 1,41,-1
 448 64 l 1,42,-1
 448 0 l 1,43,-1
 384 0 l 1,0,-1
320 576 m 1,44,-1
 256 576 l 1,45,-1
 192 576 l 1,46,-1
 192 640 l 1,47,-1
 128 640 l 1,48,-1
 128 704 l 1,49,-1
 192 704 l 1,50,-1
 256 704 l 1,51,-1
 320 704 l 1,52,-1
 320 640 l 1,53,-1
 384 640 l 1,54,-1
 384 576 l 1,55,-1
 320 576 l 1,44,-1
EndSplineSet
EndChar

StartChar: Uacute
Encoding: 146 218 145
GlifName: U_acute
Width: 576
GlyphClass: 1
Flags: W
LayerCount: 2
Fore
SplineSet
384 0 m 1,0,-1
 320 0 l 1,1,-1
 256 0 l 1,2,-1
 192 0 l 1,3,-1
 128 0 l 1,4,-1
 64 0 l 1,5,-1
 64 64 l 1,6,-1
 0 64 l 1,7,-1
 0 128 l 1,8,-1
 0 192 l 1,9,-1
 0 256 l 1,10,-1
 0 320 l 1,11,-1
 0 384 l 1,12,-1
 0 448 l 1,13,-1
 0 512 l 1,14,-1
 64 512 l 1,15,-1
 128 512 l 1,16,-1
 128 448 l 1,17,-1
 128 384 l 1,18,-1
 128 320 l 1,19,-1
 128 256 l 1,20,-1
 128 192 l 1,21,-1
 128 128 l 1,22,-1
 192 128 l 1,23,-1
 256 128 l 1,24,-1
 320 128 l 1,25,-1
 384 128 l 1,26,-1
 384 192 l 1,27,-1
 384 256 l 1,28,-1
 384 320 l 1,29,-1
 384 384 l 1,30,-1
 384 448 l 1,31,-1
 384 512 l 1,32,-1
 448 512 l 1,33,-1
 512 512 l 1,34,-1
 512 448 l 1,35,-1
 512 384 l 1,36,-1
 512 320 l 1,37,-1
 512 256 l 1,38,-1
 512 192 l 1,39,-1
 512 128 l 1,40,-1
 512 64 l 1,41,-1
 448 64 l 1,42,-1
 448 0 l 1,43,-1
 384 0 l 1,0,-1
256 576 m 1,44,-1
 192 576 l 1,45,-1
 128 576 l 1,46,-1
 128 640 l 1,47,-1
 192 640 l 1,48,-1
 192 704 l 1,49,-1
 256 704 l 1,50,-1
 320 704 l 1,51,-1
 384 704 l 1,52,-1
 384 640 l 1,53,-1
 320 640 l 1,54,-1
 320 576 l 1,55,-1
 256 576 l 1,44,-1
EndSplineSet
EndChar

StartChar: Ucircumflex
Encoding: 147 219 146
GlifName: U_circumflex
Width: 576
GlyphClass: 1
Flags: W
LayerCount: 2
Fore
SplineSet
384 0 m 1,0,-1
 320 0 l 1,1,-1
 256 0 l 1,2,-1
 192 0 l 1,3,-1
 128 0 l 1,4,-1
 64 0 l 1,5,-1
 64 64 l 1,6,-1
 0 64 l 1,7,-1
 0 128 l 1,8,-1
 0 192 l 1,9,-1
 0 256 l 1,10,-1
 0 320 l 1,11,-1
 0 384 l 1,12,-1
 0 448 l 1,13,-1
 0 512 l 1,14,-1
 64 512 l 1,15,-1
 128 512 l 1,16,-1
 128 448 l 1,17,-1
 128 384 l 1,18,-1
 128 320 l 1,19,-1
 128 256 l 1,20,-1
 128 192 l 1,21,-1
 128 128 l 1,22,-1
 192 128 l 1,23,-1
 256 128 l 1,24,-1
 320 128 l 1,25,-1
 384 128 l 1,26,-1
 384 192 l 1,27,-1
 384 256 l 1,28,-1
 384 320 l 1,29,-1
 384 384 l 1,30,-1
 384 448 l 1,31,-1
 384 512 l 1,32,-1
 448 512 l 1,33,-1
 512 512 l 1,34,-1
 512 448 l 1,35,-1
 512 384 l 1,36,-1
 512 320 l 1,37,-1
 512 256 l 1,38,-1
 512 192 l 1,39,-1
 512 128 l 1,40,-1
 512 64 l 1,41,-1
 448 64 l 1,42,-1
 448 0 l 1,43,-1
 384 0 l 1,0,-1
320 576 m 1,44,-1
 256 576 l 1,45,-1
 192 576 l 1,46,-1
 128 576 l 1,47,-1
 128 640 l 1,48,-1
 192 640 l 1,49,-1
 192 704 l 1,50,-1
 256 704 l 1,51,-1
 320 704 l 1,52,-1
 320 640 l 1,53,-1
 384 640 l 1,54,-1
 384 576 l 1,55,-1
 320 576 l 1,44,-1
EndSplineSet
EndChar

StartChar: Udieresis
Encoding: 148 220 147
GlifName: U_dieresis
Width: 576
GlyphClass: 1
Flags: W
LayerCount: 2
Fore
SplineSet
384 0 m 1,0,-1
 320 0 l 1,1,-1
 256 0 l 1,2,-1
 192 0 l 1,3,-1
 128 0 l 1,4,-1
 64 0 l 1,5,-1
 64 64 l 1,6,-1
 0 64 l 1,7,-1
 0 128 l 1,8,-1
 0 192 l 1,9,-1
 0 256 l 1,10,-1
 0 320 l 1,11,-1
 0 384 l 1,12,-1
 0 448 l 1,13,-1
 0 512 l 1,14,-1
 64 512 l 1,15,-1
 128 512 l 1,16,-1
 128 448 l 1,17,-1
 128 384 l 1,18,-1
 128 320 l 1,19,-1
 128 256 l 1,20,-1
 128 192 l 1,21,-1
 128 128 l 1,22,-1
 192 128 l 1,23,-1
 256 128 l 1,24,-1
 320 128 l 1,25,-1
 384 128 l 1,26,-1
 384 192 l 1,27,-1
 384 256 l 1,28,-1
 384 320 l 1,29,-1
 384 384 l 1,30,-1
 384 448 l 1,31,-1
 384 512 l 1,32,-1
 448 512 l 1,33,-1
 512 512 l 1,34,-1
 512 448 l 1,35,-1
 512 384 l 1,36,-1
 512 320 l 1,37,-1
 512 256 l 1,38,-1
 512 192 l 1,39,-1
 512 128 l 1,40,-1
 512 64 l 1,41,-1
 448 64 l 1,42,-1
 448 0 l 1,43,-1
 384 0 l 1,0,-1
384 576 m 1,44,-1
 320 576 l 1,45,-1
 320 640 l 1,46,-1
 320 704 l 1,47,-1
 384 704 l 1,48,-1
 448 704 l 1,49,-1
 448 640 l 1,50,-1
 448 576 l 1,51,-1
 384 576 l 1,44,-1
128 576 m 1,52,-1
 64 576 l 1,53,-1
 64 640 l 1,54,-1
 64 704 l 1,55,-1
 128 704 l 1,56,-1
 192 704 l 1,57,-1
 192 640 l 1,58,-1
 192 576 l 1,59,-1
 128 576 l 1,52,-1
EndSplineSet
EndChar

StartChar: Yacute
Encoding: 149 221 148
GlifName: Y_acute
Width: 576
GlyphClass: 1
Flags: W
LayerCount: 2
Fore
SplineSet
256 0 m 1,0,-1
 192 0 l 1,1,-1
 192 64 l 1,2,-1
 192 128 l 1,3,-1
 192 192 l 1,4,-1
 128 192 l 1,5,-1
 128 256 l 1,6,-1
 64 256 l 1,7,-1
 64 320 l 1,8,-1
 0 320 l 1,9,-1
 0 384 l 1,10,-1
 0 448 l 1,11,-1
 0 512 l 1,12,-1
 64 512 l 1,13,-1
 128 512 l 1,14,-1
 128 448 l 1,15,-1
 128 384 l 1,16,-1
 192 384 l 1,17,-1
 192 320 l 1,18,-1
 256 320 l 1,19,-1
 320 320 l 1,20,-1
 320 384 l 1,21,-1
 384 384 l 1,22,-1
 384 448 l 1,23,-1
 384 512 l 1,24,-1
 448 512 l 1,25,-1
 512 512 l 1,26,-1
 512 448 l 1,27,-1
 512 384 l 1,28,-1
 512 320 l 1,29,-1
 448 320 l 1,30,-1
 448 256 l 1,31,-1
 384 256 l 1,32,-1
 384 192 l 1,33,-1
 320 192 l 1,34,-1
 320 128 l 1,35,-1
 320 64 l 1,36,-1
 320 0 l 1,37,-1
 256 0 l 1,0,-1
256 576 m 1,38,-1
 192 576 l 1,39,-1
 128 576 l 1,40,-1
 128 640 l 1,41,-1
 192 640 l 1,42,-1
 192 704 l 1,43,-1
 256 704 l 1,44,-1
 320 704 l 1,45,-1
 384 704 l 1,46,-1
 384 640 l 1,47,-1
 320 640 l 1,48,-1
 320 576 l 1,49,-1
 256 576 l 1,38,-1
EndSplineSet
EndChar

StartChar: Thorn
Encoding: 150 222 149
GlifName: T_horn
Width: 576
GlyphClass: 1
Flags: W
LayerCount: 2
Fore
SplineSet
64 -128 m 1,0,-1
 0 -128 l 1,1,-1
 0 -64 l 1,2,-1
 0 0 l 1,3,-1
 0 64 l 1,4,-1
 0 128 l 1,5,-1
 0 192 l 1,6,-1
 0 256 l 1,7,-1
 0 320 l 1,8,-1
 0 384 l 1,9,-1
 0 448 l 1,10,-1
 0 512 l 1,11,-1
 0 576 l 1,12,-1
 64 576 l 1,13,-1
 128 576 l 1,14,-1
 128 512 l 1,15,-1
 128 448 l 1,16,-1
 192 448 l 1,17,-1
 256 448 l 1,18,-1
 320 448 l 1,19,-1
 384 448 l 1,20,-1
 448 448 l 1,21,-1
 448 384 l 1,22,-1
 512 384 l 1,23,-1
 512 320 l 1,24,-1
 512 256 l 1,25,-1
 512 192 l 1,26,-1
 512 128 l 1,27,-1
 512 64 l 1,28,-1
 448 64 l 1,29,-1
 448 0 l 1,30,-1
 384 0 l 1,31,-1
 320 0 l 1,32,-1
 256 0 l 1,33,-1
 192 0 l 1,34,-1
 128 0 l 1,35,-1
 128 -64 l 1,36,-1
 128 -128 l 1,37,-1
 64 -128 l 1,0,-1
320 128 m 1,38,-1
 384 128 l 1,39,-1
 384 192 l 1,40,-1
 384 256 l 1,41,-1
 384 320 l 1,42,-1
 320 320 l 1,43,-1
 256 320 l 1,44,-1
 192 320 l 1,45,-1
 128 320 l 1,46,-1
 128 256 l 1,47,-1
 128 192 l 1,48,-1
 128 128 l 1,49,-1
 192 128 l 1,50,-1
 256 128 l 1,51,-1
 320 128 l 1,38,-1
EndSplineSet
EndChar

StartChar: germandbls
Encoding: 151 223 150
GlifName: germandbls
Width: 512
GlyphClass: 1
Flags: W
LayerCount: 2
Fore
SplineSet
320 0 m 1,0,-1
 256 0 l 1,1,-1
 192 0 l 1,2,-1
 192 64 l 1,3,-1
 192 128 l 1,4,-1
 256 128 l 1,5,-1
 320 128 l 1,6,-1
 320 192 l 1,7,-1
 256 192 l 1,8,-1
 192 192 l 1,9,-1
 192 256 l 1,10,-1
 192 320 l 1,11,-1
 256 320 l 1,12,-1
 256 384 l 1,13,-1
 192 384 l 1,14,-1
 128 384 l 1,15,-1
 128 320 l 1,16,-1
 128 256 l 1,17,-1
 128 192 l 1,18,-1
 128 128 l 1,19,-1
 128 64 l 1,20,-1
 128 0 l 1,21,-1
 64 0 l 1,22,-1
 0 0 l 1,23,-1
 0 64 l 1,24,-1
 0 128 l 1,25,-1
 0 192 l 1,26,-1
 0 256 l 1,27,-1
 0 320 l 1,28,-1
 0 384 l 1,29,-1
 0 448 l 1,30,-1
 64 448 l 1,31,-1
 64 512 l 1,32,-1
 128 512 l 1,33,-1
 192 512 l 1,34,-1
 256 512 l 1,35,-1
 320 512 l 1,36,-1
 320 448 l 1,37,-1
 384 448 l 1,38,-1
 384 384 l 1,39,-1
 384 320 l 1,40,-1
 384 256 l 1,41,-1
 448 256 l 1,42,-1
 448 192 l 1,43,-1
 448 128 l 1,44,-1
 448 64 l 1,45,-1
 384 64 l 1,46,-1
 384 0 l 1,47,-1
 320 0 l 1,0,-1
EndSplineSet
EndChar

StartChar: agrave
Encoding: 152 224 151
GlifName: agrave
Width: 448
GlyphClass: 1
Flags: W
LayerCount: 2
Fore
SplineSet
320 0 m 1,0,-1
 256 0 l 1,1,-1
 192 0 l 1,2,-1
 128 0 l 1,3,-1
 64 0 l 1,4,-1
 64 64 l 1,5,-1
 0 64 l 1,6,-1
 0 128 l 1,7,-1
 0 192 l 1,8,-1
 0 256 l 1,9,-1
 64 256 l 1,10,-1
 128 256 l 1,11,-1
 192 256 l 1,12,-1
 256 256 l 1,13,-1
 256 320 l 1,14,-1
 192 320 l 1,15,-1
 128 320 l 1,16,-1
 64 320 l 1,17,-1
 0 320 l 1,18,-1
 0 384 l 1,19,-1
 0 448 l 1,20,-1
 64 448 l 1,21,-1
 128 448 l 1,22,-1
 192 448 l 1,23,-1
 256 448 l 1,24,-1
 320 448 l 1,25,-1
 320 384 l 1,26,-1
 384 384 l 1,27,-1
 384 320 l 1,28,-1
 384 256 l 1,29,-1
 384 192 l 1,30,-1
 384 128 l 1,31,-1
 384 64 l 1,32,-1
 384 0 l 1,33,-1
 320 0 l 1,0,-1
192 128 m 1,34,-1
 256 128 l 1,35,-1
 256 192 l 1,36,-1
 192 192 l 1,37,-1
 128 192 l 1,38,-1
 128 128 l 1,39,-1
 192 128 l 1,34,-1
256 512 m 1,40,-1
 192 512 l 1,41,-1
 128 512 l 1,42,-1
 128 576 l 1,43,-1
 64 576 l 1,44,-1
 64 640 l 1,45,-1
 128 640 l 1,46,-1
 192 640 l 1,47,-1
 256 640 l 1,48,-1
 256 576 l 1,49,-1
 320 576 l 1,50,-1
 320 512 l 1,51,-1
 256 512 l 1,40,-1
EndSplineSet
EndChar

StartChar: aacute
Encoding: 153 225 152
GlifName: aacute
Width: 448
GlyphClass: 1
Flags: W
LayerCount: 2
Fore
SplineSet
320 0 m 1,0,-1
 256 0 l 1,1,-1
 192 0 l 1,2,-1
 128 0 l 1,3,-1
 64 0 l 1,4,-1
 64 64 l 1,5,-1
 0 64 l 1,6,-1
 0 128 l 1,7,-1
 0 192 l 1,8,-1
 0 256 l 1,9,-1
 64 256 l 1,10,-1
 128 256 l 1,11,-1
 192 256 l 1,12,-1
 256 256 l 1,13,-1
 256 320 l 1,14,-1
 192 320 l 1,15,-1
 128 320 l 1,16,-1
 64 320 l 1,17,-1
 0 320 l 1,18,-1
 0 384 l 1,19,-1
 0 448 l 1,20,-1
 64 448 l 1,21,-1
 128 448 l 1,22,-1
 192 448 l 1,23,-1
 256 448 l 1,24,-1
 320 448 l 1,25,-1
 320 384 l 1,26,-1
 384 384 l 1,27,-1
 384 320 l 1,28,-1
 384 256 l 1,29,-1
 384 192 l 1,30,-1
 384 128 l 1,31,-1
 384 64 l 1,32,-1
 384 0 l 1,33,-1
 320 0 l 1,0,-1
192 128 m 1,34,-1
 256 128 l 1,35,-1
 256 192 l 1,36,-1
 192 192 l 1,37,-1
 128 192 l 1,38,-1
 128 128 l 1,39,-1
 192 128 l 1,34,-1
192 512 m 1,40,-1
 128 512 l 1,41,-1
 64 512 l 1,42,-1
 64 576 l 1,43,-1
 128 576 l 1,44,-1
 128 640 l 1,45,-1
 192 640 l 1,46,-1
 256 640 l 1,47,-1
 320 640 l 1,48,-1
 320 576 l 1,49,-1
 256 576 l 1,50,-1
 256 512 l 1,51,-1
 192 512 l 1,40,-1
EndSplineSet
EndChar

StartChar: acircumflex
Encoding: 154 226 153
GlifName: acircumflex
Width: 448
GlyphClass: 1
Flags: W
LayerCount: 2
Fore
SplineSet
320 0 m 1,0,-1
 256 0 l 1,1,-1
 192 0 l 1,2,-1
 128 0 l 1,3,-1
 64 0 l 1,4,-1
 64 64 l 1,5,-1
 0 64 l 1,6,-1
 0 128 l 1,7,-1
 0 192 l 1,8,-1
 0 256 l 1,9,-1
 64 256 l 1,10,-1
 128 256 l 1,11,-1
 192 256 l 1,12,-1
 256 256 l 1,13,-1
 256 320 l 1,14,-1
 192 320 l 1,15,-1
 128 320 l 1,16,-1
 64 320 l 1,17,-1
 0 320 l 1,18,-1
 0 384 l 1,19,-1
 0 448 l 1,20,-1
 64 448 l 1,21,-1
 128 448 l 1,22,-1
 192 448 l 1,23,-1
 256 448 l 1,24,-1
 320 448 l 1,25,-1
 320 384 l 1,26,-1
 384 384 l 1,27,-1
 384 320 l 1,28,-1
 384 256 l 1,29,-1
 384 192 l 1,30,-1
 384 128 l 1,31,-1
 384 64 l 1,32,-1
 384 0 l 1,33,-1
 320 0 l 1,0,-1
192 128 m 1,34,-1
 256 128 l 1,35,-1
 256 192 l 1,36,-1
 192 192 l 1,37,-1
 128 192 l 1,38,-1
 128 128 l 1,39,-1
 192 128 l 1,34,-1
256 512 m 1,40,-1
 192 512 l 1,41,-1
 128 512 l 1,42,-1
 64 512 l 1,43,-1
 64 576 l 1,44,-1
 128 576 l 1,45,-1
 128 640 l 1,46,-1
 192 640 l 1,47,-1
 256 640 l 1,48,-1
 256 576 l 1,49,-1
 320 576 l 1,50,-1
 320 512 l 1,51,-1
 256 512 l 1,40,-1
EndSplineSet
EndChar

StartChar: atilde
Encoding: 155 227 154
GlifName: atilde
Width: 448
GlyphClass: 1
Flags: W
LayerCount: 2
Fore
SplineSet
0 512 m 1,0,-1
 0 576 l 1,1,-1
 64 576 l 1,2,-1
 64 512 l 1,3,-1
 0 512 l 1,0,-1
320 0 m 1,4,-1
 256 0 l 1,5,-1
 192 0 l 1,6,-1
 128 0 l 1,7,-1
 64 0 l 1,8,-1
 64 64 l 1,9,-1
 0 64 l 1,10,-1
 0 128 l 1,11,-1
 0 192 l 1,12,-1
 0 256 l 1,13,-1
 64 256 l 1,14,-1
 128 256 l 1,15,-1
 192 256 l 1,16,-1
 256 256 l 1,17,-1
 256 320 l 1,18,-1
 192 320 l 1,19,-1
 128 320 l 1,20,-1
 64 320 l 1,21,-1
 0 320 l 1,22,-1
 0 384 l 1,23,-1
 0 448 l 1,24,-1
 64 448 l 1,25,-1
 128 448 l 1,26,-1
 192 448 l 1,27,-1
 256 448 l 1,28,-1
 320 448 l 1,29,-1
 320 384 l 1,30,-1
 384 384 l 1,31,-1
 384 320 l 1,32,-1
 384 256 l 1,33,-1
 384 192 l 1,34,-1
 384 128 l 1,35,-1
 384 64 l 1,36,-1
 384 0 l 1,37,-1
 320 0 l 1,4,-1
192 128 m 1,38,-1
 256 128 l 1,39,-1
 256 192 l 1,40,-1
 192 192 l 1,41,-1
 128 192 l 1,42,-1
 128 128 l 1,43,-1
 192 128 l 1,38,-1
256 512 m 1,44,-1
 192 512 l 1,45,-1
 128 512 l 1,46,-1
 128 576 l 1,47,-1
 64 576 l 1,48,-1
 64 640 l 1,49,-1
 128 640 l 1,50,-1
 192 640 l 1,51,-1
 256 640 l 1,52,-1
 256 576 l 1,53,-1
 320 576 l 1,54,-1
 320 512 l 1,55,-1
 256 512 l 1,44,-1
320 576 m 1,56,-1
 320 640 l 1,57,-1
 384 640 l 1,58,-1
 384 576 l 1,59,-1
 320 576 l 1,56,-1
EndSplineSet
EndChar

StartChar: adieresis
Encoding: 156 228 155
GlifName: adieresis
Width: 448
GlyphClass: 1
Flags: W
LayerCount: 2
Fore
SplineSet
320 0 m 1,0,-1
 256 0 l 1,1,-1
 192 0 l 1,2,-1
 128 0 l 1,3,-1
 64 0 l 1,4,-1
 64 64 l 1,5,-1
 0 64 l 1,6,-1
 0 128 l 1,7,-1
 0 192 l 1,8,-1
 0 256 l 1,9,-1
 64 256 l 1,10,-1
 128 256 l 1,11,-1
 192 256 l 1,12,-1
 256 256 l 1,13,-1
 256 320 l 1,14,-1
 192 320 l 1,15,-1
 128 320 l 1,16,-1
 64 320 l 1,17,-1
 0 320 l 1,18,-1
 0 384 l 1,19,-1
 0 448 l 1,20,-1
 64 448 l 1,21,-1
 128 448 l 1,22,-1
 192 448 l 1,23,-1
 256 448 l 1,24,-1
 320 448 l 1,25,-1
 320 384 l 1,26,-1
 384 384 l 1,27,-1
 384 320 l 1,28,-1
 384 256 l 1,29,-1
 384 192 l 1,30,-1
 384 128 l 1,31,-1
 384 64 l 1,32,-1
 384 0 l 1,33,-1
 320 0 l 1,0,-1
192 128 m 1,34,-1
 256 128 l 1,35,-1
 256 192 l 1,36,-1
 192 192 l 1,37,-1
 128 192 l 1,38,-1
 128 128 l 1,39,-1
 192 128 l 1,34,-1
320 512 m 1,40,-1
 256 512 l 1,41,-1
 256 576 l 1,42,-1
 256 640 l 1,43,-1
 320 640 l 1,44,-1
 384 640 l 1,45,-1
 384 576 l 1,46,-1
 384 512 l 1,47,-1
 320 512 l 1,40,-1
64 512 m 1,48,-1
 0 512 l 1,49,-1
 0 576 l 1,50,-1
 0 640 l 1,51,-1
 64 640 l 1,52,-1
 128 640 l 1,53,-1
 128 576 l 1,54,-1
 128 512 l 1,55,-1
 64 512 l 1,48,-1
EndSplineSet
EndChar

StartChar: aring
Encoding: 157 229 156
GlifName: aring
Width: 448
GlyphClass: 1
Flags: W
LayerCount: 2
Fore
SplineSet
320 0 m 1,0,-1
 256 0 l 1,1,-1
 192 0 l 1,2,-1
 128 0 l 1,3,-1
 64 0 l 1,4,-1
 64 64 l 1,5,-1
 0 64 l 1,6,-1
 0 128 l 1,7,-1
 0 192 l 1,8,-1
 0 256 l 1,9,-1
 64 256 l 1,10,-1
 128 256 l 1,11,-1
 192 256 l 1,12,-1
 256 256 l 1,13,-1
 256 320 l 1,14,-1
 192 320 l 1,15,-1
 128 320 l 1,16,-1
 64 320 l 1,17,-1
 0 320 l 1,18,-1
 0 384 l 1,19,-1
 0 448 l 1,20,-1
 64 448 l 1,21,-1
 128 448 l 1,22,-1
 128 512 l 1,23,-1
 64 512 l 1,24,-1
 64 576 l 1,25,-1
 128 576 l 1,26,-1
 128 640 l 1,27,-1
 192 640 l 1,28,-1
 256 640 l 1,29,-1
 256 576 l 1,30,-1
 320 576 l 1,31,-1
 320 512 l 1,32,-1
 256 512 l 1,33,-1
 256 448 l 1,34,-1
 320 448 l 1,35,-1
 320 384 l 1,36,-1
 384 384 l 1,37,-1
 384 320 l 1,38,-1
 384 256 l 1,39,-1
 384 192 l 1,40,-1
 384 128 l 1,41,-1
 384 64 l 1,42,-1
 384 0 l 1,43,-1
 320 0 l 1,0,-1
192 128 m 1,44,-1
 256 128 l 1,45,-1
 256 192 l 1,46,-1
 192 192 l 1,47,-1
 128 192 l 1,48,-1
 128 128 l 1,49,-1
 192 128 l 1,44,-1
EndSplineSet
EndChar

StartChar: ae
Encoding: 158 230 157
GlifName: ae
Width: 576
GlyphClass: 1
Flags: W
LayerCount: 2
Fore
SplineSet
448 0 m 1,0,-1
 384 0 l 1,1,-1
 320 0 l 1,2,-1
 256 0 l 1,3,-1
 192 0 l 1,4,-1
 128 0 l 1,5,-1
 64 0 l 1,6,-1
 64 64 l 1,7,-1
 0 64 l 1,8,-1
 0 128 l 1,9,-1
 0 192 l 1,10,-1
 0 256 l 1,11,-1
 64 256 l 1,12,-1
 128 256 l 1,13,-1
 128 320 l 1,14,-1
 64 320 l 1,15,-1
 0 320 l 1,16,-1
 0 384 l 1,17,-1
 0 448 l 1,18,-1
 64 448 l 1,19,-1
 128 448 l 1,20,-1
 192 448 l 1,21,-1
 256 448 l 1,22,-1
 320 448 l 1,23,-1
 384 448 l 1,24,-1
 448 448 l 1,25,-1
 448 384 l 1,26,-1
 512 384 l 1,27,-1
 512 320 l 1,28,-1
 512 256 l 1,29,-1
 512 192 l 1,30,-1
 448 192 l 1,31,-1
 384 192 l 1,32,-1
 384 128 l 1,33,-1
 448 128 l 1,34,-1
 512 128 l 1,35,-1
 512 64 l 1,36,-1
 512 0 l 1,37,-1
 448 0 l 1,0,-1
192 128 m 1,38,-1
 192 192 l 1,39,-1
 128 192 l 1,40,-1
 128 128 l 1,41,-1
 192 128 l 1,38,-1
384 256 m 1,42,-1
 384 320 l 1,43,-1
 320 320 l 1,44,-1
 320 256 l 1,45,-1
 384 256 l 1,42,-1
EndSplineSet
EndChar

StartChar: ccedilla
Encoding: 159 231 158
GlifName: ccedilla
Width: 448
GlyphClass: 1
Flags: W
LayerCount: 2
Fore
SplineSet
128 -128 m 1,0,-1
 64 -128 l 1,1,-1
 64 -64 l 1,2,-1
 128 -64 l 1,3,-1
 128 0 l 1,4,-1
 64 0 l 1,5,-1
 64 64 l 1,6,-1
 0 64 l 1,7,-1
 0 128 l 1,8,-1
 0 192 l 1,9,-1
 0 256 l 1,10,-1
 0 320 l 1,11,-1
 0 384 l 1,12,-1
 64 384 l 1,13,-1
 64 448 l 1,14,-1
 128 448 l 1,15,-1
 192 448 l 1,16,-1
 256 448 l 1,17,-1
 320 448 l 1,18,-1
 320 384 l 1,19,-1
 384 384 l 1,20,-1
 384 320 l 1,21,-1
 384 256 l 1,22,-1
 320 256 l 1,23,-1
 256 256 l 1,24,-1
 256 320 l 1,25,-1
 192 320 l 1,26,-1
 128 320 l 1,27,-1
 128 256 l 1,28,-1
 128 192 l 1,29,-1
 128 128 l 1,30,-1
 192 128 l 1,31,-1
 256 128 l 1,32,-1
 256 192 l 1,33,-1
 320 192 l 1,34,-1
 384 192 l 1,35,-1
 384 128 l 1,36,-1
 384 64 l 1,37,-1
 320 64 l 1,38,-1
 320 0 l 1,39,-1
 256 0 l 1,40,-1
 256 -64 l 1,41,-1
 192 -64 l 1,42,-1
 192 -128 l 1,43,-1
 128 -128 l 1,0,-1
EndSplineSet
EndChar

StartChar: egrave
Encoding: 160 232 159
GlifName: egrave
Width: 448
GlyphClass: 1
Flags: W
LayerCount: 2
Fore
SplineSet
320 0 m 1,0,-1
 256 0 l 1,1,-1
 192 0 l 1,2,-1
 128 0 l 1,3,-1
 64 0 l 1,4,-1
 64 64 l 1,5,-1
 0 64 l 1,6,-1
 0 128 l 1,7,-1
 0 192 l 1,8,-1
 0 256 l 1,9,-1
 0 320 l 1,10,-1
 0 384 l 1,11,-1
 64 384 l 1,12,-1
 64 448 l 1,13,-1
 128 448 l 1,14,-1
 192 448 l 1,15,-1
 256 448 l 1,16,-1
 320 448 l 1,17,-1
 320 384 l 1,18,-1
 384 384 l 1,19,-1
 384 320 l 1,20,-1
 384 256 l 1,21,-1
 384 192 l 1,22,-1
 320 192 l 1,23,-1
 256 192 l 1,24,-1
 192 192 l 1,25,-1
 128 192 l 1,26,-1
 128 128 l 1,27,-1
 192 128 l 1,28,-1
 256 128 l 1,29,-1
 320 128 l 1,30,-1
 384 128 l 1,31,-1
 384 64 l 1,32,-1
 384 0 l 1,33,-1
 320 0 l 1,0,-1
192 256 m 1,34,-1
 256 256 l 1,35,-1
 256 320 l 1,36,-1
 192 320 l 1,37,-1
 128 320 l 1,38,-1
 128 256 l 1,39,-1
 192 256 l 1,34,-1
256 512 m 1,40,-1
 192 512 l 1,41,-1
 128 512 l 1,42,-1
 128 576 l 1,43,-1
 64 576 l 1,44,-1
 64 640 l 1,45,-1
 128 640 l 1,46,-1
 192 640 l 1,47,-1
 256 640 l 1,48,-1
 256 576 l 1,49,-1
 320 576 l 1,50,-1
 320 512 l 1,51,-1
 256 512 l 1,40,-1
EndSplineSet
EndChar

StartChar: eacute
Encoding: 161 233 160
GlifName: eacute
Width: 448
GlyphClass: 1
Flags: W
LayerCount: 2
Fore
SplineSet
320 0 m 1,0,-1
 256 0 l 1,1,-1
 192 0 l 1,2,-1
 128 0 l 1,3,-1
 64 0 l 1,4,-1
 64 64 l 1,5,-1
 0 64 l 1,6,-1
 0 128 l 1,7,-1
 0 192 l 1,8,-1
 0 256 l 1,9,-1
 0 320 l 1,10,-1
 0 384 l 1,11,-1
 64 384 l 1,12,-1
 64 448 l 1,13,-1
 128 448 l 1,14,-1
 192 448 l 1,15,-1
 256 448 l 1,16,-1
 320 448 l 1,17,-1
 320 384 l 1,18,-1
 384 384 l 1,19,-1
 384 320 l 1,20,-1
 384 256 l 1,21,-1
 384 192 l 1,22,-1
 320 192 l 1,23,-1
 256 192 l 1,24,-1
 192 192 l 1,25,-1
 128 192 l 1,26,-1
 128 128 l 1,27,-1
 192 128 l 1,28,-1
 256 128 l 1,29,-1
 320 128 l 1,30,-1
 384 128 l 1,31,-1
 384 64 l 1,32,-1
 384 0 l 1,33,-1
 320 0 l 1,0,-1
192 256 m 1,34,-1
 256 256 l 1,35,-1
 256 320 l 1,36,-1
 192 320 l 1,37,-1
 128 320 l 1,38,-1
 128 256 l 1,39,-1
 192 256 l 1,34,-1
192 512 m 1,40,-1
 128 512 l 1,41,-1
 64 512 l 1,42,-1
 64 576 l 1,43,-1
 128 576 l 1,44,-1
 128 640 l 1,45,-1
 192 640 l 1,46,-1
 256 640 l 1,47,-1
 320 640 l 1,48,-1
 320 576 l 1,49,-1
 256 576 l 1,50,-1
 256 512 l 1,51,-1
 192 512 l 1,40,-1
EndSplineSet
EndChar

StartChar: ecircumflex
Encoding: 162 234 161
GlifName: ecircumflex
Width: 448
GlyphClass: 1
Flags: W
LayerCount: 2
Fore
SplineSet
320 0 m 1,0,-1
 256 0 l 1,1,-1
 192 0 l 1,2,-1
 128 0 l 1,3,-1
 64 0 l 1,4,-1
 64 64 l 1,5,-1
 0 64 l 1,6,-1
 0 128 l 1,7,-1
 0 192 l 1,8,-1
 0 256 l 1,9,-1
 0 320 l 1,10,-1
 0 384 l 1,11,-1
 64 384 l 1,12,-1
 64 448 l 1,13,-1
 128 448 l 1,14,-1
 192 448 l 1,15,-1
 256 448 l 1,16,-1
 320 448 l 1,17,-1
 320 384 l 1,18,-1
 384 384 l 1,19,-1
 384 320 l 1,20,-1
 384 256 l 1,21,-1
 384 192 l 1,22,-1
 320 192 l 1,23,-1
 256 192 l 1,24,-1
 192 192 l 1,25,-1
 128 192 l 1,26,-1
 128 128 l 1,27,-1
 192 128 l 1,28,-1
 256 128 l 1,29,-1
 320 128 l 1,30,-1
 384 128 l 1,31,-1
 384 64 l 1,32,-1
 384 0 l 1,33,-1
 320 0 l 1,0,-1
192 256 m 1,34,-1
 256 256 l 1,35,-1
 256 320 l 1,36,-1
 192 320 l 1,37,-1
 128 320 l 1,38,-1
 128 256 l 1,39,-1
 192 256 l 1,34,-1
256 512 m 1,40,-1
 192 512 l 1,41,-1
 128 512 l 1,42,-1
 64 512 l 1,43,-1
 64 576 l 1,44,-1
 128 576 l 1,45,-1
 128 640 l 1,46,-1
 192 640 l 1,47,-1
 256 640 l 1,48,-1
 256 576 l 1,49,-1
 320 576 l 1,50,-1
 320 512 l 1,51,-1
 256 512 l 1,40,-1
EndSplineSet
EndChar

StartChar: edieresis
Encoding: 163 235 162
GlifName: edieresis
Width: 448
GlyphClass: 1
Flags: W
LayerCount: 2
Fore
SplineSet
320 0 m 1,0,-1
 256 0 l 1,1,-1
 192 0 l 1,2,-1
 128 0 l 1,3,-1
 64 0 l 1,4,-1
 64 64 l 1,5,-1
 0 64 l 1,6,-1
 0 128 l 1,7,-1
 0 192 l 1,8,-1
 0 256 l 1,9,-1
 0 320 l 1,10,-1
 0 384 l 1,11,-1
 64 384 l 1,12,-1
 64 448 l 1,13,-1
 128 448 l 1,14,-1
 192 448 l 1,15,-1
 256 448 l 1,16,-1
 320 448 l 1,17,-1
 320 384 l 1,18,-1
 384 384 l 1,19,-1
 384 320 l 1,20,-1
 384 256 l 1,21,-1
 384 192 l 1,22,-1
 320 192 l 1,23,-1
 256 192 l 1,24,-1
 192 192 l 1,25,-1
 128 192 l 1,26,-1
 128 128 l 1,27,-1
 192 128 l 1,28,-1
 256 128 l 1,29,-1
 320 128 l 1,30,-1
 384 128 l 1,31,-1
 384 64 l 1,32,-1
 384 0 l 1,33,-1
 320 0 l 1,0,-1
192 256 m 1,34,-1
 256 256 l 1,35,-1
 256 320 l 1,36,-1
 192 320 l 1,37,-1
 128 320 l 1,38,-1
 128 256 l 1,39,-1
 192 256 l 1,34,-1
320 512 m 1,40,-1
 256 512 l 1,41,-1
 256 576 l 1,42,-1
 256 640 l 1,43,-1
 320 640 l 1,44,-1
 384 640 l 1,45,-1
 384 576 l 1,46,-1
 384 512 l 1,47,-1
 320 512 l 1,40,-1
64 512 m 1,48,-1
 0 512 l 1,49,-1
 0 576 l 1,50,-1
 0 640 l 1,51,-1
 64 640 l 1,52,-1
 128 640 l 1,53,-1
 128 576 l 1,54,-1
 128 512 l 1,55,-1
 64 512 l 1,48,-1
EndSplineSet
EndChar

StartChar: igrave
Encoding: 164 236 163
GlifName: igrave
Width: 448
GlyphClass: 1
Flags: W
LayerCount: 2
Fore
SplineSet
320 0 m 1,0,-1
 256 0 l 1,1,-1
 192 0 l 1,2,-1
 128 0 l 1,3,-1
 64 0 l 1,4,-1
 0 0 l 1,5,-1
 0 64 l 1,6,-1
 0 128 l 1,7,-1
 64 128 l 1,8,-1
 128 128 l 1,9,-1
 128 192 l 1,10,-1
 128 256 l 1,11,-1
 128 320 l 1,12,-1
 64 320 l 1,13,-1
 64 384 l 1,14,-1
 64 448 l 1,15,-1
 128 448 l 1,16,-1
 192 448 l 1,17,-1
 256 448 l 1,18,-1
 256 384 l 1,19,-1
 256 320 l 1,20,-1
 256 256 l 1,21,-1
 256 192 l 1,22,-1
 256 128 l 1,23,-1
 320 128 l 1,24,-1
 384 128 l 1,25,-1
 384 64 l 1,26,-1
 384 0 l 1,27,-1
 320 0 l 1,0,-1
256 512 m 1,28,-1
 192 512 l 1,29,-1
 128 512 l 1,30,-1
 128 576 l 1,31,-1
 64 576 l 1,32,-1
 64 640 l 1,33,-1
 128 640 l 1,34,-1
 192 640 l 1,35,-1
 256 640 l 1,36,-1
 256 576 l 1,37,-1
 320 576 l 1,38,-1
 320 512 l 1,39,-1
 256 512 l 1,28,-1
EndSplineSet
EndChar

StartChar: iacute
Encoding: 165 237 164
GlifName: iacute
Width: 448
GlyphClass: 1
Flags: W
LayerCount: 2
Fore
SplineSet
320 0 m 1,0,-1
 256 0 l 1,1,-1
 192 0 l 1,2,-1
 128 0 l 1,3,-1
 64 0 l 1,4,-1
 0 0 l 1,5,-1
 0 64 l 1,6,-1
 0 128 l 1,7,-1
 64 128 l 1,8,-1
 128 128 l 1,9,-1
 128 192 l 1,10,-1
 128 256 l 1,11,-1
 128 320 l 1,12,-1
 64 320 l 1,13,-1
 64 384 l 1,14,-1
 64 448 l 1,15,-1
 128 448 l 1,16,-1
 192 448 l 1,17,-1
 256 448 l 1,18,-1
 256 384 l 1,19,-1
 256 320 l 1,20,-1
 256 256 l 1,21,-1
 256 192 l 1,22,-1
 256 128 l 1,23,-1
 320 128 l 1,24,-1
 384 128 l 1,25,-1
 384 64 l 1,26,-1
 384 0 l 1,27,-1
 320 0 l 1,0,-1
192 512 m 1,28,-1
 128 512 l 1,29,-1
 64 512 l 1,30,-1
 64 576 l 1,31,-1
 128 576 l 1,32,-1
 128 640 l 1,33,-1
 192 640 l 1,34,-1
 256 640 l 1,35,-1
 320 640 l 1,36,-1
 320 576 l 1,37,-1
 256 576 l 1,38,-1
 256 512 l 1,39,-1
 192 512 l 1,28,-1
EndSplineSet
EndChar

StartChar: icircumflex
Encoding: 166 238 165
GlifName: icircumflex
Width: 448
GlyphClass: 1
Flags: W
LayerCount: 2
Fore
SplineSet
320 0 m 1,0,-1
 256 0 l 1,1,-1
 192 0 l 1,2,-1
 128 0 l 1,3,-1
 64 0 l 1,4,-1
 0 0 l 1,5,-1
 0 64 l 1,6,-1
 0 128 l 1,7,-1
 64 128 l 1,8,-1
 128 128 l 1,9,-1
 128 192 l 1,10,-1
 128 256 l 1,11,-1
 128 320 l 1,12,-1
 64 320 l 1,13,-1
 64 384 l 1,14,-1
 64 448 l 1,15,-1
 128 448 l 1,16,-1
 192 448 l 1,17,-1
 256 448 l 1,18,-1
 256 384 l 1,19,-1
 256 320 l 1,20,-1
 256 256 l 1,21,-1
 256 192 l 1,22,-1
 256 128 l 1,23,-1
 320 128 l 1,24,-1
 384 128 l 1,25,-1
 384 64 l 1,26,-1
 384 0 l 1,27,-1
 320 0 l 1,0,-1
256 512 m 1,28,-1
 192 512 l 1,29,-1
 128 512 l 1,30,-1
 64 512 l 1,31,-1
 64 576 l 1,32,-1
 128 576 l 1,33,-1
 128 640 l 1,34,-1
 192 640 l 1,35,-1
 256 640 l 1,36,-1
 256 576 l 1,37,-1
 320 576 l 1,38,-1
 320 512 l 1,39,-1
 256 512 l 1,28,-1
EndSplineSet
EndChar

StartChar: idieresis
Encoding: 167 239 166
GlifName: idieresis
Width: 448
GlyphClass: 1
Flags: W
LayerCount: 2
Fore
SplineSet
320 0 m 1,0,-1
 256 0 l 1,1,-1
 192 0 l 1,2,-1
 128 0 l 1,3,-1
 64 0 l 1,4,-1
 0 0 l 1,5,-1
 0 64 l 1,6,-1
 0 128 l 1,7,-1
 64 128 l 1,8,-1
 128 128 l 1,9,-1
 128 192 l 1,10,-1
 128 256 l 1,11,-1
 128 320 l 1,12,-1
 64 320 l 1,13,-1
 64 384 l 1,14,-1
 64 448 l 1,15,-1
 128 448 l 1,16,-1
 192 448 l 1,17,-1
 256 448 l 1,18,-1
 256 384 l 1,19,-1
 256 320 l 1,20,-1
 256 256 l 1,21,-1
 256 192 l 1,22,-1
 256 128 l 1,23,-1
 320 128 l 1,24,-1
 384 128 l 1,25,-1
 384 64 l 1,26,-1
 384 0 l 1,27,-1
 320 0 l 1,0,-1
320 512 m 1,28,-1
 256 512 l 1,29,-1
 256 576 l 1,30,-1
 256 640 l 1,31,-1
 320 640 l 1,32,-1
 384 640 l 1,33,-1
 384 576 l 1,34,-1
 384 512 l 1,35,-1
 320 512 l 1,28,-1
64 512 m 1,36,-1
 0 512 l 1,37,-1
 0 576 l 1,38,-1
 0 640 l 1,39,-1
 64 640 l 1,40,-1
 128 640 l 1,41,-1
 128 576 l 1,42,-1
 128 512 l 1,43,-1
 64 512 l 1,36,-1
EndSplineSet
EndChar

StartChar: eth
Encoding: 168 240 167
GlifName: eth
Width: 512
GlyphClass: 1
Flags: W
LayerCount: 2
Fore
SplineSet
320 0 m 1,0,-1
 256 0 l 1,1,-1
 192 0 l 1,2,-1
 128 0 l 1,3,-1
 64 0 l 1,4,-1
 64 64 l 1,5,-1
 0 64 l 1,6,-1
 0 128 l 1,7,-1
 0 192 l 1,8,-1
 0 256 l 1,9,-1
 64 256 l 1,10,-1
 64 320 l 1,11,-1
 128 320 l 1,12,-1
 192 320 l 1,13,-1
 256 320 l 1,14,-1
 256 384 l 1,15,-1
 192 384 l 1,16,-1
 128 384 l 1,17,-1
 128 448 l 1,18,-1
 192 448 l 1,19,-1
 192 512 l 1,20,-1
 128 512 l 1,21,-1
 64 512 l 1,22,-1
 64 576 l 1,23,-1
 64 640 l 1,24,-1
 128 640 l 1,25,-1
 192 640 l 1,26,-1
 256 640 l 1,27,-1
 256 576 l 1,28,-1
 320 576 l 1,29,-1
 320 512 l 1,30,-1
 384 512 l 1,31,-1
 448 512 l 1,32,-1
 448 448 l 1,33,-1
 384 448 l 1,34,-1
 384 384 l 1,35,-1
 384 320 l 1,36,-1
 384 256 l 1,37,-1
 384 192 l 1,38,-1
 384 128 l 1,39,-1
 384 64 l 1,40,-1
 384 0 l 1,41,-1
 320 0 l 1,0,-1
192 128 m 1,42,-1
 256 128 l 1,43,-1
 256 192 l 1,44,-1
 192 192 l 1,45,-1
 128 192 l 1,46,-1
 128 128 l 1,47,-1
 192 128 l 1,42,-1
EndSplineSet
EndChar

StartChar: ntilde
Encoding: 169 241 168
GlifName: ntilde
Width: 448
GlyphClass: 1
Flags: W
LayerCount: 2
Fore
SplineSet
0 512 m 1,0,-1
 0 576 l 1,1,-1
 64 576 l 1,2,-1
 64 512 l 1,3,-1
 0 512 l 1,0,-1
320 0 m 1,4,-1
 256 0 l 1,5,-1
 256 64 l 1,6,-1
 256 128 l 1,7,-1
 256 192 l 1,8,-1
 256 256 l 1,9,-1
 256 320 l 1,10,-1
 192 320 l 1,11,-1
 128 320 l 1,12,-1
 128 256 l 1,13,-1
 128 192 l 1,14,-1
 128 128 l 1,15,-1
 128 64 l 1,16,-1
 128 0 l 1,17,-1
 64 0 l 1,18,-1
 0 0 l 1,19,-1
 0 64 l 1,20,-1
 0 128 l 1,21,-1
 0 192 l 1,22,-1
 0 256 l 1,23,-1
 0 320 l 1,24,-1
 0 384 l 1,25,-1
 64 384 l 1,26,-1
 64 448 l 1,27,-1
 128 448 l 1,28,-1
 192 448 l 1,29,-1
 256 448 l 1,30,-1
 320 448 l 1,31,-1
 320 384 l 1,32,-1
 384 384 l 1,33,-1
 384 320 l 1,34,-1
 384 256 l 1,35,-1
 384 192 l 1,36,-1
 384 128 l 1,37,-1
 384 64 l 1,38,-1
 384 0 l 1,39,-1
 320 0 l 1,4,-1
256 512 m 1,40,-1
 192 512 l 1,41,-1
 128 512 l 1,42,-1
 128 576 l 1,43,-1
 64 576 l 1,44,-1
 64 640 l 1,45,-1
 128 640 l 1,46,-1
 192 640 l 1,47,-1
 256 640 l 1,48,-1
 256 576 l 1,49,-1
 320 576 l 1,50,-1
 320 512 l 1,51,-1
 256 512 l 1,40,-1
320 576 m 1,52,-1
 320 640 l 1,53,-1
 384 640 l 1,54,-1
 384 576 l 1,55,-1
 320 576 l 1,52,-1
EndSplineSet
EndChar

StartChar: ograve
Encoding: 170 242 169
GlifName: ograve
Width: 448
GlyphClass: 1
Flags: W
LayerCount: 2
Fore
SplineSet
256 0 m 1,0,-1
 192 0 l 1,1,-1
 128 0 l 1,2,-1
 64 0 l 1,3,-1
 64 64 l 1,4,-1
 0 64 l 1,5,-1
 0 128 l 1,6,-1
 0 192 l 1,7,-1
 0 256 l 1,8,-1
 0 320 l 1,9,-1
 0 384 l 1,10,-1
 64 384 l 1,11,-1
 64 448 l 1,12,-1
 128 448 l 1,13,-1
 192 448 l 1,14,-1
 256 448 l 1,15,-1
 320 448 l 1,16,-1
 320 384 l 1,17,-1
 384 384 l 1,18,-1
 384 320 l 1,19,-1
 384 256 l 1,20,-1
 384 192 l 1,21,-1
 384 128 l 1,22,-1
 384 64 l 1,23,-1
 320 64 l 1,24,-1
 320 0 l 1,25,-1
 256 0 l 1,0,-1
192 128 m 1,26,-1
 256 128 l 1,27,-1
 256 192 l 1,28,-1
 256 256 l 1,29,-1
 256 320 l 1,30,-1
 192 320 l 1,31,-1
 128 320 l 1,32,-1
 128 256 l 1,33,-1
 128 192 l 1,34,-1
 128 128 l 1,35,-1
 192 128 l 1,26,-1
256 512 m 1,36,-1
 192 512 l 1,37,-1
 128 512 l 1,38,-1
 128 576 l 1,39,-1
 64 576 l 1,40,-1
 64 640 l 1,41,-1
 128 640 l 1,42,-1
 192 640 l 1,43,-1
 256 640 l 1,44,-1
 256 576 l 1,45,-1
 320 576 l 1,46,-1
 320 512 l 1,47,-1
 256 512 l 1,36,-1
EndSplineSet
EndChar

StartChar: oacute
Encoding: 171 243 170
GlifName: oacute
Width: 448
GlyphClass: 1
Flags: W
LayerCount: 2
Fore
SplineSet
256 0 m 1,0,-1
 192 0 l 1,1,-1
 128 0 l 1,2,-1
 64 0 l 1,3,-1
 64 64 l 1,4,-1
 0 64 l 1,5,-1
 0 128 l 1,6,-1
 0 192 l 1,7,-1
 0 256 l 1,8,-1
 0 320 l 1,9,-1
 0 384 l 1,10,-1
 64 384 l 1,11,-1
 64 448 l 1,12,-1
 128 448 l 1,13,-1
 192 448 l 1,14,-1
 256 448 l 1,15,-1
 320 448 l 1,16,-1
 320 384 l 1,17,-1
 384 384 l 1,18,-1
 384 320 l 1,19,-1
 384 256 l 1,20,-1
 384 192 l 1,21,-1
 384 128 l 1,22,-1
 384 64 l 1,23,-1
 320 64 l 1,24,-1
 320 0 l 1,25,-1
 256 0 l 1,0,-1
192 128 m 1,26,-1
 256 128 l 1,27,-1
 256 192 l 1,28,-1
 256 256 l 1,29,-1
 256 320 l 1,30,-1
 192 320 l 1,31,-1
 128 320 l 1,32,-1
 128 256 l 1,33,-1
 128 192 l 1,34,-1
 128 128 l 1,35,-1
 192 128 l 1,26,-1
192 512 m 1,36,-1
 128 512 l 1,37,-1
 64 512 l 1,38,-1
 64 576 l 1,39,-1
 128 576 l 1,40,-1
 128 640 l 1,41,-1
 192 640 l 1,42,-1
 256 640 l 1,43,-1
 320 640 l 1,44,-1
 320 576 l 1,45,-1
 256 576 l 1,46,-1
 256 512 l 1,47,-1
 192 512 l 1,36,-1
EndSplineSet
EndChar

StartChar: ocircumflex
Encoding: 172 244 171
GlifName: ocircumflex
Width: 448
GlyphClass: 1
Flags: W
LayerCount: 2
Fore
SplineSet
256 0 m 1,0,-1
 192 0 l 1,1,-1
 128 0 l 1,2,-1
 64 0 l 1,3,-1
 64 64 l 1,4,-1
 0 64 l 1,5,-1
 0 128 l 1,6,-1
 0 192 l 1,7,-1
 0 256 l 1,8,-1
 0 320 l 1,9,-1
 0 384 l 1,10,-1
 64 384 l 1,11,-1
 64 448 l 1,12,-1
 128 448 l 1,13,-1
 192 448 l 1,14,-1
 256 448 l 1,15,-1
 320 448 l 1,16,-1
 320 384 l 1,17,-1
 384 384 l 1,18,-1
 384 320 l 1,19,-1
 384 256 l 1,20,-1
 384 192 l 1,21,-1
 384 128 l 1,22,-1
 384 64 l 1,23,-1
 320 64 l 1,24,-1
 320 0 l 1,25,-1
 256 0 l 1,0,-1
192 128 m 1,26,-1
 256 128 l 1,27,-1
 256 192 l 1,28,-1
 256 256 l 1,29,-1
 256 320 l 1,30,-1
 192 320 l 1,31,-1
 128 320 l 1,32,-1
 128 256 l 1,33,-1
 128 192 l 1,34,-1
 128 128 l 1,35,-1
 192 128 l 1,26,-1
256 512 m 1,36,-1
 192 512 l 1,37,-1
 128 512 l 1,38,-1
 64 512 l 1,39,-1
 64 576 l 1,40,-1
 128 576 l 1,41,-1
 128 640 l 1,42,-1
 192 640 l 1,43,-1
 256 640 l 1,44,-1
 256 576 l 1,45,-1
 320 576 l 1,46,-1
 320 512 l 1,47,-1
 256 512 l 1,36,-1
EndSplineSet
EndChar

StartChar: otilde
Encoding: 173 245 172
GlifName: otilde
Width: 448
GlyphClass: 1
Flags: W
LayerCount: 2
Fore
SplineSet
0 512 m 1,0,-1
 0 576 l 1,1,-1
 64 576 l 1,2,-1
 64 512 l 1,3,-1
 0 512 l 1,0,-1
256 0 m 1,4,-1
 192 0 l 1,5,-1
 128 0 l 1,6,-1
 64 0 l 1,7,-1
 64 64 l 1,8,-1
 0 64 l 1,9,-1
 0 128 l 1,10,-1
 0 192 l 1,11,-1
 0 256 l 1,12,-1
 0 320 l 1,13,-1
 0 384 l 1,14,-1
 64 384 l 1,15,-1
 64 448 l 1,16,-1
 128 448 l 1,17,-1
 192 448 l 1,18,-1
 256 448 l 1,19,-1
 320 448 l 1,20,-1
 320 384 l 1,21,-1
 384 384 l 1,22,-1
 384 320 l 1,23,-1
 384 256 l 1,24,-1
 384 192 l 1,25,-1
 384 128 l 1,26,-1
 384 64 l 1,27,-1
 320 64 l 1,28,-1
 320 0 l 1,29,-1
 256 0 l 1,4,-1
192 128 m 1,30,-1
 256 128 l 1,31,-1
 256 192 l 1,32,-1
 256 256 l 1,33,-1
 256 320 l 1,34,-1
 192 320 l 1,35,-1
 128 320 l 1,36,-1
 128 256 l 1,37,-1
 128 192 l 1,38,-1
 128 128 l 1,39,-1
 192 128 l 1,30,-1
256 512 m 1,40,-1
 192 512 l 1,41,-1
 128 512 l 1,42,-1
 128 576 l 1,43,-1
 64 576 l 1,44,-1
 64 640 l 1,45,-1
 128 640 l 1,46,-1
 192 640 l 1,47,-1
 256 640 l 1,48,-1
 256 576 l 1,49,-1
 320 576 l 1,50,-1
 320 512 l 1,51,-1
 256 512 l 1,40,-1
320 576 m 1,52,-1
 320 640 l 1,53,-1
 384 640 l 1,54,-1
 384 576 l 1,55,-1
 320 576 l 1,52,-1
EndSplineSet
EndChar

StartChar: odieresis
Encoding: 174 246 173
GlifName: odieresis
Width: 448
GlyphClass: 1
Flags: W
LayerCount: 2
Fore
SplineSet
256 0 m 1,0,-1
 192 0 l 1,1,-1
 128 0 l 1,2,-1
 64 0 l 1,3,-1
 64 64 l 1,4,-1
 0 64 l 1,5,-1
 0 128 l 1,6,-1
 0 192 l 1,7,-1
 0 256 l 1,8,-1
 0 320 l 1,9,-1
 0 384 l 1,10,-1
 64 384 l 1,11,-1
 64 448 l 1,12,-1
 128 448 l 1,13,-1
 192 448 l 1,14,-1
 256 448 l 1,15,-1
 320 448 l 1,16,-1
 320 384 l 1,17,-1
 384 384 l 1,18,-1
 384 320 l 1,19,-1
 384 256 l 1,20,-1
 384 192 l 1,21,-1
 384 128 l 1,22,-1
 384 64 l 1,23,-1
 320 64 l 1,24,-1
 320 0 l 1,25,-1
 256 0 l 1,0,-1
192 128 m 1,26,-1
 256 128 l 1,27,-1
 256 192 l 1,28,-1
 256 256 l 1,29,-1
 256 320 l 1,30,-1
 192 320 l 1,31,-1
 128 320 l 1,32,-1
 128 256 l 1,33,-1
 128 192 l 1,34,-1
 128 128 l 1,35,-1
 192 128 l 1,26,-1
320 512 m 1,36,-1
 256 512 l 1,37,-1
 256 576 l 1,38,-1
 256 640 l 1,39,-1
 320 640 l 1,40,-1
 384 640 l 1,41,-1
 384 576 l 1,42,-1
 384 512 l 1,43,-1
 320 512 l 1,36,-1
64 512 m 1,44,-1
 0 512 l 1,45,-1
 0 576 l 1,46,-1
 0 640 l 1,47,-1
 64 640 l 1,48,-1
 128 640 l 1,49,-1
 128 576 l 1,50,-1
 128 512 l 1,51,-1
 64 512 l 1,44,-1
EndSplineSet
EndChar

StartChar: divide
Encoding: 175 247 174
GlifName: divide
Width: 448
GlyphClass: 1
Flags: W
LayerCount: 2
Fore
SplineSet
192 0 m 1,0,-1
 128 0 l 1,1,-1
 128 64 l 1,2,-1
 128 128 l 1,3,-1
 192 128 l 1,4,-1
 256 128 l 1,5,-1
 256 64 l 1,6,-1
 256 0 l 1,7,-1
 192 0 l 1,0,-1
320 192 m 1,8,-1
 256 192 l 1,9,-1
 192 192 l 1,10,-1
 128 192 l 1,11,-1
 64 192 l 1,12,-1
 0 192 l 1,13,-1
 0 256 l 1,14,-1
 0 320 l 1,15,-1
 64 320 l 1,16,-1
 128 320 l 1,17,-1
 192 320 l 1,18,-1
 256 320 l 1,19,-1
 320 320 l 1,20,-1
 384 320 l 1,21,-1
 384 256 l 1,22,-1
 384 192 l 1,23,-1
 320 192 l 1,8,-1
192 384 m 1,24,-1
 128 384 l 1,25,-1
 128 448 l 1,26,-1
 128 512 l 1,27,-1
 192 512 l 1,28,-1
 256 512 l 1,29,-1
 256 448 l 1,30,-1
 256 384 l 1,31,-1
 192 384 l 1,24,-1
EndSplineSet
EndChar

StartChar: oslash
Encoding: 176 248 175
GlifName: oslash
Width: 448
GlyphClass: 1
Flags: W
LayerCount: 2
Fore
SplineSet
64 -64 m 1,0,-1
 0 -64 l 1,1,-1
 0 0 l 1,2,-1
 0 64 l 1,3,-1
 64 64 l 1,4,-1
 64 128 l 1,5,-1
 0 128 l 1,6,-1
 0 192 l 1,7,-1
 0 256 l 1,8,-1
 0 320 l 1,9,-1
 0 384 l 1,10,-1
 64 384 l 1,11,-1
 64 448 l 1,12,-1
 128 448 l 1,13,-1
 192 448 l 1,14,-1
 256 448 l 1,15,-1
 256 512 l 1,16,-1
 320 512 l 1,17,-1
 384 512 l 1,18,-1
 384 448 l 1,19,-1
 384 384 l 1,20,-1
 320 384 l 1,21,-1
 320 320 l 1,22,-1
 384 320 l 1,23,-1
 384 256 l 1,24,-1
 384 192 l 1,25,-1
 384 128 l 1,26,-1
 384 64 l 1,27,-1
 320 64 l 1,28,-1
 320 0 l 1,29,-1
 256 0 l 1,30,-1
 192 0 l 1,31,-1
 128 0 l 1,32,-1
 128 -64 l 1,33,-1
 64 -64 l 1,0,-1
256 128 m 1,34,-1
 256 192 l 1,35,-1
 192 192 l 1,36,-1
 192 128 l 1,37,-1
 256 128 l 1,34,-1
192 256 m 1,38,-1
 192 320 l 1,39,-1
 128 320 l 1,40,-1
 128 256 l 1,41,-1
 192 256 l 1,38,-1
EndSplineSet
EndChar

StartChar: ugrave
Encoding: 177 249 176
GlifName: ugrave
Width: 448
GlyphClass: 1
Flags: W
LayerCount: 2
Fore
SplineSet
256 0 m 1,0,-1
 192 0 l 1,1,-1
 128 0 l 1,2,-1
 64 0 l 1,3,-1
 64 64 l 1,4,-1
 0 64 l 1,5,-1
 0 128 l 1,6,-1
 0 192 l 1,7,-1
 0 256 l 1,8,-1
 0 320 l 1,9,-1
 0 384 l 1,10,-1
 0 448 l 1,11,-1
 64 448 l 1,12,-1
 128 448 l 1,13,-1
 128 384 l 1,14,-1
 128 320 l 1,15,-1
 128 256 l 1,16,-1
 128 192 l 1,17,-1
 128 128 l 1,18,-1
 192 128 l 1,19,-1
 256 128 l 1,20,-1
 256 192 l 1,21,-1
 256 256 l 1,22,-1
 256 320 l 1,23,-1
 256 384 l 1,24,-1
 256 448 l 1,25,-1
 320 448 l 1,26,-1
 384 448 l 1,27,-1
 384 384 l 1,28,-1
 384 320 l 1,29,-1
 384 256 l 1,30,-1
 384 192 l 1,31,-1
 384 128 l 1,32,-1
 384 64 l 1,33,-1
 320 64 l 1,34,-1
 320 0 l 1,35,-1
 256 0 l 1,0,-1
256 512 m 1,36,-1
 192 512 l 1,37,-1
 128 512 l 1,38,-1
 128 576 l 1,39,-1
 64 576 l 1,40,-1
 64 640 l 1,41,-1
 128 640 l 1,42,-1
 192 640 l 1,43,-1
 256 640 l 1,44,-1
 256 576 l 1,45,-1
 320 576 l 1,46,-1
 320 512 l 1,47,-1
 256 512 l 1,36,-1
EndSplineSet
EndChar

StartChar: uacute
Encoding: 178 250 177
GlifName: uacute
Width: 448
GlyphClass: 1
Flags: W
LayerCount: 2
Fore
SplineSet
256 0 m 1,0,-1
 192 0 l 1,1,-1
 128 0 l 1,2,-1
 64 0 l 1,3,-1
 64 64 l 1,4,-1
 0 64 l 1,5,-1
 0 128 l 1,6,-1
 0 192 l 1,7,-1
 0 256 l 1,8,-1
 0 320 l 1,9,-1
 0 384 l 1,10,-1
 0 448 l 1,11,-1
 64 448 l 1,12,-1
 128 448 l 1,13,-1
 128 384 l 1,14,-1
 128 320 l 1,15,-1
 128 256 l 1,16,-1
 128 192 l 1,17,-1
 128 128 l 1,18,-1
 192 128 l 1,19,-1
 256 128 l 1,20,-1
 256 192 l 1,21,-1
 256 256 l 1,22,-1
 256 320 l 1,23,-1
 256 384 l 1,24,-1
 256 448 l 1,25,-1
 320 448 l 1,26,-1
 384 448 l 1,27,-1
 384 384 l 1,28,-1
 384 320 l 1,29,-1
 384 256 l 1,30,-1
 384 192 l 1,31,-1
 384 128 l 1,32,-1
 384 64 l 1,33,-1
 320 64 l 1,34,-1
 320 0 l 1,35,-1
 256 0 l 1,0,-1
192 512 m 1,36,-1
 128 512 l 1,37,-1
 64 512 l 1,38,-1
 64 576 l 1,39,-1
 128 576 l 1,40,-1
 128 640 l 1,41,-1
 192 640 l 1,42,-1
 256 640 l 1,43,-1
 320 640 l 1,44,-1
 320 576 l 1,45,-1
 256 576 l 1,46,-1
 256 512 l 1,47,-1
 192 512 l 1,36,-1
EndSplineSet
EndChar

StartChar: ucircumflex
Encoding: 179 251 178
GlifName: ucircumflex
Width: 448
GlyphClass: 1
Flags: W
LayerCount: 2
Fore
SplineSet
256 0 m 1,0,-1
 192 0 l 1,1,-1
 128 0 l 1,2,-1
 64 0 l 1,3,-1
 64 64 l 1,4,-1
 0 64 l 1,5,-1
 0 128 l 1,6,-1
 0 192 l 1,7,-1
 0 256 l 1,8,-1
 0 320 l 1,9,-1
 0 384 l 1,10,-1
 0 448 l 1,11,-1
 64 448 l 1,12,-1
 128 448 l 1,13,-1
 128 384 l 1,14,-1
 128 320 l 1,15,-1
 128 256 l 1,16,-1
 128 192 l 1,17,-1
 128 128 l 1,18,-1
 192 128 l 1,19,-1
 256 128 l 1,20,-1
 256 192 l 1,21,-1
 256 256 l 1,22,-1
 256 320 l 1,23,-1
 256 384 l 1,24,-1
 256 448 l 1,25,-1
 320 448 l 1,26,-1
 384 448 l 1,27,-1
 384 384 l 1,28,-1
 384 320 l 1,29,-1
 384 256 l 1,30,-1
 384 192 l 1,31,-1
 384 128 l 1,32,-1
 384 64 l 1,33,-1
 320 64 l 1,34,-1
 320 0 l 1,35,-1
 256 0 l 1,0,-1
256 512 m 1,36,-1
 192 512 l 1,37,-1
 128 512 l 1,38,-1
 64 512 l 1,39,-1
 64 576 l 1,40,-1
 128 576 l 1,41,-1
 128 640 l 1,42,-1
 192 640 l 1,43,-1
 256 640 l 1,44,-1
 256 576 l 1,45,-1
 320 576 l 1,46,-1
 320 512 l 1,47,-1
 256 512 l 1,36,-1
EndSplineSet
EndChar

StartChar: udieresis
Encoding: 180 252 179
GlifName: udieresis
Width: 448
GlyphClass: 1
Flags: W
LayerCount: 2
Fore
SplineSet
256 0 m 1,0,-1
 192 0 l 1,1,-1
 128 0 l 1,2,-1
 64 0 l 1,3,-1
 64 64 l 1,4,-1
 0 64 l 1,5,-1
 0 128 l 1,6,-1
 0 192 l 1,7,-1
 0 256 l 1,8,-1
 0 320 l 1,9,-1
 0 384 l 1,10,-1
 0 448 l 1,11,-1
 64 448 l 1,12,-1
 128 448 l 1,13,-1
 128 384 l 1,14,-1
 128 320 l 1,15,-1
 128 256 l 1,16,-1
 128 192 l 1,17,-1
 128 128 l 1,18,-1
 192 128 l 1,19,-1
 256 128 l 1,20,-1
 256 192 l 1,21,-1
 256 256 l 1,22,-1
 256 320 l 1,23,-1
 256 384 l 1,24,-1
 256 448 l 1,25,-1
 320 448 l 1,26,-1
 384 448 l 1,27,-1
 384 384 l 1,28,-1
 384 320 l 1,29,-1
 384 256 l 1,30,-1
 384 192 l 1,31,-1
 384 128 l 1,32,-1
 384 64 l 1,33,-1
 320 64 l 1,34,-1
 320 0 l 1,35,-1
 256 0 l 1,0,-1
320 512 m 1,36,-1
 256 512 l 1,37,-1
 256 576 l 1,38,-1
 256 640 l 1,39,-1
 320 640 l 1,40,-1
 384 640 l 1,41,-1
 384 576 l 1,42,-1
 384 512 l 1,43,-1
 320 512 l 1,36,-1
64 512 m 1,44,-1
 0 512 l 1,45,-1
 0 576 l 1,46,-1
 0 640 l 1,47,-1
 64 640 l 1,48,-1
 128 640 l 1,49,-1
 128 576 l 1,50,-1
 128 512 l 1,51,-1
 64 512 l 1,44,-1
EndSplineSet
EndChar

StartChar: yacute
Encoding: 181 253 180
GlifName: yacute
Width: 448
GlyphClass: 1
Flags: W
LayerCount: 2
Fore
SplineSet
256 -192 m 1,0,-1
 192 -192 l 1,1,-1
 128 -192 l 1,2,-1
 64 -192 l 1,3,-1
 64 -128 l 1,4,-1
 64 -64 l 1,5,-1
 128 -64 l 1,6,-1
 192 -64 l 1,7,-1
 256 -64 l 1,8,-1
 256 0 l 1,9,-1
 192 0 l 1,10,-1
 128 0 l 1,11,-1
 64 0 l 1,12,-1
 64 64 l 1,13,-1
 0 64 l 1,14,-1
 0 128 l 1,15,-1
 0 192 l 1,16,-1
 0 256 l 1,17,-1
 0 320 l 1,18,-1
 0 384 l 1,19,-1
 0 448 l 1,20,-1
 64 448 l 1,21,-1
 128 448 l 1,22,-1
 128 384 l 1,23,-1
 128 320 l 1,24,-1
 128 256 l 1,25,-1
 128 192 l 1,26,-1
 128 128 l 1,27,-1
 192 128 l 1,28,-1
 256 128 l 1,29,-1
 256 192 l 1,30,-1
 256 256 l 1,31,-1
 256 320 l 1,32,-1
 256 384 l 1,33,-1
 256 448 l 1,34,-1
 320 448 l 1,35,-1
 384 448 l 1,36,-1
 384 384 l 1,37,-1
 384 320 l 1,38,-1
 384 256 l 1,39,-1
 384 192 l 1,40,-1
 384 128 l 1,41,-1
 384 64 l 1,42,-1
 384 0 l 1,43,-1
 384 -64 l 1,44,-1
 384 -128 l 1,45,-1
 320 -128 l 1,46,-1
 320 -192 l 1,47,-1
 256 -192 l 1,0,-1
192 512 m 1,48,-1
 128 512 l 1,49,-1
 64 512 l 1,50,-1
 64 576 l 1,51,-1
 128 576 l 1,52,-1
 128 640 l 1,53,-1
 192 640 l 1,54,-1
 256 640 l 1,55,-1
 320 640 l 1,56,-1
 320 576 l 1,57,-1
 256 576 l 1,58,-1
 256 512 l 1,59,-1
 192 512 l 1,48,-1
EndSplineSet
EndChar

StartChar: thorn
Encoding: 182 254 181
GlifName: thorn
Width: 448
GlyphClass: 1
Flags: W
LayerCount: 2
Fore
SplineSet
64 -128 m 1,0,-1
 0 -128 l 1,1,-1
 0 -64 l 1,2,-1
 0 0 l 1,3,-1
 0 64 l 1,4,-1
 0 128 l 1,5,-1
 0 192 l 1,6,-1
 0 256 l 1,7,-1
 0 320 l 1,8,-1
 0 384 l 1,9,-1
 0 448 l 1,10,-1
 0 512 l 1,11,-1
 64 512 l 1,12,-1
 128 512 l 1,13,-1
 128 448 l 1,14,-1
 128 384 l 1,15,-1
 192 384 l 1,16,-1
 256 384 l 1,17,-1
 320 384 l 1,18,-1
 320 320 l 1,19,-1
 384 320 l 1,20,-1
 384 256 l 1,21,-1
 384 192 l 1,22,-1
 384 128 l 1,23,-1
 384 64 l 1,24,-1
 320 64 l 1,25,-1
 320 0 l 1,26,-1
 256 0 l 1,27,-1
 192 0 l 1,28,-1
 128 0 l 1,29,-1
 128 -64 l 1,30,-1
 128 -128 l 1,31,-1
 64 -128 l 1,0,-1
192 128 m 1,32,-1
 256 128 l 1,33,-1
 256 192 l 1,34,-1
 256 256 l 1,35,-1
 192 256 l 1,36,-1
 128 256 l 1,37,-1
 128 192 l 1,38,-1
 128 128 l 1,39,-1
 192 128 l 1,32,-1
EndSplineSet
EndChar

StartChar: ydieresis
Encoding: 183 255 182
GlifName: ydieresis
Width: 448
GlyphClass: 1
Flags: W
LayerCount: 2
Fore
SplineSet
256 -192 m 1,0,-1
 192 -192 l 1,1,-1
 128 -192 l 1,2,-1
 64 -192 l 1,3,-1
 64 -128 l 1,4,-1
 64 -64 l 1,5,-1
 128 -64 l 1,6,-1
 192 -64 l 1,7,-1
 256 -64 l 1,8,-1
 256 0 l 1,9,-1
 192 0 l 1,10,-1
 128 0 l 1,11,-1
 64 0 l 1,12,-1
 64 64 l 1,13,-1
 0 64 l 1,14,-1
 0 128 l 1,15,-1
 0 192 l 1,16,-1
 0 256 l 1,17,-1
 0 320 l 1,18,-1
 0 384 l 1,19,-1
 0 448 l 1,20,-1
 64 448 l 1,21,-1
 128 448 l 1,22,-1
 128 384 l 1,23,-1
 128 320 l 1,24,-1
 128 256 l 1,25,-1
 128 192 l 1,26,-1
 128 128 l 1,27,-1
 192 128 l 1,28,-1
 256 128 l 1,29,-1
 256 192 l 1,30,-1
 256 256 l 1,31,-1
 256 320 l 1,32,-1
 256 384 l 1,33,-1
 256 448 l 1,34,-1
 320 448 l 1,35,-1
 384 448 l 1,36,-1
 384 384 l 1,37,-1
 384 320 l 1,38,-1
 384 256 l 1,39,-1
 384 192 l 1,40,-1
 384 128 l 1,41,-1
 384 64 l 1,42,-1
 384 0 l 1,43,-1
 384 -64 l 1,44,-1
 384 -128 l 1,45,-1
 320 -128 l 1,46,-1
 320 -192 l 1,47,-1
 256 -192 l 1,0,-1
320 512 m 1,48,-1
 256 512 l 1,49,-1
 256 576 l 1,50,-1
 256 640 l 1,51,-1
 320 640 l 1,52,-1
 384 640 l 1,53,-1
 384 576 l 1,54,-1
 384 512 l 1,55,-1
 320 512 l 1,48,-1
64 512 m 1,56,-1
 0 512 l 1,57,-1
 0 576 l 1,58,-1
 0 640 l 1,59,-1
 64 640 l 1,60,-1
 128 640 l 1,61,-1
 128 576 l 1,62,-1
 128 512 l 1,63,-1
 64 512 l 1,56,-1
EndSplineSet
EndChar

StartChar: Amacron
Encoding: 184 256 183
GlifName: A_macron
Width: 576
GlyphClass: 1
Flags: W
LayerCount: 2
Fore
SplineSet
448 0 m 1,0,-1
 384 0 l 1,1,-1
 384 64 l 1,2,-1
 384 128 l 1,3,-1
 320 128 l 1,4,-1
 256 128 l 1,5,-1
 192 128 l 1,6,-1
 128 128 l 1,7,-1
 128 64 l 1,8,-1
 128 0 l 1,9,-1
 64 0 l 1,10,-1
 0 0 l 1,11,-1
 0 64 l 1,12,-1
 0 128 l 1,13,-1
 0 192 l 1,14,-1
 0 256 l 1,15,-1
 0 320 l 1,16,-1
 0 384 l 1,17,-1
 0 448 l 1,18,-1
 64 448 l 1,19,-1
 64 512 l 1,20,-1
 128 512 l 1,21,-1
 192 512 l 1,22,-1
 256 512 l 1,23,-1
 320 512 l 1,24,-1
 384 512 l 1,25,-1
 448 512 l 1,26,-1
 448 448 l 1,27,-1
 512 448 l 1,28,-1
 512 384 l 1,29,-1
 512 320 l 1,30,-1
 512 256 l 1,31,-1
 512 192 l 1,32,-1
 512 128 l 1,33,-1
 512 64 l 1,34,-1
 512 0 l 1,35,-1
 448 0 l 1,0,-1
320 256 m 1,36,-1
 384 256 l 1,37,-1
 384 320 l 1,38,-1
 384 384 l 1,39,-1
 320 384 l 1,40,-1
 256 384 l 1,41,-1
 192 384 l 1,42,-1
 128 384 l 1,43,-1
 128 320 l 1,44,-1
 128 256 l 1,45,-1
 192 256 l 1,46,-1
 256 256 l 1,47,-1
 320 256 l 1,36,-1
384 576 m 1,48,-1
 320 576 l 1,49,-1
 256 576 l 1,50,-1
 192 576 l 1,51,-1
 128 576 l 1,52,-1
 64 576 l 1,53,-1
 64 640 l 1,54,-1
 64 704 l 1,55,-1
 128 704 l 1,56,-1
 192 704 l 1,57,-1
 256 704 l 1,58,-1
 320 704 l 1,59,-1
 384 704 l 1,60,-1
 448 704 l 1,61,-1
 448 640 l 1,62,-1
 448 576 l 1,63,-1
 384 576 l 1,48,-1
EndSplineSet
EndChar

StartChar: amacron
Encoding: 185 257 184
GlifName: amacron
Width: 448
GlyphClass: 1
Flags: W
LayerCount: 2
Fore
SplineSet
320 0 m 1,0,-1
 256 0 l 1,1,-1
 192 0 l 1,2,-1
 128 0 l 1,3,-1
 64 0 l 1,4,-1
 64 64 l 1,5,-1
 0 64 l 1,6,-1
 0 128 l 1,7,-1
 0 192 l 1,8,-1
 0 256 l 1,9,-1
 64 256 l 1,10,-1
 128 256 l 1,11,-1
 192 256 l 1,12,-1
 256 256 l 1,13,-1
 256 320 l 1,14,-1
 192 320 l 1,15,-1
 128 320 l 1,16,-1
 64 320 l 1,17,-1
 0 320 l 1,18,-1
 0 384 l 1,19,-1
 0 448 l 1,20,-1
 64 448 l 1,21,-1
 128 448 l 1,22,-1
 192 448 l 1,23,-1
 256 448 l 1,24,-1
 320 448 l 1,25,-1
 320 384 l 1,26,-1
 384 384 l 1,27,-1
 384 320 l 1,28,-1
 384 256 l 1,29,-1
 384 192 l 1,30,-1
 384 128 l 1,31,-1
 384 64 l 1,32,-1
 384 0 l 1,33,-1
 320 0 l 1,0,-1
192 128 m 1,34,-1
 256 128 l 1,35,-1
 256 192 l 1,36,-1
 192 192 l 1,37,-1
 128 192 l 1,38,-1
 128 128 l 1,39,-1
 192 128 l 1,34,-1
320 512 m 1,40,-1
 256 512 l 1,41,-1
 192 512 l 1,42,-1
 128 512 l 1,43,-1
 64 512 l 1,44,-1
 0 512 l 1,45,-1
 0 576 l 1,46,-1
 0 640 l 1,47,-1
 64 640 l 1,48,-1
 128 640 l 1,49,-1
 192 640 l 1,50,-1
 256 640 l 1,51,-1
 320 640 l 1,52,-1
 384 640 l 1,53,-1
 384 576 l 1,54,-1
 384 512 l 1,55,-1
 320 512 l 1,40,-1
EndSplineSet
EndChar

StartChar: Abreve
Encoding: 186 258 185
GlifName: A_breve
Width: 576
GlyphClass: 1
Flags: W
LayerCount: 2
Fore
SplineSet
448 0 m 1,0,-1
 384 0 l 1,1,-1
 384 64 l 1,2,-1
 384 128 l 1,3,-1
 320 128 l 1,4,-1
 256 128 l 1,5,-1
 192 128 l 1,6,-1
 128 128 l 1,7,-1
 128 64 l 1,8,-1
 128 0 l 1,9,-1
 64 0 l 1,10,-1
 0 0 l 1,11,-1
 0 64 l 1,12,-1
 0 128 l 1,13,-1
 0 192 l 1,14,-1
 0 256 l 1,15,-1
 0 320 l 1,16,-1
 0 384 l 1,17,-1
 0 448 l 1,18,-1
 64 448 l 1,19,-1
 64 512 l 1,20,-1
 128 512 l 1,21,-1
 192 512 l 1,22,-1
 256 512 l 1,23,-1
 320 512 l 1,24,-1
 384 512 l 1,25,-1
 448 512 l 1,26,-1
 448 448 l 1,27,-1
 512 448 l 1,28,-1
 512 384 l 1,29,-1
 512 320 l 1,30,-1
 512 256 l 1,31,-1
 512 192 l 1,32,-1
 512 128 l 1,33,-1
 512 64 l 1,34,-1
 512 0 l 1,35,-1
 448 0 l 1,0,-1
320 256 m 1,36,-1
 384 256 l 1,37,-1
 384 320 l 1,38,-1
 384 384 l 1,39,-1
 320 384 l 1,40,-1
 256 384 l 1,41,-1
 192 384 l 1,42,-1
 128 384 l 1,43,-1
 128 320 l 1,44,-1
 128 256 l 1,45,-1
 192 256 l 1,46,-1
 256 256 l 1,47,-1
 320 256 l 1,36,-1
320 576 m 1,48,-1
 256 576 l 1,49,-1
 192 576 l 1,50,-1
 128 576 l 1,51,-1
 128 640 l 1,52,-1
 128 704 l 1,53,-1
 192 704 l 1,54,-1
 192 640 l 1,55,-1
 256 640 l 1,56,-1
 320 640 l 1,57,-1
 320 704 l 1,58,-1
 384 704 l 1,59,-1
 384 640 l 1,60,-1
 384 576 l 1,61,-1
 320 576 l 1,48,-1
EndSplineSet
EndChar

StartChar: abreve
Encoding: 187 259 186
GlifName: abreve
Width: 448
GlyphClass: 1
Flags: W
LayerCount: 2
Fore
SplineSet
320 0 m 1,0,-1
 256 0 l 1,1,-1
 192 0 l 1,2,-1
 128 0 l 1,3,-1
 64 0 l 1,4,-1
 64 64 l 1,5,-1
 0 64 l 1,6,-1
 0 128 l 1,7,-1
 0 192 l 1,8,-1
 0 256 l 1,9,-1
 64 256 l 1,10,-1
 128 256 l 1,11,-1
 192 256 l 1,12,-1
 256 256 l 1,13,-1
 256 320 l 1,14,-1
 192 320 l 1,15,-1
 128 320 l 1,16,-1
 64 320 l 1,17,-1
 0 320 l 1,18,-1
 0 384 l 1,19,-1
 0 448 l 1,20,-1
 64 448 l 1,21,-1
 128 448 l 1,22,-1
 192 448 l 1,23,-1
 256 448 l 1,24,-1
 320 448 l 1,25,-1
 320 384 l 1,26,-1
 384 384 l 1,27,-1
 384 320 l 1,28,-1
 384 256 l 1,29,-1
 384 192 l 1,30,-1
 384 128 l 1,31,-1
 384 64 l 1,32,-1
 384 0 l 1,33,-1
 320 0 l 1,0,-1
192 128 m 1,34,-1
 256 128 l 1,35,-1
 256 192 l 1,36,-1
 192 192 l 1,37,-1
 128 192 l 1,38,-1
 128 128 l 1,39,-1
 192 128 l 1,34,-1
256 512 m 1,40,-1
 192 512 l 1,41,-1
 128 512 l 1,42,-1
 64 512 l 1,43,-1
 64 576 l 1,44,-1
 64 640 l 1,45,-1
 128 640 l 1,46,-1
 128 576 l 1,47,-1
 192 576 l 1,48,-1
 256 576 l 1,49,-1
 256 640 l 1,50,-1
 320 640 l 1,51,-1
 320 576 l 1,52,-1
 320 512 l 1,53,-1
 256 512 l 1,40,-1
EndSplineSet
EndChar

StartChar: Aogonek
Encoding: 188 260 187
GlifName: A_ogonek
Width: 576
GlyphClass: 1
Flags: W
LayerCount: 2
Fore
SplineSet
448 -128 m 1,0,-1
 384 -128 l 1,1,-1
 384 -64 l 1,2,-1
 320 -64 l 1,3,-1
 320 0 l 1,4,-1
 320 64 l 1,5,-1
 384 64 l 1,6,-1
 384 128 l 1,7,-1
 320 128 l 1,8,-1
 256 128 l 1,9,-1
 192 128 l 1,10,-1
 128 128 l 1,11,-1
 128 64 l 1,12,-1
 128 0 l 1,13,-1
 64 0 l 1,14,-1
 0 0 l 1,15,-1
 0 64 l 1,16,-1
 0 128 l 1,17,-1
 0 192 l 1,18,-1
 0 256 l 1,19,-1
 0 320 l 1,20,-1
 0 384 l 1,21,-1
 0 448 l 1,22,-1
 64 448 l 1,23,-1
 64 512 l 1,24,-1
 128 512 l 1,25,-1
 192 512 l 1,26,-1
 256 512 l 1,27,-1
 320 512 l 1,28,-1
 384 512 l 1,29,-1
 448 512 l 1,30,-1
 448 448 l 1,31,-1
 512 448 l 1,32,-1
 512 384 l 1,33,-1
 512 320 l 1,34,-1
 512 256 l 1,35,-1
 512 192 l 1,36,-1
 512 128 l 1,37,-1
 512 64 l 1,38,-1
 512 0 l 1,39,-1
 448 0 l 1,40,-1
 448 -64 l 1,41,-1
 512 -64 l 1,42,-1
 512 -128 l 1,43,-1
 448 -128 l 1,0,-1
320 256 m 1,44,-1
 384 256 l 1,45,-1
 384 320 l 1,46,-1
 384 384 l 1,47,-1
 320 384 l 1,48,-1
 256 384 l 1,49,-1
 192 384 l 1,50,-1
 128 384 l 1,51,-1
 128 320 l 1,52,-1
 128 256 l 1,53,-1
 192 256 l 1,54,-1
 256 256 l 1,55,-1
 320 256 l 1,44,-1
EndSplineSet
EndChar

StartChar: aogonek
Encoding: 189 261 188
GlifName: aogonek
Width: 448
GlyphClass: 1
Flags: W
LayerCount: 2
Fore
SplineSet
320 -128 m 1,0,-1
 256 -128 l 1,1,-1
 256 -64 l 1,2,-1
 192 -64 l 1,3,-1
 192 0 l 1,4,-1
 128 0 l 1,5,-1
 64 0 l 1,6,-1
 64 64 l 1,7,-1
 0 64 l 1,8,-1
 0 128 l 1,9,-1
 0 192 l 1,10,-1
 0 256 l 1,11,-1
 64 256 l 1,12,-1
 128 256 l 1,13,-1
 192 256 l 1,14,-1
 256 256 l 1,15,-1
 256 320 l 1,16,-1
 192 320 l 1,17,-1
 128 320 l 1,18,-1
 64 320 l 1,19,-1
 0 320 l 1,20,-1
 0 384 l 1,21,-1
 0 448 l 1,22,-1
 64 448 l 1,23,-1
 128 448 l 1,24,-1
 192 448 l 1,25,-1
 256 448 l 1,26,-1
 320 448 l 1,27,-1
 320 384 l 1,28,-1
 384 384 l 1,29,-1
 384 320 l 1,30,-1
 384 256 l 1,31,-1
 384 192 l 1,32,-1
 384 128 l 1,33,-1
 384 64 l 1,34,-1
 384 0 l 1,35,-1
 320 0 l 1,36,-1
 320 -64 l 1,37,-1
 384 -64 l 1,38,-1
 384 -128 l 1,39,-1
 320 -128 l 1,0,-1
192 128 m 1,40,-1
 256 128 l 1,41,-1
 256 192 l 1,42,-1
 192 192 l 1,43,-1
 128 192 l 1,44,-1
 128 128 l 1,45,-1
 192 128 l 1,40,-1
EndSplineSet
EndChar

StartChar: Cacute
Encoding: 190 262 189
GlifName: C_acute
Width: 576
GlyphClass: 1
Flags: W
LayerCount: 2
Fore
SplineSet
384 0 m 1,0,-1
 320 0 l 1,1,-1
 256 0 l 1,2,-1
 192 0 l 1,3,-1
 128 0 l 1,4,-1
 64 0 l 1,5,-1
 64 64 l 1,6,-1
 0 64 l 1,7,-1
 0 128 l 1,8,-1
 0 192 l 1,9,-1
 0 256 l 1,10,-1
 0 320 l 1,11,-1
 0 384 l 1,12,-1
 0 448 l 1,13,-1
 64 448 l 1,14,-1
 64 512 l 1,15,-1
 128 512 l 1,16,-1
 192 512 l 1,17,-1
 256 512 l 1,18,-1
 320 512 l 1,19,-1
 384 512 l 1,20,-1
 448 512 l 1,21,-1
 448 448 l 1,22,-1
 512 448 l 1,23,-1
 512 384 l 1,24,-1
 512 320 l 1,25,-1
 448 320 l 1,26,-1
 384 320 l 1,27,-1
 384 384 l 1,28,-1
 320 384 l 1,29,-1
 256 384 l 1,30,-1
 192 384 l 1,31,-1
 128 384 l 1,32,-1
 128 320 l 1,33,-1
 128 256 l 1,34,-1
 128 192 l 1,35,-1
 128 128 l 1,36,-1
 192 128 l 1,37,-1
 256 128 l 1,38,-1
 320 128 l 1,39,-1
 384 128 l 1,40,-1
 384 192 l 1,41,-1
 448 192 l 1,42,-1
 512 192 l 1,43,-1
 512 128 l 1,44,-1
 512 64 l 1,45,-1
 448 64 l 1,46,-1
 448 0 l 1,47,-1
 384 0 l 1,0,-1
256 576 m 1,48,-1
 192 576 l 1,49,-1
 128 576 l 1,50,-1
 128 640 l 1,51,-1
 192 640 l 1,52,-1
 192 704 l 1,53,-1
 256 704 l 1,54,-1
 320 704 l 1,55,-1
 384 704 l 1,56,-1
 384 640 l 1,57,-1
 320 640 l 1,58,-1
 320 576 l 1,59,-1
 256 576 l 1,48,-1
EndSplineSet
EndChar

StartChar: cacute
Encoding: 191 263 190
GlifName: cacute
Width: 448
GlyphClass: 1
Flags: W
LayerCount: 2
Fore
SplineSet
256 0 m 1,0,-1
 192 0 l 1,1,-1
 128 0 l 1,2,-1
 64 0 l 1,3,-1
 64 64 l 1,4,-1
 0 64 l 1,5,-1
 0 128 l 1,6,-1
 0 192 l 1,7,-1
 0 256 l 1,8,-1
 0 320 l 1,9,-1
 0 384 l 1,10,-1
 64 384 l 1,11,-1
 64 448 l 1,12,-1
 128 448 l 1,13,-1
 192 448 l 1,14,-1
 256 448 l 1,15,-1
 320 448 l 1,16,-1
 320 384 l 1,17,-1
 384 384 l 1,18,-1
 384 320 l 1,19,-1
 384 256 l 1,20,-1
 320 256 l 1,21,-1
 256 256 l 1,22,-1
 256 320 l 1,23,-1
 192 320 l 1,24,-1
 128 320 l 1,25,-1
 128 256 l 1,26,-1
 128 192 l 1,27,-1
 128 128 l 1,28,-1
 192 128 l 1,29,-1
 256 128 l 1,30,-1
 256 192 l 1,31,-1
 320 192 l 1,32,-1
 384 192 l 1,33,-1
 384 128 l 1,34,-1
 384 64 l 1,35,-1
 320 64 l 1,36,-1
 320 0 l 1,37,-1
 256 0 l 1,0,-1
192 512 m 1,38,-1
 128 512 l 1,39,-1
 64 512 l 1,40,-1
 64 576 l 1,41,-1
 128 576 l 1,42,-1
 128 640 l 1,43,-1
 192 640 l 1,44,-1
 256 640 l 1,45,-1
 320 640 l 1,46,-1
 320 576 l 1,47,-1
 256 576 l 1,48,-1
 256 512 l 1,49,-1
 192 512 l 1,38,-1
EndSplineSet
EndChar

StartChar: Ccircumflex
Encoding: 192 264 191
GlifName: C_circumflex
Width: 576
GlyphClass: 1
Flags: W
LayerCount: 2
Fore
SplineSet
384 0 m 1,0,-1
 320 0 l 1,1,-1
 256 0 l 1,2,-1
 192 0 l 1,3,-1
 128 0 l 1,4,-1
 64 0 l 1,5,-1
 64 64 l 1,6,-1
 0 64 l 1,7,-1
 0 128 l 1,8,-1
 0 192 l 1,9,-1
 0 256 l 1,10,-1
 0 320 l 1,11,-1
 0 384 l 1,12,-1
 0 448 l 1,13,-1
 64 448 l 1,14,-1
 64 512 l 1,15,-1
 128 512 l 1,16,-1
 192 512 l 1,17,-1
 256 512 l 1,18,-1
 320 512 l 1,19,-1
 384 512 l 1,20,-1
 448 512 l 1,21,-1
 448 448 l 1,22,-1
 512 448 l 1,23,-1
 512 384 l 1,24,-1
 512 320 l 1,25,-1
 448 320 l 1,26,-1
 384 320 l 1,27,-1
 384 384 l 1,28,-1
 320 384 l 1,29,-1
 256 384 l 1,30,-1
 192 384 l 1,31,-1
 128 384 l 1,32,-1
 128 320 l 1,33,-1
 128 256 l 1,34,-1
 128 192 l 1,35,-1
 128 128 l 1,36,-1
 192 128 l 1,37,-1
 256 128 l 1,38,-1
 320 128 l 1,39,-1
 384 128 l 1,40,-1
 384 192 l 1,41,-1
 448 192 l 1,42,-1
 512 192 l 1,43,-1
 512 128 l 1,44,-1
 512 64 l 1,45,-1
 448 64 l 1,46,-1
 448 0 l 1,47,-1
 384 0 l 1,0,-1
320 576 m 1,48,-1
 256 576 l 1,49,-1
 192 576 l 1,50,-1
 128 576 l 1,51,-1
 128 640 l 1,52,-1
 192 640 l 1,53,-1
 192 704 l 1,54,-1
 256 704 l 1,55,-1
 320 704 l 1,56,-1
 320 640 l 1,57,-1
 384 640 l 1,58,-1
 384 576 l 1,59,-1
 320 576 l 1,48,-1
EndSplineSet
EndChar

StartChar: ccircumflex
Encoding: 193 265 192
GlifName: ccircumflex
Width: 448
GlyphClass: 1
Flags: W
LayerCount: 2
Fore
SplineSet
256 0 m 1,0,-1
 192 0 l 1,1,-1
 128 0 l 1,2,-1
 64 0 l 1,3,-1
 64 64 l 1,4,-1
 0 64 l 1,5,-1
 0 128 l 1,6,-1
 0 192 l 1,7,-1
 0 256 l 1,8,-1
 0 320 l 1,9,-1
 0 384 l 1,10,-1
 64 384 l 1,11,-1
 64 448 l 1,12,-1
 128 448 l 1,13,-1
 192 448 l 1,14,-1
 256 448 l 1,15,-1
 320 448 l 1,16,-1
 320 384 l 1,17,-1
 384 384 l 1,18,-1
 384 320 l 1,19,-1
 384 256 l 1,20,-1
 320 256 l 1,21,-1
 256 256 l 1,22,-1
 256 320 l 1,23,-1
 192 320 l 1,24,-1
 128 320 l 1,25,-1
 128 256 l 1,26,-1
 128 192 l 1,27,-1
 128 128 l 1,28,-1
 192 128 l 1,29,-1
 256 128 l 1,30,-1
 256 192 l 1,31,-1
 320 192 l 1,32,-1
 384 192 l 1,33,-1
 384 128 l 1,34,-1
 384 64 l 1,35,-1
 320 64 l 1,36,-1
 320 0 l 1,37,-1
 256 0 l 1,0,-1
256 512 m 1,38,-1
 192 512 l 1,39,-1
 128 512 l 1,40,-1
 64 512 l 1,41,-1
 64 576 l 1,42,-1
 128 576 l 1,43,-1
 128 640 l 1,44,-1
 192 640 l 1,45,-1
 256 640 l 1,46,-1
 256 576 l 1,47,-1
 320 576 l 1,48,-1
 320 512 l 1,49,-1
 256 512 l 1,38,-1
EndSplineSet
EndChar

StartChar: Cdotaccent
Encoding: 194 266 193
GlifName: C_dotaccent
Width: 576
GlyphClass: 1
Flags: W
LayerCount: 2
Fore
SplineSet
384 0 m 1,0,-1
 320 0 l 1,1,-1
 256 0 l 1,2,-1
 192 0 l 1,3,-1
 128 0 l 1,4,-1
 64 0 l 1,5,-1
 64 64 l 1,6,-1
 0 64 l 1,7,-1
 0 128 l 1,8,-1
 0 192 l 1,9,-1
 0 256 l 1,10,-1
 0 320 l 1,11,-1
 0 384 l 1,12,-1
 0 448 l 1,13,-1
 64 448 l 1,14,-1
 64 512 l 1,15,-1
 128 512 l 1,16,-1
 192 512 l 1,17,-1
 256 512 l 1,18,-1
 320 512 l 1,19,-1
 384 512 l 1,20,-1
 448 512 l 1,21,-1
 448 448 l 1,22,-1
 512 448 l 1,23,-1
 512 384 l 1,24,-1
 512 320 l 1,25,-1
 448 320 l 1,26,-1
 384 320 l 1,27,-1
 384 384 l 1,28,-1
 320 384 l 1,29,-1
 256 384 l 1,30,-1
 192 384 l 1,31,-1
 128 384 l 1,32,-1
 128 320 l 1,33,-1
 128 256 l 1,34,-1
 128 192 l 1,35,-1
 128 128 l 1,36,-1
 192 128 l 1,37,-1
 256 128 l 1,38,-1
 320 128 l 1,39,-1
 384 128 l 1,40,-1
 384 192 l 1,41,-1
 448 192 l 1,42,-1
 512 192 l 1,43,-1
 512 128 l 1,44,-1
 512 64 l 1,45,-1
 448 64 l 1,46,-1
 448 0 l 1,47,-1
 384 0 l 1,0,-1
256 576 m 1,48,-1
 192 576 l 1,49,-1
 192 640 l 1,50,-1
 192 704 l 1,51,-1
 256 704 l 1,52,-1
 320 704 l 1,53,-1
 320 640 l 1,54,-1
 320 576 l 1,55,-1
 256 576 l 1,48,-1
EndSplineSet
EndChar

StartChar: cdotaccent
Encoding: 195 267 194
GlifName: cdotaccent
Width: 448
GlyphClass: 1
Flags: W
LayerCount: 2
Fore
SplineSet
256 0 m 1,0,-1
 192 0 l 1,1,-1
 128 0 l 1,2,-1
 64 0 l 1,3,-1
 64 64 l 1,4,-1
 0 64 l 1,5,-1
 0 128 l 1,6,-1
 0 192 l 1,7,-1
 0 256 l 1,8,-1
 0 320 l 1,9,-1
 0 384 l 1,10,-1
 64 384 l 1,11,-1
 64 448 l 1,12,-1
 128 448 l 1,13,-1
 192 448 l 1,14,-1
 256 448 l 1,15,-1
 320 448 l 1,16,-1
 320 384 l 1,17,-1
 384 384 l 1,18,-1
 384 320 l 1,19,-1
 384 256 l 1,20,-1
 320 256 l 1,21,-1
 256 256 l 1,22,-1
 256 320 l 1,23,-1
 192 320 l 1,24,-1
 128 320 l 1,25,-1
 128 256 l 1,26,-1
 128 192 l 1,27,-1
 128 128 l 1,28,-1
 192 128 l 1,29,-1
 256 128 l 1,30,-1
 256 192 l 1,31,-1
 320 192 l 1,32,-1
 384 192 l 1,33,-1
 384 128 l 1,34,-1
 384 64 l 1,35,-1
 320 64 l 1,36,-1
 320 0 l 1,37,-1
 256 0 l 1,0,-1
192 512 m 1,38,-1
 128 512 l 1,39,-1
 128 576 l 1,40,-1
 128 640 l 1,41,-1
 192 640 l 1,42,-1
 256 640 l 1,43,-1
 256 576 l 1,44,-1
 256 512 l 1,45,-1
 192 512 l 1,38,-1
EndSplineSet
EndChar

StartChar: Ccaron
Encoding: 196 268 195
GlifName: C_caron
Width: 576
GlyphClass: 1
Flags: W
LayerCount: 2
Fore
SplineSet
384 0 m 1,0,-1
 320 0 l 1,1,-1
 256 0 l 1,2,-1
 192 0 l 1,3,-1
 128 0 l 1,4,-1
 64 0 l 1,5,-1
 64 64 l 1,6,-1
 0 64 l 1,7,-1
 0 128 l 1,8,-1
 0 192 l 1,9,-1
 0 256 l 1,10,-1
 0 320 l 1,11,-1
 0 384 l 1,12,-1
 0 448 l 1,13,-1
 64 448 l 1,14,-1
 64 512 l 1,15,-1
 128 512 l 1,16,-1
 192 512 l 1,17,-1
 256 512 l 1,18,-1
 320 512 l 1,19,-1
 384 512 l 1,20,-1
 448 512 l 1,21,-1
 448 448 l 1,22,-1
 512 448 l 1,23,-1
 512 384 l 1,24,-1
 512 320 l 1,25,-1
 448 320 l 1,26,-1
 384 320 l 1,27,-1
 384 384 l 1,28,-1
 320 384 l 1,29,-1
 256 384 l 1,30,-1
 192 384 l 1,31,-1
 128 384 l 1,32,-1
 128 320 l 1,33,-1
 128 256 l 1,34,-1
 128 192 l 1,35,-1
 128 128 l 1,36,-1
 192 128 l 1,37,-1
 256 128 l 1,38,-1
 320 128 l 1,39,-1
 384 128 l 1,40,-1
 384 192 l 1,41,-1
 448 192 l 1,42,-1
 512 192 l 1,43,-1
 512 128 l 1,44,-1
 512 64 l 1,45,-1
 448 64 l 1,46,-1
 448 0 l 1,47,-1
 384 0 l 1,0,-1
256 576 m 1,48,-1
 192 576 l 1,49,-1
 192 640 l 1,50,-1
 128 640 l 1,51,-1
 128 704 l 1,52,-1
 192 704 l 1,53,-1
 256 704 l 1,54,-1
 320 704 l 1,55,-1
 384 704 l 1,56,-1
 384 640 l 1,57,-1
 320 640 l 1,58,-1
 320 576 l 1,59,-1
 256 576 l 1,48,-1
EndSplineSet
EndChar

StartChar: ccaron
Encoding: 197 269 196
GlifName: ccaron
Width: 448
GlyphClass: 1
Flags: W
LayerCount: 2
Fore
SplineSet
256 0 m 1,0,-1
 192 0 l 1,1,-1
 128 0 l 1,2,-1
 64 0 l 1,3,-1
 64 64 l 1,4,-1
 0 64 l 1,5,-1
 0 128 l 1,6,-1
 0 192 l 1,7,-1
 0 256 l 1,8,-1
 0 320 l 1,9,-1
 0 384 l 1,10,-1
 64 384 l 1,11,-1
 64 448 l 1,12,-1
 128 448 l 1,13,-1
 192 448 l 1,14,-1
 256 448 l 1,15,-1
 320 448 l 1,16,-1
 320 384 l 1,17,-1
 384 384 l 1,18,-1
 384 320 l 1,19,-1
 384 256 l 1,20,-1
 320 256 l 1,21,-1
 256 256 l 1,22,-1
 256 320 l 1,23,-1
 192 320 l 1,24,-1
 128 320 l 1,25,-1
 128 256 l 1,26,-1
 128 192 l 1,27,-1
 128 128 l 1,28,-1
 192 128 l 1,29,-1
 256 128 l 1,30,-1
 256 192 l 1,31,-1
 320 192 l 1,32,-1
 384 192 l 1,33,-1
 384 128 l 1,34,-1
 384 64 l 1,35,-1
 320 64 l 1,36,-1
 320 0 l 1,37,-1
 256 0 l 1,0,-1
192 512 m 1,38,-1
 128 512 l 1,39,-1
 128 576 l 1,40,-1
 64 576 l 1,41,-1
 64 640 l 1,42,-1
 128 640 l 1,43,-1
 192 640 l 1,44,-1
 256 640 l 1,45,-1
 320 640 l 1,46,-1
 320 576 l 1,47,-1
 256 576 l 1,48,-1
 256 512 l 1,49,-1
 192 512 l 1,38,-1
EndSplineSet
EndChar

StartChar: Dcaron
Encoding: 198 270 197
GlifName: D_caron
Width: 576
GlyphClass: 1
Flags: W
LayerCount: 2
Fore
SplineSet
384 0 m 1,0,-1
 320 0 l 1,1,-1
 256 0 l 1,2,-1
 192 0 l 1,3,-1
 128 0 l 1,4,-1
 64 0 l 1,5,-1
 0 0 l 1,6,-1
 0 64 l 1,7,-1
 0 128 l 1,8,-1
 0 192 l 1,9,-1
 0 256 l 1,10,-1
 0 320 l 1,11,-1
 0 384 l 1,12,-1
 0 448 l 1,13,-1
 0 512 l 1,14,-1
 64 512 l 1,15,-1
 128 512 l 1,16,-1
 192 512 l 1,17,-1
 256 512 l 1,18,-1
 320 512 l 1,19,-1
 384 512 l 1,20,-1
 448 512 l 1,21,-1
 448 448 l 1,22,-1
 512 448 l 1,23,-1
 512 384 l 1,24,-1
 512 320 l 1,25,-1
 512 256 l 1,26,-1
 512 192 l 1,27,-1
 512 128 l 1,28,-1
 512 64 l 1,29,-1
 448 64 l 1,30,-1
 448 0 l 1,31,-1
 384 0 l 1,0,-1
320 128 m 1,32,-1
 384 128 l 1,33,-1
 384 192 l 1,34,-1
 384 256 l 1,35,-1
 384 320 l 1,36,-1
 384 384 l 1,37,-1
 320 384 l 1,38,-1
 256 384 l 1,39,-1
 192 384 l 1,40,-1
 128 384 l 1,41,-1
 128 320 l 1,42,-1
 128 256 l 1,43,-1
 128 192 l 1,44,-1
 128 128 l 1,45,-1
 192 128 l 1,46,-1
 256 128 l 1,47,-1
 320 128 l 1,32,-1
256 576 m 1,48,-1
 192 576 l 1,49,-1
 192 640 l 1,50,-1
 128 640 l 1,51,-1
 128 704 l 1,52,-1
 192 704 l 1,53,-1
 256 704 l 1,54,-1
 320 704 l 1,55,-1
 384 704 l 1,56,-1
 384 640 l 1,57,-1
 320 640 l 1,58,-1
 320 576 l 1,59,-1
 256 576 l 1,48,-1
EndSplineSet
EndChar

StartChar: dcaron
Encoding: 199 271 198
GlifName: dcaron
Width: 576
GlyphClass: 1
Flags: W
LayerCount: 2
Fore
SplineSet
256 0 m 1,0,-1
 192 0 l 1,1,-1
 128 0 l 1,2,-1
 64 0 l 1,3,-1
 64 64 l 1,4,-1
 0 64 l 1,5,-1
 0 128 l 1,6,-1
 0 192 l 1,7,-1
 0 256 l 1,8,-1
 0 320 l 1,9,-1
 64 320 l 1,10,-1
 64 384 l 1,11,-1
 128 384 l 1,12,-1
 192 384 l 1,13,-1
 192 448 l 1,14,-1
 192 512 l 1,15,-1
 256 512 l 1,16,-1
 320 512 l 1,17,-1
 320 448 l 1,18,-1
 320 384 l 1,19,-1
 320 320 l 1,20,-1
 320 256 l 1,21,-1
 320 192 l 1,22,-1
 320 128 l 1,23,-1
 320 64 l 1,24,-1
 320 0 l 1,25,-1
 256 0 l 1,0,-1
192 128 m 1,26,-1
 192 192 l 1,27,-1
 192 256 l 1,28,-1
 128 256 l 1,29,-1
 128 192 l 1,30,-1
 128 128 l 1,31,-1
 192 128 l 1,26,-1
448 384 m 1,32,-1
 384 384 l 1,33,-1
 384 448 l 1,34,-1
 384 512 l 1,35,-1
 384 576 l 1,36,-1
 384 640 l 1,37,-1
 448 640 l 1,38,-1
 512 640 l 1,39,-1
 512 576 l 1,40,-1
 512 512 l 1,41,-1
 512 448 l 1,42,-1
 512 384 l 1,43,-1
 448 384 l 1,32,-1
EndSplineSet
EndChar

StartChar: Dcroat
Encoding: 200 272 199
GlifName: D_croat
Width: 576
GlyphClass: 1
Flags: W
LayerCount: 2
Fore
SplineSet
384 0 m 1,0,-1
 320 0 l 1,1,-1
 256 0 l 1,2,-1
 192 0 l 1,3,-1
 128 0 l 1,4,-1
 64 0 l 1,5,-1
 64 64 l 1,6,-1
 64 128 l 1,7,-1
 64 192 l 1,8,-1
 0 192 l 1,9,-1
 0 256 l 1,10,-1
 0 320 l 1,11,-1
 64 320 l 1,12,-1
 64 384 l 1,13,-1
 64 448 l 1,14,-1
 64 512 l 1,15,-1
 128 512 l 1,16,-1
 192 512 l 1,17,-1
 256 512 l 1,18,-1
 320 512 l 1,19,-1
 384 512 l 1,20,-1
 448 512 l 1,21,-1
 448 448 l 1,22,-1
 512 448 l 1,23,-1
 512 384 l 1,24,-1
 512 320 l 1,25,-1
 512 256 l 1,26,-1
 512 192 l 1,27,-1
 512 128 l 1,28,-1
 512 64 l 1,29,-1
 448 64 l 1,30,-1
 448 0 l 1,31,-1
 384 0 l 1,0,-1
320 128 m 1,32,-1
 384 128 l 1,33,-1
 384 192 l 1,34,-1
 384 256 l 1,35,-1
 384 320 l 1,36,-1
 384 384 l 1,37,-1
 320 384 l 1,38,-1
 256 384 l 1,39,-1
 192 384 l 1,40,-1
 192 320 l 1,41,-1
 256 320 l 1,42,-1
 320 320 l 1,43,-1
 320 256 l 1,44,-1
 320 192 l 1,45,-1
 256 192 l 1,46,-1
 192 192 l 1,47,-1
 192 128 l 1,48,-1
 256 128 l 1,49,-1
 320 128 l 1,32,-1
EndSplineSet
EndChar

StartChar: dcroat
Encoding: 201 273 200
GlifName: dcroat
Width: 512
GlyphClass: 1
Flags: W
LayerCount: 2
Fore
SplineSet
320 0 m 1,0,-1
 256 0 l 1,1,-1
 192 0 l 1,2,-1
 128 0 l 1,3,-1
 64 0 l 1,4,-1
 64 64 l 1,5,-1
 0 64 l 1,6,-1
 0 128 l 1,7,-1
 0 192 l 1,8,-1
 0 256 l 1,9,-1
 64 256 l 1,10,-1
 64 320 l 1,11,-1
 128 320 l 1,12,-1
 192 320 l 1,13,-1
 256 320 l 1,14,-1
 256 384 l 1,15,-1
 192 384 l 1,16,-1
 128 384 l 1,17,-1
 128 448 l 1,18,-1
 128 512 l 1,19,-1
 192 512 l 1,20,-1
 256 512 l 1,21,-1
 256 576 l 1,22,-1
 320 576 l 1,23,-1
 384 576 l 1,24,-1
 384 512 l 1,25,-1
 448 512 l 1,26,-1
 448 448 l 1,27,-1
 448 384 l 1,28,-1
 384 384 l 1,29,-1
 384 320 l 1,30,-1
 384 256 l 1,31,-1
 384 192 l 1,32,-1
 384 128 l 1,33,-1
 384 64 l 1,34,-1
 384 0 l 1,35,-1
 320 0 l 1,0,-1
192 128 m 1,36,-1
 256 128 l 1,37,-1
 256 192 l 1,38,-1
 192 192 l 1,39,-1
 128 192 l 1,40,-1
 128 128 l 1,41,-1
 192 128 l 1,36,-1
EndSplineSet
EndChar

StartChar: Emacron
Encoding: 202 274 201
GlifName: E_macron
Width: 576
GlyphClass: 1
Flags: W
LayerCount: 2
Fore
SplineSet
448 0 m 1,0,-1
 384 0 l 1,1,-1
 320 0 l 1,2,-1
 256 0 l 1,3,-1
 192 0 l 1,4,-1
 128 0 l 1,5,-1
 64 0 l 1,6,-1
 0 0 l 1,7,-1
 0 64 l 1,8,-1
 0 128 l 1,9,-1
 0 192 l 1,10,-1
 0 256 l 1,11,-1
 0 320 l 1,12,-1
 0 384 l 1,13,-1
 0 448 l 1,14,-1
 0 512 l 1,15,-1
 64 512 l 1,16,-1
 128 512 l 1,17,-1
 192 512 l 1,18,-1
 256 512 l 1,19,-1
 320 512 l 1,20,-1
 384 512 l 1,21,-1
 448 512 l 1,22,-1
 512 512 l 1,23,-1
 512 448 l 1,24,-1
 512 384 l 1,25,-1
 448 384 l 1,26,-1
 384 384 l 1,27,-1
 320 384 l 1,28,-1
 256 384 l 1,29,-1
 192 384 l 1,30,-1
 128 384 l 1,31,-1
 128 320 l 1,32,-1
 192 320 l 1,33,-1
 256 320 l 1,34,-1
 320 320 l 1,35,-1
 384 320 l 1,36,-1
 448 320 l 1,37,-1
 448 256 l 1,38,-1
 448 192 l 1,39,-1
 384 192 l 1,40,-1
 320 192 l 1,41,-1
 256 192 l 1,42,-1
 192 192 l 1,43,-1
 128 192 l 1,44,-1
 128 128 l 1,45,-1
 192 128 l 1,46,-1
 256 128 l 1,47,-1
 320 128 l 1,48,-1
 384 128 l 1,49,-1
 448 128 l 1,50,-1
 512 128 l 1,51,-1
 512 64 l 1,52,-1
 512 0 l 1,53,-1
 448 0 l 1,0,-1
384 576 m 1,54,-1
 320 576 l 1,55,-1
 256 576 l 1,56,-1
 192 576 l 1,57,-1
 128 576 l 1,58,-1
 64 576 l 1,59,-1
 64 640 l 1,60,-1
 64 704 l 1,61,-1
 128 704 l 1,62,-1
 192 704 l 1,63,-1
 256 704 l 1,64,-1
 320 704 l 1,65,-1
 384 704 l 1,66,-1
 448 704 l 1,67,-1
 448 640 l 1,68,-1
 448 576 l 1,69,-1
 384 576 l 1,54,-1
EndSplineSet
EndChar

StartChar: emacron
Encoding: 203 275 202
GlifName: emacron
Width: 448
GlyphClass: 1
Flags: W
LayerCount: 2
Fore
SplineSet
320 0 m 1,0,-1
 256 0 l 1,1,-1
 192 0 l 1,2,-1
 128 0 l 1,3,-1
 64 0 l 1,4,-1
 64 64 l 1,5,-1
 0 64 l 1,6,-1
 0 128 l 1,7,-1
 0 192 l 1,8,-1
 0 256 l 1,9,-1
 0 320 l 1,10,-1
 0 384 l 1,11,-1
 64 384 l 1,12,-1
 64 448 l 1,13,-1
 128 448 l 1,14,-1
 192 448 l 1,15,-1
 256 448 l 1,16,-1
 320 448 l 1,17,-1
 320 384 l 1,18,-1
 384 384 l 1,19,-1
 384 320 l 1,20,-1
 384 256 l 1,21,-1
 384 192 l 1,22,-1
 320 192 l 1,23,-1
 256 192 l 1,24,-1
 192 192 l 1,25,-1
 128 192 l 1,26,-1
 128 128 l 1,27,-1
 192 128 l 1,28,-1
 256 128 l 1,29,-1
 320 128 l 1,30,-1
 384 128 l 1,31,-1
 384 64 l 1,32,-1
 384 0 l 1,33,-1
 320 0 l 1,0,-1
192 256 m 1,34,-1
 256 256 l 1,35,-1
 256 320 l 1,36,-1
 192 320 l 1,37,-1
 128 320 l 1,38,-1
 128 256 l 1,39,-1
 192 256 l 1,34,-1
320 512 m 1,40,-1
 256 512 l 1,41,-1
 192 512 l 1,42,-1
 128 512 l 1,43,-1
 64 512 l 1,44,-1
 0 512 l 1,45,-1
 0 576 l 1,46,-1
 0 640 l 1,47,-1
 64 640 l 1,48,-1
 128 640 l 1,49,-1
 192 640 l 1,50,-1
 256 640 l 1,51,-1
 320 640 l 1,52,-1
 384 640 l 1,53,-1
 384 576 l 1,54,-1
 384 512 l 1,55,-1
 320 512 l 1,40,-1
EndSplineSet
EndChar

StartChar: Ebreve
Encoding: 204 276 203
GlifName: E_breve
Width: 576
GlyphClass: 1
Flags: W
LayerCount: 2
Fore
SplineSet
448 0 m 1,0,-1
 384 0 l 1,1,-1
 320 0 l 1,2,-1
 256 0 l 1,3,-1
 192 0 l 1,4,-1
 128 0 l 1,5,-1
 64 0 l 1,6,-1
 0 0 l 1,7,-1
 0 64 l 1,8,-1
 0 128 l 1,9,-1
 0 192 l 1,10,-1
 0 256 l 1,11,-1
 0 320 l 1,12,-1
 0 384 l 1,13,-1
 0 448 l 1,14,-1
 0 512 l 1,15,-1
 64 512 l 1,16,-1
 128 512 l 1,17,-1
 192 512 l 1,18,-1
 256 512 l 1,19,-1
 320 512 l 1,20,-1
 384 512 l 1,21,-1
 448 512 l 1,22,-1
 512 512 l 1,23,-1
 512 448 l 1,24,-1
 512 384 l 1,25,-1
 448 384 l 1,26,-1
 384 384 l 1,27,-1
 320 384 l 1,28,-1
 256 384 l 1,29,-1
 192 384 l 1,30,-1
 128 384 l 1,31,-1
 128 320 l 1,32,-1
 192 320 l 1,33,-1
 256 320 l 1,34,-1
 320 320 l 1,35,-1
 384 320 l 1,36,-1
 448 320 l 1,37,-1
 448 256 l 1,38,-1
 448 192 l 1,39,-1
 384 192 l 1,40,-1
 320 192 l 1,41,-1
 256 192 l 1,42,-1
 192 192 l 1,43,-1
 128 192 l 1,44,-1
 128 128 l 1,45,-1
 192 128 l 1,46,-1
 256 128 l 1,47,-1
 320 128 l 1,48,-1
 384 128 l 1,49,-1
 448 128 l 1,50,-1
 512 128 l 1,51,-1
 512 64 l 1,52,-1
 512 0 l 1,53,-1
 448 0 l 1,0,-1
320 576 m 1,54,-1
 256 576 l 1,55,-1
 192 576 l 1,56,-1
 128 576 l 1,57,-1
 128 640 l 1,58,-1
 128 704 l 1,59,-1
 192 704 l 1,60,-1
 192 640 l 1,61,-1
 256 640 l 1,62,-1
 320 640 l 1,63,-1
 320 704 l 1,64,-1
 384 704 l 1,65,-1
 384 640 l 1,66,-1
 384 576 l 1,67,-1
 320 576 l 1,54,-1
EndSplineSet
EndChar

